<?xml version="1.0" encoding="UTF-8" standalone="no"?><svg xmlns="http://www.w3.org/2000/svg" xmlns:xlink="http://www.w3.org/1999/xlink" contentScriptType="application/ecmascript" contentStyleType="text/css" height="548px" preserveAspectRatio="none" style="width:308px;height:548px;" version="1.1" viewBox="0 0 308 548" width="308px" zoomAndPan="magnify"><defs><filter height="300%" id="fze6zezawi5pp" width="300%" x="-1" y="-1"><feGaussianBlur result="blurOut" stdDeviation="2.0"/><feColorMatrix in="blurOut" result="blurOut2" type="matrix" values="0 0 0 0 0 0 0 0 0 0 0 0 0 0 0 0 0 0 .4 0"/><feOffset dx="4.0" dy="4.0" in="blurOut2" result="blurOut3"/><feBlend in="SourceGraphic" in2="blurOut3" mode="normal"/></filter></defs><g><ellipse cx="137" cy="20" fill="#000000" filter="url(#fze6zezawi5pp)" rx="10" ry="10" style="stroke: none; stroke-width: 1.0;"/><rect fill="#FEFECE" filter="url(#fze6zezawi5pp)" height="33.9688" rx="12.5" ry="12.5" style="stroke: #A80036; stroke-width: 1.5;" width="83" x="95.5" y="50"/><text fill="#000000" font-family="sans-serif" font-size="12" lengthAdjust="spacingAndGlyphs" textLength="63" x="105.5" y="71.1387">new Vue()</text><rect fill="#FEFECE" filter="url(#fze6zezawi5pp)" height="33.9688" rx="12.5" ry="12.5" style="stroke: #A80036; stroke-width: 1.5;" width="78" x="98" y="103.9688"/><text fill="#000000" font-family="sans-serif" font-size="12" lengthAdjust="spacingAndGlyphs" textLength="58" x="108" y="125.1074">$mount()</text><rect fill="#FEFECE" filter="url(#fze6zezawi5pp)" height="33.9688" rx="12.5" ry="12.5" style="stroke: #A80036; stroke-width: 1.5;" width="111" x="81.5" y="157.9375"/><text fill="#000000" font-family="sans-serif" font-size="12" lengthAdjust="spacingAndGlyphs" textLength="91" x="91.5" y="179.0762">new Watcher()</text><rect fill="#FEFECE" filter="url(#fze6zezawi5pp)" height="33.9688" rx="12.5" ry="12.5" style="stroke: #A80036; stroke-width: 1.5;" width="210" x="32" y="211.9063"/><text fill="#000000" font-family="sans-serif" font-size="12" lengthAdjust="spacingAndGlyphs" textLength="190" x="42" y="233.0449">把Dep.target赋值为watcher实例</text><rect fill="#FEFECE" filter="url(#fze6zezawi5pp)" height="33.9688" rx="12.5" ry="12.5" style="stroke: #A80036; stroke-width: 1.5;" width="254" x="10" y="265.875"/><text fill="#000000" font-family="sans-serif" font-size="12" lengthAdjust="spacingAndGlyphs" textLength="234" x="20" y="287.0137">_render()读取了data的数据，触发getter</text><polygon fill="#FEFECE" filter="url(#fze6zezawi5pp)" points="107,319.8438,167,319.8438,179,331.8438,167,343.8438,107,343.8438,95,331.8438,107,319.8438" style="stroke: #A80036; stroke-width: 1.5;"/><text fill="#000000" font-family="sans-serif" font-size="11" lengthAdjust="spacingAndGlyphs" textLength="60" x="107" y="335.6519">Dep.target</text><text fill="#000000" font-family="sans-serif" font-size="11" lengthAdjust="spacingAndGlyphs" textLength="28" x="67" y="329.2495">false</text><text fill="#000000" font-family="sans-serif" font-size="11" lengthAdjust="spacingAndGlyphs" textLength="23" x="179" y="329.2495">true</text><ellipse cx="71.75" cy="363.8438" fill="#FFFFFF" filter="url(#fze6zezawi5pp)" rx="10" ry="10" style="stroke: #000000; stroke-width: 1.5;"/><line style="stroke: #000000; stroke-width: 2.5;" x1="65.5628" x2="77.9372" y1="357.6566" y2="370.0309"/><line style="stroke: #000000; stroke-width: 2.5;" x1="77.9372" x2="65.5628" y1="357.6566" y2="370.0309"/><rect fill="#FEFECE" filter="url(#fze6zezawi5pp)" height="33.9688" rx="12.5" ry="12.5" style="stroke: #A80036; stroke-width: 1.5;" width="106" x="149.25" y="353.8438"/><text fill="#000000" font-family="sans-serif" font-size="12" lengthAdjust="spacingAndGlyphs" textLength="86" x="159.25" y="374.9824">dep.depend()</text><rect fill="#FEFECE" filter="url(#fze6zezawi5pp)" height="33.9688" rx="12.5" ry="12.5" style="stroke: #A80036; stroke-width: 1.5;" width="191" x="106.75" y="407.8125"/><text fill="#000000" font-family="sans-serif" font-size="12" lengthAdjust="spacingAndGlyphs" textLength="171" x="116.75" y="428.9512">dep.subs.push(Dep.target)</text><rect fill="#FEFECE" filter="url(#fze6zezawi5pp)" height="33.9688" rx="12.5" ry="12.5" style="stroke: #A80036; stroke-width: 1.5;" width="128" x="138.25" y="461.7813"/><text fill="#000000" font-family="sans-serif" font-size="12" lengthAdjust="spacingAndGlyphs" textLength="108" x="148.25" y="482.9199">Dep.target = null</text><ellipse cx="137" cy="526.75" fill="#FFFFFF" filter="url(#fze6zezawi5pp)" rx="11" ry="11" style="stroke: #000000; stroke-width: 1.0;"/><ellipse cx="137" cy="526.75" fill="#000000" rx="6" ry="6" style="stroke: #7F7F7F; stroke-width: 1.0;"/><line style="stroke: #A80036; stroke-width: 1.5;" x1="137" x2="137" y1="30" y2="50"/><polygon fill="#A80036" points="133,40,137,50,141,40,137,44" style="stroke: #A80036; stroke-width: 1.0;"/><line style="stroke: #A80036; stroke-width: 1.5;" x1="137" x2="137" y1="83.9688" y2="103.9688"/><polygon fill="#A80036" points="133,93.9688,137,103.9688,141,93.9688,137,97.9688" style="stroke: #A80036; stroke-width: 1.0;"/><line style="stroke: #A80036; stroke-width: 1.5;" x1="137" x2="137" y1="137.9375" y2="157.9375"/><polygon fill="#A80036" points="133,147.9375,137,157.9375,141,147.9375,137,151.9375" style="stroke: #A80036; stroke-width: 1.0;"/><line style="stroke: #A80036; stroke-width: 1.5;" x1="137" x2="137" y1="191.9063" y2="211.9063"/><polygon fill="#A80036" points="133,201.9063,137,211.9063,141,201.9063,137,205.9063" style="stroke: #A80036; stroke-width: 1.0;"/><line style="stroke: #A80036; stroke-width: 1.5;" x1="137" x2="137" y1="245.875" y2="265.875"/><polygon fill="#A80036" points="133,255.875,137,265.875,141,255.875,137,259.875" style="stroke: #A80036; stroke-width: 1.0;"/><line style="stroke: #A80036; stroke-width: 1.5;" x1="202.25" x2="202.25" y1="387.8125" y2="407.8125"/><polygon fill="#A80036" points="198.25,397.8125,202.25,407.8125,206.25,397.8125,202.25,401.8125" style="stroke: #A80036; stroke-width: 1.0;"/><line style="stroke: #A80036; stroke-width: 1.5;" x1="202.25" x2="202.25" y1="441.7813" y2="461.7813"/><polygon fill="#A80036" points="198.25,451.7813,202.25,461.7813,206.25,451.7813,202.25,455.7813" style="stroke: #A80036; stroke-width: 1.0;"/><line style="stroke: #A80036; stroke-width: 1.5;" x1="95" x2="71.75" y1="331.8438" y2="331.8438"/><line style="stroke: #A80036; stroke-width: 1.5;" x1="71.75" x2="71.75" y1="331.8438" y2="353.8438"/><polygon fill="#A80036" points="67.75,343.8438,71.75,353.8438,75.75,343.8438,71.75,347.8438" style="stroke: #A80036; stroke-width: 1.0;"/><line style="stroke: #A80036; stroke-width: 1.5;" x1="179" x2="202.25" y1="331.8438" y2="331.8438"/><line style="stroke: #A80036; stroke-width: 1.5;" x1="202.25" x2="202.25" y1="331.8438" y2="353.8438"/><polygon fill="#A80036" points="198.25,343.8438,202.25,353.8438,206.25,343.8438,202.25,347.8438" style="stroke: #A80036; stroke-width: 1.0;"/><line style="stroke: #A80036; stroke-width: 1.5;" x1="202.25" x2="202.25" y1="495.75" y2="500.75"/><line style="stroke: #A80036; stroke-width: 1.5;" x1="202.25" x2="137" y1="500.75" y2="500.75"/><line style="stroke: #A80036; stroke-width: 1.5;" x1="137" x2="137" y1="500.75" y2="515.75"/><polygon fill="#A80036" points="133,505.75,137,515.75,141,505.75,137,509.75" style="stroke: #A80036; stroke-width: 1.0;"/><line style="stroke: #A80036; stroke-width: 1.5;" x1="137" x2="137" y1="299.8438" y2="319.8438"/><polygon fill="#A80036" points="133,309.8438,137,319.8438,141,309.8438,137,313.8438" style="stroke: #A80036; stroke-width: 1.0;"/></g></svg>
