<?xml version="1.0" encoding="UTF-8" standalone="no"?><svg xmlns="http://www.w3.org/2000/svg" xmlns:xlink="http://www.w3.org/1999/xlink" contentScriptType="application/ecmascript" contentStyleType="text/css" height="419px" preserveAspectRatio="none" style="width:370px;height:419px;" version="1.1" viewBox="0 0 370 419" width="370px" zoomAndPan="magnify"><defs><filter height="300%" id="fr45lmnqvrk9f" width="300%" x="-1" y="-1"><feGaussianBlur result="blurOut" stdDeviation="2.0"/><feColorMatrix in="blurOut" result="blurOut2" type="matrix" values="0 0 0 0 0 0 0 0 0 0 0 0 0 0 0 0 0 0 .4 0"/><feOffset dx="4.0" dy="4.0" in="blurOut2" result="blurOut3"/><feBlend in="SourceGraphic" in2="blurOut3" mode="normal"/></filter></defs><g><ellipse cx="172.5" cy="20" fill="#000000" filter="url(#fr45lmnqvrk9f)" rx="10" ry="10" style="stroke: none; stroke-width: 1.0;"/><rect fill="#FEFECE" filter="url(#fr45lmnqvrk9f)" height="33.9688" rx="12.5" ry="12.5" style="stroke: #A80036; stroke-width: 1.5;" width="118" x="113.5" y="94"/><text fill="#000000" font-family="sans-serif" font-size="12" lengthAdjust="spacingAndGlyphs" textLength="98" x="123.5" y="115.1387">observer(value)</text><rect fill="#FEFECE" filter="url(#fr45lmnqvrk9f)" height="33.9688" rx="12.5" ry="12.5" style="stroke: #A80036; stroke-width: 1.5;" width="148" x="98.5" y="147.9688"/><text fill="#000000" font-family="sans-serif" font-size="12" lengthAdjust="spacingAndGlyphs" textLength="128" x="108.5" y="169.1074">new Observer(value)</text><polygon fill="#FEFECE" filter="url(#fr45lmnqvrk9f)" points="129.5,201.9375,215.5,201.9375,227.5,213.9375,215.5,225.9375,129.5,225.9375,117.5,213.9375,129.5,201.9375" style="stroke: #A80036; stroke-width: 1.5;"/><text fill="#000000" font-family="sans-serif" font-size="11" lengthAdjust="spacingAndGlyphs" textLength="86" x="129.5" y="217.7456">Array or Object</text><text fill="#000000" font-family="sans-serif" font-size="11" lengthAdjust="spacingAndGlyphs" textLength="36" x="81.5" y="211.3433">Object</text><text fill="#000000" font-family="sans-serif" font-size="11" lengthAdjust="spacingAndGlyphs" textLength="30" x="227.5" y="211.3433">Array</text><rect fill="#FEFECE" filter="url(#fr45lmnqvrk9f)" height="33.9688" rx="12.5" ry="12.5" style="stroke: #A80036; stroke-width: 1.5;" width="90" x="42.5" y="235.9375"/><text fill="#000000" font-family="sans-serif" font-size="12" lengthAdjust="spacingAndGlyphs" textLength="70" x="52.5" y="257.0762">walk(value)</text><rect fill="#FEFECE" filter="url(#fr45lmnqvrk9f)" height="33.9688" rx="12.5" ry="12.5" style="stroke: #A80036; stroke-width: 1.5;" width="155" x="10" y="289.9063"/><text fill="#000000" font-family="sans-serif" font-size="12" lengthAdjust="spacingAndGlyphs" textLength="135" x="20" y="311.0449">defineReactive(value)</text><ellipse cx="87.5" cy="353.875" fill="#FFFFFF" filter="url(#fr45lmnqvrk9f)" rx="10" ry="10" style="stroke: #000000; stroke-width: 1.5;"/><line style="stroke: #000000; stroke-width: 2.5;" x1="81.3128" x2="93.6872" y1="347.6878" y2="360.0622"/><line style="stroke: #000000; stroke-width: 2.5;" x1="93.6872" x2="81.3128" y1="347.6878" y2="360.0622"/><rect fill="#FEFECE" filter="url(#fr45lmnqvrk9f)" height="33.9688" rx="12.5" ry="12.5" style="stroke: #A80036; stroke-width: 1.5;" width="145" x="185" y="235.9375"/><text fill="#000000" font-family="sans-serif" font-size="12" lengthAdjust="spacingAndGlyphs" textLength="125" x="195" y="257.0762">observeArray(value)</text><polygon fill="#FEFECE" filter="url(#fr45lmnqvrk9f)" points="172.5,50,184.5,62,172.5,74,160.5,62,172.5,50" style="stroke: #A80036; stroke-width: 1.5;"/><polygon fill="#FEFECE" filter="url(#fr45lmnqvrk9f)" points="132,383.875,213,383.875,225,395.875,213,407.875,132,407.875,120,395.875,132,383.875" style="stroke: #A80036; stroke-width: 1.5;"/><text fill="#000000" font-family="sans-serif" font-size="11" lengthAdjust="spacingAndGlyphs" textLength="81" x="132" y="399.6831">foreach(value)</text><line style="stroke: #A80036; stroke-width: 1.5;" x1="172.5" x2="172.5" y1="127.9688" y2="147.9688"/><polygon fill="#A80036" points="168.5,137.9688,172.5,147.9688,176.5,137.9688,172.5,141.9688" style="stroke: #A80036; stroke-width: 1.0;"/><line style="stroke: #A80036; stroke-width: 1.5;" x1="87.5" x2="87.5" y1="269.9063" y2="289.9063"/><polygon fill="#A80036" points="83.5,279.9063,87.5,289.9063,91.5,279.9063,87.5,283.9063" style="stroke: #A80036; stroke-width: 1.0;"/><line style="stroke: #A80036; stroke-width: 1.5;" x1="87.5" x2="87.5" y1="323.875" y2="343.875"/><polygon fill="#A80036" points="83.5,333.875,87.5,343.875,91.5,333.875,87.5,337.875" style="stroke: #A80036; stroke-width: 1.0;"/><line style="stroke: #A80036; stroke-width: 1.5;" x1="117.5" x2="87.5" y1="213.9375" y2="213.9375"/><line style="stroke: #A80036; stroke-width: 1.5;" x1="87.5" x2="87.5" y1="213.9375" y2="235.9375"/><polygon fill="#A80036" points="83.5,225.9375,87.5,235.9375,91.5,225.9375,87.5,229.9375" style="stroke: #A80036; stroke-width: 1.0;"/><line style="stroke: #A80036; stroke-width: 1.5;" x1="227.5" x2="257.5" y1="213.9375" y2="213.9375"/><line style="stroke: #A80036; stroke-width: 1.5;" x1="257.5" x2="257.5" y1="213.9375" y2="235.9375"/><polygon fill="#A80036" points="253.5,225.9375,257.5,235.9375,261.5,225.9375,257.5,229.9375" style="stroke: #A80036; stroke-width: 1.0;"/><line style="stroke: #A80036; stroke-width: 1.5;" x1="257.5" x2="257.5" y1="269.9063" y2="368.875"/><line style="stroke: #A80036; stroke-width: 1.5;" x1="257.5" x2="172.5" y1="368.875" y2="368.875"/><line style="stroke: #A80036; stroke-width: 1.5;" x1="172.5" x2="172.5" y1="368.875" y2="383.875"/><polygon fill="#A80036" points="168.5,373.875,172.5,383.875,176.5,373.875,172.5,377.875" style="stroke: #A80036; stroke-width: 1.0;"/><line style="stroke: #A80036; stroke-width: 1.5;" x1="172.5" x2="172.5" y1="181.9375" y2="201.9375"/><polygon fill="#A80036" points="168.5,191.9375,172.5,201.9375,176.5,191.9375,172.5,195.9375" style="stroke: #A80036; stroke-width: 1.0;"/><line style="stroke: #A80036; stroke-width: 1.5;" x1="172.5" x2="172.5" y1="74" y2="94"/><polygon fill="#A80036" points="168.5,84,172.5,94,176.5,84,172.5,88" style="stroke: #A80036; stroke-width: 1.0;"/><line style="stroke: #A80036; stroke-width: 1.5;" x1="225" x2="344" y1="395.875" y2="395.875"/><polygon fill="#A80036" points="340,241.9375,344,231.9375,348,241.9375,344,237.9375" style="stroke: #A80036; stroke-width: 1.5;"/><line style="stroke: #A80036; stroke-width: 1.5;" x1="344" x2="344" y1="62" y2="395.875"/><line style="stroke: #A80036; stroke-width: 1.5;" x1="344" x2="184.5" y1="62" y2="62"/><polygon fill="#A80036" points="194.5,58,184.5,62,194.5,66,190.5,62" style="stroke: #A80036; stroke-width: 1.0;"/><line style="stroke: #A80036; stroke-width: 1.5;" x1="172.5" x2="172.5" y1="30" y2="50"/><polygon fill="#A80036" points="168.5,40,172.5,50,176.5,40,172.5,44" style="stroke: #A80036; stroke-width: 1.0;"/></g></svg>
