<?xml version="1.0" encoding="UTF-8" standalone="no"?><svg xmlns="http://www.w3.org/2000/svg" xmlns:xlink="http://www.w3.org/1999/xlink" contentScriptType="application/ecmascript" contentStyleType="text/css" height="923px" preserveAspectRatio="none" style="width:784px;height:923px;" version="1.1" viewBox="0 0 784 923" width="784px" zoomAndPan="magnify"><defs><filter height="300%" id="f1v2kmy69j7sj4" width="300%" x="-1" y="-1"><feGaussianBlur result="blurOut" stdDeviation="2.0"/><feColorMatrix in="blurOut" result="blurOut2" type="matrix" values="0 0 0 0 0 0 0 0 0 0 0 0 0 0 0 0 0 0 .4 0"/><feOffset dx="4.0" dy="4.0" in="blurOut2" result="blurOut3"/><feBlend in="SourceGraphic" in2="blurOut3" mode="normal"/></filter></defs><g><rect fill="#FFFFFF" filter="url(#f1v2kmy69j7sj4)" height="731.4531" style="stroke:#A80036;stroke-width:1.0;" width="10" x="32" y="98.2969"/><rect fill="#FFFFFF" filter="url(#f1v2kmy69j7sj4)" height="87.3984" style="stroke:#A80036;stroke-width:1.0;" width="10" x="191" y="243.2266"/><rect fill="#FFFFFF" filter="url(#f1v2kmy69j7sj4)" height="58.2656" style="stroke:#A80036;stroke-width:1.0;" width="10" x="191" y="762.4844"/><rect fill="#FFFFFF" filter="url(#f1v2kmy69j7sj4)" height="664.1875" style="stroke:#A80036;stroke-width:1.0;" width="10" x="317" y="98.2969"/><rect fill="#FFFFFF" filter="url(#f1v2kmy69j7sj4)" height="133.6641" style="stroke:#000000;stroke-width:2.0;" width="349.5" x="10" y="204.9609"/><rect fill="#FFFFFF" filter="url(#f1v2kmy69j7sj4)" height="46.2656" style="stroke:#000000;stroke-width:2.0;" width="349.5" x="10" y="352.625"/><rect fill="#FFFFFF" filter="url(#f1v2kmy69j7sj4)" height="321.4609" style="stroke:#000000;stroke-width:2.0;" width="485.5" x="284.5" y="412.8906"/><line style="stroke:#A80036;stroke-width:1.0;stroke-dasharray:5.0,5.0;" x1="37" x2="37" y1="88.2969" y2="838.75"/><line style="stroke:#A80036;stroke-width:1.0;stroke-dasharray:5.0,5.0;" x1="196" x2="196" y1="88.2969" y2="838.75"/><line style="stroke:#A80036;stroke-width:1.0;stroke-dasharray:5.0,5.0;" x1="321.5" x2="321.5" y1="88.2969" y2="838.75"/><text fill="#000000" font-family="sans-serif" font-size="14" lengthAdjust="spacing" textLength="28" x="20" y="84.9951">用户</text><ellipse cx="37" cy="15" fill="#FEFECE" filter="url(#f1v2kmy69j7sj4)" rx="8" ry="8" style="stroke:#A80036;stroke-width:2.0;"/><path d="M37,23 L37,50 M24,31 L50,31 M37,50 L24,65 M37,50 L50,65 " fill="none" filter="url(#f1v2kmy69j7sj4)" style="stroke:#A80036;stroke-width:2.0;"/><text fill="#000000" font-family="sans-serif" font-size="14" lengthAdjust="spacing" textLength="28" x="20" y="850.7451">用户</text><ellipse cx="37" cy="864.0469" fill="#FEFECE" filter="url(#f1v2kmy69j7sj4)" rx="8" ry="8" style="stroke:#A80036;stroke-width:2.0;"/><path d="M37,872.0469 L37,899.0469 M24,880.0469 L50,880.0469 M37,899.0469 L24,914.0469 M37,899.0469 L50,914.0469 " fill="none" filter="url(#f1v2kmy69j7sj4)" style="stroke:#A80036;stroke-width:2.0;"/><rect fill="#FEFECE" filter="url(#f1v2kmy69j7sj4)" height="30.2969" style="stroke:#A80036;stroke-width:1.5;" width="70" x="159" y="53"/><text fill="#000000" font-family="sans-serif" font-size="14" lengthAdjust="spacing" textLength="56" x="166" y="72.9951">管理后台</text><rect fill="#FEFECE" filter="url(#f1v2kmy69j7sj4)" height="30.2969" style="stroke:#A80036;stroke-width:1.5;" width="70" x="159" y="837.75"/><text fill="#000000" font-family="sans-serif" font-size="14" lengthAdjust="spacing" textLength="56" x="166" y="857.7451">管理后台</text><rect fill="#FFA500" filter="url(#f1v2kmy69j7sj4)" height="30.2969" style="stroke:#A80036;stroke-width:1.5;" width="51" x="294.5" y="53"/><text fill="#000000" font-family="sans-serif" font-size="14" lengthAdjust="spacing" textLength="37" x="301.5" y="72.9951">gitlab</text><rect fill="#FFA500" filter="url(#f1v2kmy69j7sj4)" height="30.2969" style="stroke:#A80036;stroke-width:1.5;" width="51" x="294.5" y="837.75"/><text fill="#000000" font-family="sans-serif" font-size="14" lengthAdjust="spacing" textLength="37" x="301.5" y="857.7451">gitlab</text><rect fill="#FFFFFF" filter="url(#f1v2kmy69j7sj4)" height="731.4531" style="stroke:#A80036;stroke-width:1.0;" width="10" x="32" y="98.2969"/><rect fill="#FFFFFF" filter="url(#f1v2kmy69j7sj4)" height="87.3984" style="stroke:#A80036;stroke-width:1.0;" width="10" x="191" y="243.2266"/><rect fill="#FFFFFF" filter="url(#f1v2kmy69j7sj4)" height="58.2656" style="stroke:#A80036;stroke-width:1.0;" width="10" x="191" y="762.4844"/><rect fill="#FFFFFF" filter="url(#f1v2kmy69j7sj4)" height="664.1875" style="stroke:#A80036;stroke-width:1.0;" width="10" x="317" y="98.2969"/><polygon fill="#A80036" points="305,150.6953,315,154.6953,305,158.6953,309,154.6953" style="stroke:#A80036;stroke-width:1.0;"/><line style="stroke:#A80036;stroke-width:1.0;" x1="42" x2="311" y1="154.6953" y2="154.6953"/><text fill="#000000" font-family="sans-serif" font-size="13" font-weight="bold" lengthAdjust="spacing" textLength="9" x="49" y="149.6294">1</text><text fill="#000000" font-family="sans-serif" font-size="13" lengthAdjust="spacing" textLength="107" x="62" y="149.6294">配置.gitlab-ci.yml</text><path d="M332,103.2969 L332,188.2969 L527,188.2969 L527,113.2969 L517,103.2969 L332,103.2969 " fill="#FBFB77" filter="url(#f1v2kmy69j7sj4)" style="stroke:#A80036;stroke-width:1.0;"/><path d="M517,103.2969 L517,113.2969 L527,113.2969 L517,103.2969 " fill="#FBFB77" style="stroke:#A80036;stroke-width:1.0;"/><text fill="#000000" font-family="sans-serif" font-size="13" lengthAdjust="spacing" textLength="78" x="338" y="120.3638">支持配置合并</text><text fill="#000000" font-family="sans-serif" font-size="13" lengthAdjust="spacing" textLength="130" x="338" y="135.4966">include:local（本地）</text><text fill="#000000" font-family="sans-serif" font-size="13" lengthAdjust="spacing" textLength="145" x="338" y="150.6294">include:file（指定路径）</text><text fill="#000000" font-family="sans-serif" font-size="13" lengthAdjust="spacing" textLength="159" x="338" y="165.7622">include:template（模版）</text><text fill="#000000" font-family="sans-serif" font-size="13" lengthAdjust="spacing" textLength="174" x="338" y="180.895">include:remote（远程仓库）</text><path d="M10,204.9609 L125,204.9609 L125,211.9609 L115,221.9609 L10,221.9609 L10,204.9609 " fill="#EEEEEE" style="stroke:#000000;stroke-width:1.0;"/><rect fill="none" height="133.6641" style="stroke:#000000;stroke-width:2.0;" width="349.5" x="10" y="204.9609"/><text fill="#000000" font-family="sans-serif" font-size="13" font-weight="bold" lengthAdjust="spacing" textLength="70" x="25" y="218.0278">多项目仓库</text><polygon fill="#A80036" points="179,239.2266,189,243.2266,179,247.2266,183,243.2266" style="stroke:#A80036;stroke-width:1.0;"/><line style="stroke:#A80036;stroke-width:1.0;" x1="42" x2="185" y1="243.2266" y2="243.2266"/><text fill="#000000" font-family="sans-serif" font-size="13" font-weight="bold" lengthAdjust="spacing" textLength="9" x="49" y="238.1606">2</text><text fill="#000000" font-family="sans-serif" font-size="13" lengthAdjust="spacing" textLength="117" x="62" y="238.1606">创建任务，选择仓库</text><polygon fill="#A80036" points="53,268.3594,43,272.3594,53,276.3594,49,272.3594" style="stroke:#A80036;stroke-width:1.0;"/><line style="stroke:#A80036;stroke-width:1.0;" x1="47" x2="190" y1="272.3594" y2="272.3594"/><text fill="#000000" font-family="sans-serif" font-size="13" font-weight="bold" lengthAdjust="spacing" textLength="9" x="59" y="267.2935">3</text><text fill="#000000" font-family="sans-serif" font-size="13" lengthAdjust="spacing" textLength="52" x="72" y="267.2935">任务列表</text><polygon fill="#A80036" points="179,297.4922,189,301.4922,179,305.4922,183,301.4922" style="stroke:#A80036;stroke-width:1.0;"/><line style="stroke:#A80036;stroke-width:1.0;" x1="42" x2="185" y1="301.4922" y2="301.4922"/><text fill="#000000" font-family="sans-serif" font-size="13" font-weight="bold" lengthAdjust="spacing" textLength="9" x="49" y="296.4263">4</text><text fill="#000000" font-family="sans-serif" font-size="13" lengthAdjust="spacing" textLength="52" x="62" y="296.4263">执行任务</text><polygon fill="#A80036" points="305,326.625,315,330.625,305,334.625,309,330.625" style="stroke:#A80036;stroke-width:1.0;"/><line style="stroke:#A80036;stroke-width:1.0;" x1="196" x2="311" y1="330.625" y2="330.625"/><text fill="#000000" font-family="sans-serif" font-size="13" font-weight="bold" lengthAdjust="spacing" textLength="9" x="203" y="325.5591">5</text><text fill="#000000" font-family="sans-serif" font-size="13" lengthAdjust="spacing" textLength="84" x="216" y="325.5591">执行gitlab api</text><path d="M10,352.625 L125,352.625 L125,359.625 L115,369.625 L10,369.625 L10,352.625 " fill="#EEEEEE" style="stroke:#000000;stroke-width:1.0;"/><rect fill="none" height="46.2656" style="stroke:#000000;stroke-width:2.0;" width="349.5" x="10" y="352.625"/><text fill="#000000" font-family="sans-serif" font-size="13" font-weight="bold" lengthAdjust="spacing" textLength="70" x="25" y="365.6919">单项目仓库</text><polygon fill="#A80036" points="305,386.8906,315,390.8906,305,394.8906,309,390.8906" style="stroke:#A80036;stroke-width:1.0;"/><line style="stroke:#A80036;stroke-width:1.0;" x1="42" x2="311" y1="390.8906" y2="390.8906"/><text fill="#000000" font-family="sans-serif" font-size="13" font-weight="bold" lengthAdjust="spacing" textLength="9" x="49" y="385.8247">6</text><text fill="#000000" font-family="sans-serif" font-size="13" lengthAdjust="spacing" textLength="221" x="62" y="385.8247">推送分支触发，或者选择仓库手动触发</text><path d="M284.5,412.8906 L425.5,412.8906 L425.5,419.8906 L415.5,429.8906 L284.5,429.8906 L284.5,412.8906 " fill="#EEEEEE" style="stroke:#000000;stroke-width:1.0;"/><rect fill="none" height="321.4609" style="stroke:#000000;stroke-width:2.0;" width="485.5" x="284.5" y="412.8906"/><text fill="#000000" font-family="sans-serif" font-size="13" font-weight="bold" lengthAdjust="spacing" textLength="96" x="299.5" y="425.9575">gitlab-runner</text><line style="stroke:#A80036;stroke-width:1.0;" x1="327" x2="369" y1="451.1563" y2="451.1563"/><line style="stroke:#A80036;stroke-width:1.0;" x1="369" x2="369" y1="451.1563" y2="464.1563"/><line style="stroke:#A80036;stroke-width:1.0;" x1="328" x2="369" y1="464.1563" y2="464.1563"/><polygon fill="#A80036" points="338,460.1563,328,464.1563,338,468.1563,334,464.1563" style="stroke:#A80036;stroke-width:1.0;"/><text fill="#000000" font-family="sans-serif" font-size="13" font-weight="bold" lengthAdjust="spacing" textLength="9" x="334" y="446.0903">7</text><text fill="#000000" font-family="sans-serif" font-size="13" lengthAdjust="spacing" textLength="78" x="347" y="446.0903">建立构建任务</text><line style="stroke:#A80036;stroke-width:1.0;" x1="327" x2="369" y1="506.9219" y2="506.9219"/><line style="stroke:#A80036;stroke-width:1.0;" x1="369" x2="369" y1="506.9219" y2="519.9219"/><line style="stroke:#A80036;stroke-width:1.0;" x1="328" x2="369" y1="519.9219" y2="519.9219"/><polygon fill="#A80036" points="338,515.9219,328,519.9219,338,523.9219,334,519.9219" style="stroke:#A80036;stroke-width:1.0;"/><text fill="#000000" font-family="sans-serif" font-size="13" font-weight="bold" lengthAdjust="spacing" textLength="9" x="334" y="501.856">8</text><text fill="#000000" font-family="sans-serif" font-size="13" lengthAdjust="spacing" textLength="107" x="347" y="501.856">触发gitlab runner</text><path d="M466,477.1563 L466,532.1563 L689,532.1563 L689,487.1563 L679,477.1563 L466,477.1563 " fill="#FBFB77" filter="url(#f1v2kmy69j7sj4)" style="stroke:#A80036;stroke-width:1.0;"/><path d="M679,477.1563 L679,487.1563 L689,487.1563 L679,477.1563 " fill="#FBFB77" style="stroke:#A80036;stroke-width:1.0;"/><text fill="#000000" font-family="sans-serif" font-size="13" lengthAdjust="spacing" textLength="198" x="472" y="494.2231">gitlab runner可以被不同仓库共用</text><text fill="#000000" font-family="sans-serif" font-size="13" lengthAdjust="spacing" textLength="195" x="472" y="509.356">多个任务创建后，按队列执行任务</text><text fill="#000000" font-family="sans-serif" font-size="13" lengthAdjust="spacing" textLength="202" x="472" y="524.4888">runner可以以docker形式运行任务</text><line style="stroke:#A80036;stroke-width:1.0;" x1="327" x2="369" y1="568.7539" y2="568.7539"/><line style="stroke:#A80036;stroke-width:1.0;" x1="369" x2="369" y1="568.7539" y2="581.7539"/><line style="stroke:#A80036;stroke-width:1.0;" x1="328" x2="369" y1="581.7539" y2="581.7539"/><polygon fill="#A80036" points="338,577.7539,328,581.7539,338,585.7539,334,581.7539" style="stroke:#A80036;stroke-width:1.0;"/><text fill="#000000" font-family="sans-serif" font-size="13" font-weight="bold" lengthAdjust="spacing" textLength="9" x="334" y="563.688">9</text><text fill="#000000" font-family="sans-serif" font-size="13" lengthAdjust="spacing" textLength="130" x="347" y="563.688">执行配置中的构建步骤</text><path d="M489,546.5547 L489,586.5547 L746,586.5547 L746,556.5547 L736,546.5547 L489,546.5547 " fill="#FBFB77" filter="url(#f1v2kmy69j7sj4)" style="stroke:#A80036;stroke-width:1.0;"/><path d="M736,546.5547 L736,556.5547 L746,556.5547 L736,546.5547 " fill="#FBFB77" style="stroke:#A80036;stroke-width:1.0;"/><text fill="#000000" font-family="sans-serif" font-size="13" lengthAdjust="spacing" textLength="236" x="495" y="563.6216">cache字段，可针对node_modules缓存</text><text fill="#000000" font-family="sans-serif" font-size="13" lengthAdjust="spacing" textLength="202" x="495" y="578.7544">cache: key: files: - package.json</text><line style="stroke:#A80036;stroke-width:1.0;" x1="327" x2="369" y1="616.9531" y2="616.9531"/><line style="stroke:#A80036;stroke-width:1.0;" x1="369" x2="369" y1="616.9531" y2="629.9531"/><line style="stroke:#A80036;stroke-width:1.0;" x1="328" x2="369" y1="629.9531" y2="629.9531"/><polygon fill="#A80036" points="338,625.9531,328,629.9531,338,633.9531,334,629.9531" style="stroke:#A80036;stroke-width:1.0;"/><text fill="#000000" font-family="sans-serif" font-size="13" font-weight="bold" lengthAdjust="spacing" textLength="18" x="334" y="611.8872">10</text><text fill="#000000" font-family="sans-serif" font-size="13" lengthAdjust="spacing" textLength="45" x="356" y="611.8872">输出log</text><path d="M413,602.3203 L413,627.3203 L670,627.3203 L670,612.3203 L660,602.3203 L413,602.3203 " fill="#FBFB77" filter="url(#f1v2kmy69j7sj4)" style="stroke:#A80036;stroke-width:1.0;"/><path d="M660,602.3203 L660,612.3203 L670,612.3203 L660,602.3203 " fill="#FBFB77" style="stroke:#A80036;stroke-width:1.0;"/><text fill="#000000" font-family="sans-serif" font-size="13" lengthAdjust="spacing" textLength="236" x="419" y="619.3872">实时log日志可在gitlab中查看，无需刷新</text><line style="stroke:#A80036;stroke-width:1.0;" x1="327" x2="369" y1="665.1523" y2="665.1523"/><line style="stroke:#A80036;stroke-width:1.0;" x1="369" x2="369" y1="665.1523" y2="678.1523"/><line style="stroke:#A80036;stroke-width:1.0;" x1="328" x2="369" y1="678.1523" y2="678.1523"/><polygon fill="#A80036" points="338,674.1523,328,678.1523,338,682.1523,334,678.1523" style="stroke:#A80036;stroke-width:1.0;"/><text fill="#000000" font-family="sans-serif" font-size="13" font-weight="bold" lengthAdjust="spacing" textLength="18" x="334" y="660.0864">11</text><text fill="#000000" font-family="sans-serif" font-size="13" lengthAdjust="spacing" textLength="91" x="356" y="660.0864">下载构建的产物</text><path d="M459,642.9531 L459,682.9531 L714,682.9531 L714,652.9531 L704,642.9531 L459,642.9531 " fill="#FBFB77" filter="url(#f1v2kmy69j7sj4)" style="stroke:#A80036;stroke-width:1.0;"/><path d="M704,642.9531 L704,652.9531 L714,652.9531 L704,642.9531 " fill="#FBFB77" style="stroke:#A80036;stroke-width:1.0;"/><text fill="#000000" font-family="sans-serif" font-size="13" lengthAdjust="spacing" textLength="234" x="465" y="660.02">artifacts字段，可以配置需要下载的文件</text><text fill="#000000" font-family="sans-serif" font-size="13" lengthAdjust="spacing" textLength="143" x="465" y="675.1528">例如，html页面，js文件</text><line style="stroke:#A80036;stroke-width:1.0;" x1="327" x2="369" y1="713.3516" y2="713.3516"/><line style="stroke:#A80036;stroke-width:1.0;" x1="369" x2="369" y1="713.3516" y2="726.3516"/><line style="stroke:#A80036;stroke-width:1.0;" x1="328" x2="369" y1="726.3516" y2="726.3516"/><polygon fill="#A80036" points="338,722.3516,328,726.3516,338,730.3516,334,726.3516" style="stroke:#A80036;stroke-width:1.0;"/><text fill="#000000" font-family="sans-serif" font-size="13" font-weight="bold" lengthAdjust="spacing" textLength="18" x="334" y="708.2856">12</text><text fill="#000000" font-family="sans-serif" font-size="13" lengthAdjust="spacing" textLength="130" x="356" y="708.2856">提交页面到后端仓库中</text><path d="M498,698.7188 L498,723.7188 L610,723.7188 L610,708.7188 L600,698.7188 L498,698.7188 " fill="#FBFB77" filter="url(#f1v2kmy69j7sj4)" style="stroke:#A80036;stroke-width:1.0;"/><path d="M600,698.7188 L600,708.7188 L610,708.7188 L600,698.7188 " fill="#FBFB77" style="stroke:#A80036;stroke-width:1.0;"/><text fill="#000000" font-family="sans-serif" font-size="13" lengthAdjust="spacing" textLength="91" x="504" y="715.7856">二期迭代可考虑</text><polygon fill="#A80036" points="212,758.4844,202,762.4844,212,766.4844,208,762.4844" style="stroke:#A80036;stroke-width:1.0;"/><line style="stroke:#A80036;stroke-width:1.0;" x1="206" x2="321" y1="762.4844" y2="762.4844"/><text fill="#000000" font-family="sans-serif" font-size="13" font-weight="bold" lengthAdjust="spacing" textLength="18" x="218" y="757.4185">13</text><text fill="#000000" font-family="sans-serif" font-size="13" lengthAdjust="spacing" textLength="71" x="240" y="757.4185">输出构建log</text><polygon fill="#A80036" points="53,787.6172,43,791.6172,53,795.6172,49,791.6172" style="stroke:#A80036;stroke-width:1.0;"/><line style="stroke:#A80036;stroke-width:1.0;" x1="47" x2="190" y1="791.6172" y2="791.6172"/><text fill="#000000" font-family="sans-serif" font-size="13" font-weight="bold" lengthAdjust="spacing" textLength="18" x="59" y="786.5513">14</text><text fill="#000000" font-family="sans-serif" font-size="13" lengthAdjust="spacing" textLength="52" x="81" y="786.5513">任务结果</text><polygon fill="#A80036" points="184,816.75,194,820.75,184,824.75,188,820.75" style="stroke:#A80036;stroke-width:1.0;"/><line style="stroke:#A80036;stroke-width:1.0;" x1="42" x2="190" y1="820.75" y2="820.75"/><text fill="#000000" font-family="sans-serif" font-size="13" font-weight="bold" lengthAdjust="spacing" textLength="18" x="49" y="815.6841">15</text><text fill="#000000" font-family="sans-serif" font-size="13" lengthAdjust="spacing" textLength="52" x="71" y="815.6841">查看结果</text></g></svg>
