<?xml version="1.0" encoding="UTF-8" standalone="no"?><svg xmlns="http://www.w3.org/2000/svg" xmlns:xlink="http://www.w3.org/1999/xlink" contentScriptType="application/ecmascript" contentStyleType="text/css" height="781px" preserveAspectRatio="none" style="width:790px;height:781px;" version="1.1" viewBox="0 0 790 781" width="790px" zoomAndPan="magnify"><defs><filter height="300%" id="f1jd24l2gflahv" width="300%" x="-1" y="-1"><feGaussianBlur result="blurOut" stdDeviation="2.0"/><feColorMatrix in="blurOut" result="blurOut2" type="matrix" values="0 0 0 0 0 0 0 0 0 0 0 0 0 0 0 0 0 0 .4 0"/><feOffset dx="4.0" dy="4.0" in="blurOut2" result="blurOut3"/><feBlend in="SourceGraphic" in2="blurOut3" mode="normal"/></filter></defs><g><rect fill="#FFFFFF" filter="url(#f1jd24l2gflahv)" height="590.3906" style="stroke:#A80036;stroke-width:1.0;" width="10" x="17" y="98.2969"/><rect fill="#FFFFFF" filter="url(#f1jd24l2gflahv)" height="488.9922" style="stroke:#A80036;stroke-width:1.0;" width="10" x="196" y="119.4297"/><rect fill="#FFFFFF" filter="url(#f1jd24l2gflahv)" height="71.2656" style="stroke:#A80036;stroke-width:1.0;" width="10" x="355" y="148.5625"/><rect fill="#FFFFFF" filter="url(#f1jd24l2gflahv)" height="113.3984" style="stroke:#A80036;stroke-width:1.0;" width="10" x="355" y="307.2266"/><rect fill="#FFFFFF" filter="url(#f1jd24l2gflahv)" height="71.2656" style="stroke:#A80036;stroke-width:1.0;" width="10" x="355" y="508.0234"/><line style="stroke:#A80036;stroke-width:1.0;stroke-dasharray:5.0,5.0;" x1="22" x2="22" y1="88.2969" y2="697.6875"/><line style="stroke:#A80036;stroke-width:1.0;stroke-dasharray:5.0,5.0;" x1="201" x2="201" y1="88.2969" y2="697.6875"/><line style="stroke:#A80036;stroke-width:1.0;stroke-dasharray:5.0,5.0;" x1="360" x2="360" y1="88.2969" y2="697.6875"/><text fill="#000000" font-family="sans-serif" font-size="14" lengthAdjust="spacing" textLength="28" x="5" y="84.9951">用户</text><ellipse cx="22" cy="15" fill="#FEFECE" filter="url(#f1jd24l2gflahv)" rx="8" ry="8" style="stroke:#A80036;stroke-width:2.0;"/><path d="M22,23 L22,50 M9,31 L35,31 M22,50 L9,65 M22,50 L35,65 " fill="none" filter="url(#f1jd24l2gflahv)" style="stroke:#A80036;stroke-width:2.0;"/><text fill="#000000" font-family="sans-serif" font-size="14" lengthAdjust="spacing" textLength="28" x="5" y="709.6826">用户</text><ellipse cx="22" cy="722.9844" fill="#FEFECE" filter="url(#f1jd24l2gflahv)" rx="8" ry="8" style="stroke:#A80036;stroke-width:2.0;"/><path d="M22,730.9844 L22,757.9844 M9,738.9844 L35,738.9844 M22,757.9844 L9,772.9844 M22,757.9844 L35,772.9844 " fill="none" filter="url(#f1jd24l2gflahv)" style="stroke:#A80036;stroke-width:2.0;"/><rect fill="#FEFECE" filter="url(#f1jd24l2gflahv)" height="30.2969" style="stroke:#A80036;stroke-width:1.5;" width="70" x="164" y="53"/><text fill="#000000" font-family="sans-serif" font-size="14" lengthAdjust="spacing" textLength="56" x="171" y="72.9951">管理后台</text><rect fill="#FEFECE" filter="url(#f1jd24l2gflahv)" height="30.2969" style="stroke:#A80036;stroke-width:1.5;" width="70" x="164" y="696.6875"/><text fill="#000000" font-family="sans-serif" font-size="14" lengthAdjust="spacing" textLength="56" x="171" y="716.6826">管理后台</text><rect fill="#FFA500" filter="url(#f1jd24l2gflahv)" height="30.2969" style="stroke:#A80036;stroke-width:1.5;" width="112" x="302" y="53"/><text fill="#000000" font-family="sans-serif" font-size="14" lengthAdjust="spacing" textLength="98" x="309" y="72.9951">前端发布服务器</text><rect fill="#FFA500" filter="url(#f1jd24l2gflahv)" height="30.2969" style="stroke:#A80036;stroke-width:1.5;" width="112" x="302" y="696.6875"/><text fill="#000000" font-family="sans-serif" font-size="14" lengthAdjust="spacing" textLength="98" x="309" y="716.6826">前端发布服务器</text><rect fill="#FFFFFF" filter="url(#f1jd24l2gflahv)" height="590.3906" style="stroke:#A80036;stroke-width:1.0;" width="10" x="17" y="98.2969"/><rect fill="#FFFFFF" filter="url(#f1jd24l2gflahv)" height="488.9922" style="stroke:#A80036;stroke-width:1.0;" width="10" x="196" y="119.4297"/><rect fill="#FFFFFF" filter="url(#f1jd24l2gflahv)" height="71.2656" style="stroke:#A80036;stroke-width:1.0;" width="10" x="355" y="148.5625"/><rect fill="#FFFFFF" filter="url(#f1jd24l2gflahv)" height="113.3984" style="stroke:#A80036;stroke-width:1.0;" width="10" x="355" y="307.2266"/><rect fill="#FFFFFF" filter="url(#f1jd24l2gflahv)" height="71.2656" style="stroke:#A80036;stroke-width:1.0;" width="10" x="355" y="508.0234"/><polygon fill="#A80036" points="184,115.4297,194,119.4297,184,123.4297,188,119.4297" style="stroke:#A80036;stroke-width:1.0;"/><line style="stroke:#A80036;stroke-width:1.0;" x1="27" x2="190" y1="119.4297" y2="119.4297"/><text fill="#000000" font-family="sans-serif" font-size="13" font-weight="bold" lengthAdjust="spacing" textLength="9" x="34" y="114.3638">1</text><text fill="#000000" font-family="sans-serif" font-size="13" lengthAdjust="spacing" textLength="117" x="47" y="114.3638">选择项目，执行构建</text><polygon fill="#A80036" points="343,144.5625,353,148.5625,343,152.5625,347,148.5625" style="stroke:#A80036;stroke-width:1.0;"/><line style="stroke:#A80036;stroke-width:1.0;" x1="206" x2="349" y1="148.5625" y2="148.5625"/><text fill="#000000" font-family="sans-serif" font-size="13" font-weight="bold" lengthAdjust="spacing" textLength="9" x="213" y="143.4966">2</text><text fill="#000000" font-family="sans-serif" font-size="13" lengthAdjust="spacing" textLength="117" x="226" y="143.4966">获取项目列表和配置</text><line style="stroke:#A80036;stroke-width:1.0;" x1="365" x2="407" y1="177.6953" y2="177.6953"/><line style="stroke:#A80036;stroke-width:1.0;" x1="407" x2="407" y1="177.6953" y2="190.6953"/><line style="stroke:#A80036;stroke-width:1.0;" x1="366" x2="407" y1="190.6953" y2="190.6953"/><polygon fill="#A80036" points="376,186.6953,366,190.6953,376,194.6953,372,190.6953" style="stroke:#A80036;stroke-width:1.0;"/><text fill="#000000" font-family="sans-serif" font-size="13" font-weight="bold" lengthAdjust="spacing" textLength="9" x="372" y="172.6294">3</text><text fill="#000000" font-family="sans-serif" font-size="13" lengthAdjust="spacing" textLength="169" x="385" y="172.6294">从数据库获取项目列表和配置</text><polygon fill="#A80036" points="217,215.8281,207,219.8281,217,223.8281,213,219.8281" style="stroke:#A80036;stroke-width:1.0;"/><line style="stroke:#A80036;stroke-width:1.0;" x1="211" x2="359" y1="219.8281" y2="219.8281"/><text fill="#000000" font-family="sans-serif" font-size="13" font-weight="bold" lengthAdjust="spacing" textLength="9" x="223" y="214.7622">4</text><text fill="#000000" font-family="sans-serif" font-size="13" lengthAdjust="spacing" textLength="52" x="236" y="214.7622">项目列表</text><polygon fill="#A80036" points="38,244.9609,28,248.9609,38,252.9609,34,248.9609" style="stroke:#A80036;stroke-width:1.0;"/><line style="stroke:#A80036;stroke-width:1.0;" x1="32" x2="195" y1="248.9609" y2="248.9609"/><text fill="#000000" font-family="sans-serif" font-size="13" font-weight="bold" lengthAdjust="spacing" textLength="9" x="44" y="243.895">5</text><text fill="#000000" font-family="sans-serif" font-size="13" lengthAdjust="spacing" textLength="52" x="57" y="243.895">项目列表</text><polygon fill="#A80036" points="184,274.0938,194,278.0938,184,282.0938,188,278.0938" style="stroke:#A80036;stroke-width:1.0;"/><line style="stroke:#A80036;stroke-width:1.0;" x1="27" x2="190" y1="278.0938" y2="278.0938"/><text fill="#000000" font-family="sans-serif" font-size="13" font-weight="bold" lengthAdjust="spacing" textLength="9" x="34" y="273.0278">6</text><text fill="#000000" font-family="sans-serif" font-size="13" lengthAdjust="spacing" textLength="117" x="47" y="273.0278">选择项目，执行构建</text><polygon fill="#A80036" points="343,303.2266,353,307.2266,343,311.2266,347,307.2266" style="stroke:#A80036;stroke-width:1.0;"/><line style="stroke:#A80036;stroke-width:1.0;" x1="206" x2="349" y1="307.2266" y2="307.2266"/><text fill="#000000" font-family="sans-serif" font-size="13" font-weight="bold" lengthAdjust="spacing" textLength="9" x="213" y="302.1606">7</text><text fill="#000000" font-family="sans-serif" font-size="13" lengthAdjust="spacing" textLength="91" x="226" y="302.1606">发布环境初始化</text><line style="stroke:#A80036;stroke-width:1.0;" x1="365" x2="407" y1="336.3594" y2="336.3594"/><line style="stroke:#A80036;stroke-width:1.0;" x1="407" x2="407" y1="336.3594" y2="349.3594"/><line style="stroke:#A80036;stroke-width:1.0;" x1="366" x2="407" y1="349.3594" y2="349.3594"/><polygon fill="#A80036" points="376,345.3594,366,349.3594,376,353.3594,372,349.3594" style="stroke:#A80036;stroke-width:1.0;"/><text fill="#000000" font-family="sans-serif" font-size="13" font-weight="bold" lengthAdjust="spacing" textLength="9" x="372" y="331.2935">8</text><text fill="#000000" font-family="sans-serif" font-size="13" lengthAdjust="spacing" textLength="250" x="385" y="331.2935">更新分支代码，检查项目和node_modules</text><line style="stroke:#A80036;stroke-width:1.0;" x1="365" x2="407" y1="378.4922" y2="378.4922"/><line style="stroke:#A80036;stroke-width:1.0;" x1="407" x2="407" y1="378.4922" y2="391.4922"/><line style="stroke:#A80036;stroke-width:1.0;" x1="366" x2="407" y1="391.4922" y2="391.4922"/><polygon fill="#A80036" points="376,387.4922,366,391.4922,376,395.4922,372,391.4922" style="stroke:#A80036;stroke-width:1.0;"/><text fill="#000000" font-family="sans-serif" font-size="13" font-weight="bold" lengthAdjust="spacing" textLength="9" x="372" y="373.4263">9</text><text fill="#000000" font-family="sans-serif" font-size="13" lengthAdjust="spacing" textLength="52" x="385" y="373.4263">开始构建</text><path d="M449,363.8594 L449,388.8594 L697,388.8594 L697,373.8594 L687,363.8594 L449,363.8594 " fill="#FBFB77" filter="url(#f1jd24l2gflahv)" style="stroke:#A80036;stroke-width:1.0;"/><path d="M687,363.8594 L687,373.8594 L697,373.8594 L687,363.8594 " fill="#FBFB77" style="stroke:#A80036;stroke-width:1.0;"/><text fill="#000000" font-family="sans-serif" font-size="13" lengthAdjust="spacing" textLength="227" x="455" y="380.9263">根据package.json配置，执行定制操作</text><polygon fill="#A80036" points="217,416.625,207,420.625,217,424.625,213,420.625" style="stroke:#A80036;stroke-width:1.0;"/><line style="stroke:#A80036;stroke-width:1.0;" x1="211" x2="359" y1="420.625" y2="420.625"/><text fill="#000000" font-family="sans-serif" font-size="13" font-weight="bold" lengthAdjust="spacing" textLength="18" x="223" y="415.5591">10</text><text fill="#000000" font-family="sans-serif" font-size="13" lengthAdjust="spacing" textLength="45" x="245" y="415.5591">输出log</text><polygon fill="#A80036" points="38,445.7578,28,449.7578,38,453.7578,34,449.7578" style="stroke:#A80036;stroke-width:1.0;"/><line style="stroke:#A80036;stroke-width:1.0;" x1="32" x2="195" y1="449.7578" y2="449.7578"/><text fill="#000000" font-family="sans-serif" font-size="13" font-weight="bold" lengthAdjust="spacing" textLength="18" x="44" y="444.6919">11</text><text fill="#000000" font-family="sans-serif" font-size="13" lengthAdjust="spacing" textLength="45" x="66" y="444.6919">输出log</text><polygon fill="#A80036" points="184,474.8906,194,478.8906,184,482.8906,188,478.8906" style="stroke:#A80036;stroke-width:1.0;"/><line style="stroke:#A80036;stroke-width:1.0;" x1="27" x2="190" y1="478.8906" y2="478.8906"/><text fill="#000000" font-family="sans-serif" font-size="13" font-weight="bold" lengthAdjust="spacing" textLength="18" x="34" y="473.8247">12</text><text fill="#000000" font-family="sans-serif" font-size="13" lengthAdjust="spacing" textLength="123" x="56" y="473.8247">根据log确认构建结果</text><polygon fill="#A80036" points="343,504.0234,353,508.0234,343,512.0234,347,508.0234" style="stroke:#A80036;stroke-width:1.0;"/><line style="stroke:#A80036;stroke-width:1.0;" x1="206" x2="349" y1="508.0234" y2="508.0234"/><text fill="#000000" font-family="sans-serif" font-size="13" font-weight="bold" lengthAdjust="spacing" textLength="18" x="213" y="502.9575">13</text><text fill="#000000" font-family="sans-serif" font-size="13" lengthAdjust="spacing" textLength="78" x="235" y="502.9575">执行后续操作</text><line style="stroke:#A80036;stroke-width:1.0;" x1="365" x2="407" y1="537.1563" y2="537.1563"/><line style="stroke:#A80036;stroke-width:1.0;" x1="407" x2="407" y1="537.1563" y2="550.1563"/><line style="stroke:#A80036;stroke-width:1.0;" x1="366" x2="407" y1="550.1563" y2="550.1563"/><polygon fill="#A80036" points="376,546.1563,366,550.1563,376,554.1563,372,550.1563" style="stroke:#A80036;stroke-width:1.0;"/><text fill="#000000" font-family="sans-serif" font-size="13" font-weight="bold" lengthAdjust="spacing" textLength="18" x="372" y="532.0903">14</text><text fill="#000000" font-family="sans-serif" font-size="13" lengthAdjust="spacing" textLength="127" x="394" y="532.0903">移动文件或者发布cdn</text><path d="M533,522.5234 L533,547.5234 L781,547.5234 L781,532.5234 L771,522.5234 L533,522.5234 " fill="#FBFB77" filter="url(#f1jd24l2gflahv)" style="stroke:#A80036;stroke-width:1.0;"/><path d="M771,522.5234 L771,532.5234 L781,532.5234 L771,522.5234 " fill="#FBFB77" style="stroke:#A80036;stroke-width:1.0;"/><text fill="#000000" font-family="sans-serif" font-size="13" lengthAdjust="spacing" textLength="227" x="539" y="539.5903">根据package.json配置，执行定制操作</text><polygon fill="#A80036" points="217,575.2891,207,579.2891,217,583.2891,213,579.2891" style="stroke:#A80036;stroke-width:1.0;"/><line style="stroke:#A80036;stroke-width:1.0;" x1="211" x2="359" y1="579.2891" y2="579.2891"/><text fill="#000000" font-family="sans-serif" font-size="13" font-weight="bold" lengthAdjust="spacing" textLength="18" x="223" y="574.2231">15</text><text fill="#000000" font-family="sans-serif" font-size="13" lengthAdjust="spacing" textLength="45" x="245" y="574.2231">输出log</text><polygon fill="#A80036" points="38,604.4219,28,608.4219,38,612.4219,34,608.4219" style="stroke:#A80036;stroke-width:1.0;"/><line style="stroke:#A80036;stroke-width:1.0;" x1="32" x2="200" y1="608.4219" y2="608.4219"/><text fill="#000000" font-family="sans-serif" font-size="13" font-weight="bold" lengthAdjust="spacing" textLength="18" x="44" y="603.356">16</text><text fill="#000000" font-family="sans-serif" font-size="13" lengthAdjust="spacing" textLength="52" x="66" y="603.356">下载页面</text><line style="stroke:#A80036;stroke-width:1.0;" x1="27" x2="69" y1="637.5547" y2="637.5547"/><line style="stroke:#A80036;stroke-width:1.0;" x1="69" x2="69" y1="637.5547" y2="650.5547"/><line style="stroke:#A80036;stroke-width:1.0;" x1="28" x2="69" y1="650.5547" y2="650.5547"/><polygon fill="#A80036" points="38,646.5547,28,650.5547,38,654.5547,34,650.5547" style="stroke:#A80036;stroke-width:1.0;"/><text fill="#000000" font-family="sans-serif" font-size="13" font-weight="bold" lengthAdjust="spacing" textLength="18" x="34" y="632.4888">17</text><text fill="#000000" font-family="sans-serif" font-size="13" lengthAdjust="spacing" textLength="117" x="56" y="632.4888">提交页面到后端仓库</text><polygon fill="#A80036" points="189,675.6875,199,679.6875,189,683.6875,193,679.6875" style="stroke:#A80036;stroke-width:1.0;"/><line style="stroke:#A80036;stroke-width:1.0;" x1="27" x2="195" y1="679.6875" y2="679.6875"/><text fill="#000000" font-family="sans-serif" font-size="13" font-weight="bold" lengthAdjust="spacing" textLength="18" x="34" y="674.6216">18</text><text fill="#000000" font-family="sans-serif" font-size="13" lengthAdjust="spacing" textLength="78" x="56" y="674.6216">发布后端分支</text></g></svg>
