<?xml version="1.0" encoding="UTF-8" standalone="no"?><svg xmlns="http://www.w3.org/2000/svg" xmlns:xlink="http://www.w3.org/1999/xlink" contentScriptType="application/ecmascript" contentStyleType="text/css" height="1273px" preserveAspectRatio="none" style="width:834px;height:1273px;" version="1.1" viewBox="0 0 834 1273" width="834px" zoomAndPan="magnify"><defs><filter height="300%" id="f1f1a60pjc4uv4" width="300%" x="-1" y="-1"><feGaussianBlur result="blurOut" stdDeviation="2.0"/><feColorMatrix in="blurOut" result="blurOut2" type="matrix" values="0 0 0 0 0 0 0 0 0 0 0 0 0 0 0 0 0 0 .4 0"/><feOffset dx="4.0" dy="4.0" in="blurOut2" result="blurOut3"/><feBlend in="SourceGraphic" in2="blurOut3" mode="normal"/></filter></defs><g><rect fill="#FFFFFF" filter="url(#f1f1a60pjc4uv4)" height="1080.7188" style="stroke: #A80036; stroke-width: 1.0;" width="10" x="20" y="96.2969"/><rect fill="#FFFFFF" filter="url(#f1f1a60pjc4uv4)" height="1080.7188" style="stroke: #A80036; stroke-width: 1.0;" width="10" x="145" y="96.2969"/><rect fill="#FFFFFF" filter="url(#f1f1a60pjc4uv4)" height="685.2578" style="stroke: #A80036; stroke-width: 1.0;" width="10" x="299" y="491.7578"/><rect fill="#FFFFFF" filter="url(#f1f1a60pjc4uv4)" height="249.7969" style="stroke: #A80036; stroke-width: 1.0;" width="10" x="498" y="927.2188"/><line style="stroke: #A80036; stroke-width: 1.0; stroke-dasharray: 5.0,5.0;" x1="25" x2="25" y1="86.2969" y2="1186.0156"/><line style="stroke: #A80036; stroke-width: 1.0; stroke-dasharray: 5.0,5.0;" x1="150" x2="150" y1="86.2969" y2="1186.0156"/><line style="stroke: #A80036; stroke-width: 1.0; stroke-dasharray: 5.0,5.0;" x1="304" x2="304" y1="86.2969" y2="1186.0156"/><line style="stroke: #A80036; stroke-width: 1.0; stroke-dasharray: 5.0,5.0;" x1="503" x2="503" y1="86.2969" y2="1186.0156"/><text fill="#000000" font-family="sans-serif" font-size="14" lengthAdjust="spacingAndGlyphs" textLength="28" x="8" y="82.9951">用户</text><ellipse cx="25" cy="13" fill="#FEFECE" filter="url(#f1f1a60pjc4uv4)" rx="8" ry="8" style="stroke: #A80036; stroke-width: 2.0;"/><path d="M25,21 L25,48 M12,29 L38,29 M25,48 L12,63 M25,48 L38,63 " fill="none" filter="url(#f1f1a60pjc4uv4)" style="stroke: #A80036; stroke-width: 2.0;"/><text fill="#000000" font-family="sans-serif" font-size="14" lengthAdjust="spacingAndGlyphs" textLength="28" x="8" y="1198.0107">用户</text><ellipse cx="25" cy="1211.3125" fill="#FEFECE" filter="url(#f1f1a60pjc4uv4)" rx="8" ry="8" style="stroke: #A80036; stroke-width: 2.0;"/><path d="M25,1219.3125 L25,1246.3125 M12,1227.3125 L38,1227.3125 M25,1246.3125 L12,1261.3125 M25,1246.3125 L38,1261.3125 " fill="none" filter="url(#f1f1a60pjc4uv4)" style="stroke: #A80036; stroke-width: 2.0;"/><rect fill="#FEFECE" filter="url(#f1f1a60pjc4uv4)" height="30.2969" style="stroke: #A80036; stroke-width: 1.5;" width="42" x="127" y="51"/><text fill="#000000" font-family="sans-serif" font-size="14" lengthAdjust="spacingAndGlyphs" textLength="28" x="134" y="70.9951">合并</text><rect fill="#FEFECE" filter="url(#f1f1a60pjc4uv4)" height="30.2969" style="stroke: #A80036; stroke-width: 1.5;" width="42" x="127" y="1185.0156"/><text fill="#000000" font-family="sans-serif" font-size="14" lengthAdjust="spacingAndGlyphs" textLength="28" x="134" y="1205.0107">合并</text><rect fill="#FEFECE" filter="url(#f1f1a60pjc4uv4)" height="30.2969" style="stroke: #A80036; stroke-width: 1.5;" width="42" x="281" y="51"/><text fill="#000000" font-family="sans-serif" font-size="14" lengthAdjust="spacingAndGlyphs" textLength="28" x="288" y="70.9951">构建</text><rect fill="#FEFECE" filter="url(#f1f1a60pjc4uv4)" height="30.2969" style="stroke: #A80036; stroke-width: 1.5;" width="42" x="281" y="1185.0156"/><text fill="#000000" font-family="sans-serif" font-size="14" lengthAdjust="spacingAndGlyphs" textLength="28" x="288" y="1205.0107">构建</text><rect fill="#FEFECE" filter="url(#f1f1a60pjc4uv4)" height="30.2969" style="stroke: #A80036; stroke-width: 1.5;" width="42" x="480" y="51"/><text fill="#000000" font-family="sans-serif" font-size="14" lengthAdjust="spacingAndGlyphs" textLength="28" x="487" y="70.9951">发布</text><rect fill="#FEFECE" filter="url(#f1f1a60pjc4uv4)" height="30.2969" style="stroke: #A80036; stroke-width: 1.5;" width="42" x="480" y="1185.0156"/><text fill="#000000" font-family="sans-serif" font-size="14" lengthAdjust="spacingAndGlyphs" textLength="28" x="487" y="1205.0107">发布</text><rect fill="#FFFFFF" filter="url(#f1f1a60pjc4uv4)" height="1080.7188" style="stroke: #A80036; stroke-width: 1.0;" width="10" x="20" y="96.2969"/><rect fill="#FFFFFF" filter="url(#f1f1a60pjc4uv4)" height="1080.7188" style="stroke: #A80036; stroke-width: 1.0;" width="10" x="145" y="96.2969"/><rect fill="#FFFFFF" filter="url(#f1f1a60pjc4uv4)" height="685.2578" style="stroke: #A80036; stroke-width: 1.0;" width="10" x="299" y="491.7578"/><rect fill="#FFFFFF" filter="url(#f1f1a60pjc4uv4)" height="249.7969" style="stroke: #A80036; stroke-width: 1.0;" width="10" x="498" y="927.2188"/><rect fill="#EEEEEE" filter="url(#f1f1a60pjc4uv4)" height="3" style="stroke: #EEEEEE; stroke-width: 1.0;" width="819" x="3" y="116.8633"/><line style="stroke: #000000; stroke-width: 1.0;" x1="3" x2="822" y1="116.8633" y2="116.8633"/><line style="stroke: #000000; stroke-width: 1.0;" x1="3" x2="822" y1="119.8633" y2="119.8633"/><rect fill="#EEEEEE" filter="url(#f1f1a60pjc4uv4)" height="23.1328" style="stroke: #000000; stroke-width: 2.0;" width="75" x="375" y="106.2969"/><text fill="#000000" font-family="sans-serif" font-size="13" font-weight="bold" lengthAdjust="spacingAndGlyphs" textLength="56" x="381" y="122.3638">研发流程</text><polygon fill="#A80036" points="133,156.5625,143,160.5625,133,164.5625,137,160.5625" style="stroke: #A80036; stroke-width: 1.0;"/><line style="stroke: #A80036; stroke-width: 1.0;" x1="30" x2="139" y1="160.5625" y2="160.5625"/><text fill="#000000" font-family="sans-serif" font-size="13" font-weight="bold" lengthAdjust="spacingAndGlyphs" textLength="9" x="37" y="155.4966">1</text><text fill="#000000" font-family="sans-serif" font-size="13" lengthAdjust="spacingAndGlyphs" textLength="78" x="50" y="155.4966">提交功能分支</text><line style="stroke: #A80036; stroke-width: 1.0;" x1="155" x2="197" y1="189.6953" y2="189.6953"/><line style="stroke: #A80036; stroke-width: 1.0;" x1="197" x2="197" y1="189.6953" y2="202.6953"/><line style="stroke: #A80036; stroke-width: 1.0;" x1="156" x2="197" y1="202.6953" y2="202.6953"/><polygon fill="#A80036" points="166,198.6953,156,202.6953,166,206.6953,162,202.6953" style="stroke: #A80036; stroke-width: 1.0;"/><text fill="#000000" font-family="sans-serif" font-size="13" font-weight="bold" lengthAdjust="spacingAndGlyphs" textLength="9" x="162" y="184.6294">2</text><text fill="#000000" font-family="sans-serif" font-size="13" lengthAdjust="spacingAndGlyphs" textLength="78" x="175" y="184.6294">填入分支名称</text><line style="stroke: #A80036; stroke-width: 1.0;" x1="155" x2="197" y1="231.8281" y2="231.8281"/><line style="stroke: #A80036; stroke-width: 1.0;" x1="197" x2="197" y1="231.8281" y2="244.8281"/><line style="stroke: #A80036; stroke-width: 1.0;" x1="156" x2="197" y1="244.8281" y2="244.8281"/><polygon fill="#A80036" points="166,240.8281,156,244.8281,166,248.8281,162,244.8281" style="stroke: #A80036; stroke-width: 1.0;"/><text fill="#000000" font-family="sans-serif" font-size="13" font-weight="bold" lengthAdjust="spacingAndGlyphs" textLength="9" x="162" y="226.7622">3</text><text fill="#000000" font-family="sans-serif" font-size="13" lengthAdjust="spacingAndGlyphs" textLength="52" x="175" y="226.7622">检测分支</text><path d="M160,257.8281 L160,282.8281 L428,282.8281 L428,267.8281 L418,257.8281 L160,257.8281 " fill="#FBFB77" filter="url(#f1f1a60pjc4uv4)" style="stroke: #A80036; stroke-width: 1.0;"/><path d="M418,257.8281 L418,267.8281 L428,267.8281 L418,257.8281 " fill="#FBFB77" style="stroke: #A80036; stroke-width: 1.0;"/><text fill="#000000" font-family="sans-serif" font-size="13" lengthAdjust="spacingAndGlyphs" textLength="247" x="166" y="274.895">检测文件改动，超前或落后提交和冲突情况</text><polygon fill="#A80036" points="41,309.0938,31,313.0938,41,317.0938,37,313.0938" style="stroke: #A80036; stroke-width: 1.0;"/><line style="stroke: #A80036; stroke-width: 1.0; stroke-dasharray: 2.0,2.0;" x1="35" x2="144" y1="313.0938" y2="313.0938"/><text fill="#000000" font-family="sans-serif" font-size="13" font-weight="bold" lengthAdjust="spacingAndGlyphs" textLength="9" x="47" y="308.0278">4</text><text fill="#000000" font-family="sans-serif" font-size="13" lengthAdjust="spacingAndGlyphs" textLength="78" x="60" y="308.0278">如果分支异常</text><path d="M35,326.0938 L35,351.0938 L173,351.0938 L173,336.0938 L163,326.0938 L35,326.0938 " fill="#FBFB77" filter="url(#f1f1a60pjc4uv4)" style="stroke: #A80036; stroke-width: 1.0;"/><path d="M163,326.0938 L163,336.0938 L173,336.0938 L163,326.0938 " fill="#FBFB77" style="stroke: #A80036; stroke-width: 1.0;"/><text fill="#000000" font-family="sans-serif" font-size="13" lengthAdjust="spacingAndGlyphs" textLength="117" x="41" y="343.1606">自行解决冲突或异常</text><line style="stroke: #A80036; stroke-width: 1.0;" x1="155" x2="197" y1="381.3594" y2="381.3594"/><line style="stroke: #A80036; stroke-width: 1.0;" x1="197" x2="197" y1="381.3594" y2="394.3594"/><line style="stroke: #A80036; stroke-width: 1.0;" x1="156" x2="197" y1="394.3594" y2="394.3594"/><polygon fill="#A80036" points="166,390.3594,156,394.3594,166,398.3594,162,394.3594" style="stroke: #A80036; stroke-width: 1.0;"/><text fill="#000000" font-family="sans-serif" font-size="13" font-weight="bold" lengthAdjust="spacingAndGlyphs" textLength="9" x="162" y="376.2935">5</text><text fill="#000000" font-family="sans-serif" font-size="13" lengthAdjust="spacingAndGlyphs" textLength="117" x="175" y="376.2935">通过检测，建立任务</text><polygon fill="#A80036" points="133,419.4922,143,423.4922,133,427.4922,137,423.4922" style="stroke: #A80036; stroke-width: 1.0;"/><line style="stroke: #A80036; stroke-width: 1.0;" x1="30" x2="139" y1="423.4922" y2="423.4922"/><text fill="#000000" font-family="sans-serif" font-size="13" font-weight="bold" lengthAdjust="spacingAndGlyphs" textLength="9" x="37" y="418.4263">6</text><text fill="#000000" font-family="sans-serif" font-size="13" lengthAdjust="spacingAndGlyphs" textLength="52" x="50" y="418.4263">执行任务</text><path d="M160,436.4922 L160,461.4922 L272,461.4922 L272,446.4922 L262,436.4922 L160,436.4922 " fill="#FBFB77" filter="url(#f1f1a60pjc4uv4)" style="stroke: #A80036; stroke-width: 1.0;"/><path d="M262,436.4922 L262,446.4922 L272,446.4922 L262,436.4922 " fill="#FBFB77" style="stroke: #A80036; stroke-width: 1.0;"/><text fill="#000000" font-family="sans-serif" font-size="13" lengthAdjust="spacingAndGlyphs" textLength="91" x="166" y="453.5591">合并分支，提交</text><polygon fill="#A80036" points="287,487.7578,297,491.7578,287,495.7578,291,491.7578" style="stroke: #A80036; stroke-width: 1.0;"/><line style="stroke: #A80036; stroke-width: 1.0;" x1="155" x2="293" y1="491.7578" y2="491.7578"/><text fill="#000000" font-family="sans-serif" font-size="13" font-weight="bold" lengthAdjust="spacingAndGlyphs" textLength="9" x="162" y="486.6919">7</text><text fill="#000000" font-family="sans-serif" font-size="13" lengthAdjust="spacingAndGlyphs" textLength="65" x="175" y="486.6919">请求服务器</text><path d="M160,504.7578 L160,529.7578 L353,529.7578 L353,514.7578 L343,504.7578 L160,504.7578 " fill="#FBFB77" filter="url(#f1f1a60pjc4uv4)" style="stroke: #A80036; stroke-width: 1.0;"/><path d="M343,504.7578 L343,514.7578 L353,514.7578 L343,504.7578 " fill="#FBFB77" style="stroke: #A80036; stroke-width: 1.0;"/><text fill="#000000" font-family="sans-serif" font-size="13" lengthAdjust="spacingAndGlyphs" textLength="172" x="166" y="521.8247">git push 钩子或手动触发接口</text><line style="stroke: #A80036; stroke-width: 1.0;" x1="309" x2="351" y1="560.0234" y2="560.0234"/><line style="stroke: #A80036; stroke-width: 1.0;" x1="351" x2="351" y1="560.0234" y2="573.0234"/><line style="stroke: #A80036; stroke-width: 1.0;" x1="310" x2="351" y1="573.0234" y2="573.0234"/><polygon fill="#A80036" points="320,569.0234,310,573.0234,320,577.0234,316,573.0234" style="stroke: #A80036; stroke-width: 1.0;"/><text fill="#000000" font-family="sans-serif" font-size="13" font-weight="bold" lengthAdjust="spacingAndGlyphs" textLength="9" x="316" y="554.9575">8</text><text fill="#000000" font-family="sans-serif" font-size="13" lengthAdjust="spacingAndGlyphs" textLength="78" x="329" y="554.9575">更新项目状态</text><path d="M314,586.0234 L314,611.0234 L621,611.0234 L621,596.0234 L611,586.0234 L314,586.0234 " fill="#FBFB77" filter="url(#f1f1a60pjc4uv4)" style="stroke: #A80036; stroke-width: 1.0;"/><path d="M611,586.0234 L611,596.0234 L621,596.0234 L611,586.0234 " fill="#FBFB77" style="stroke: #A80036; stroke-width: 1.0;"/><text fill="#000000" font-family="sans-serif" font-size="13" lengthAdjust="spacingAndGlyphs" textLength="286" x="320" y="603.0903">根据文件提交情况，项目状态分为有更新和未更新</text><line style="stroke: #A80036; stroke-width: 1.0;" x1="309" x2="351" y1="641.2891" y2="641.2891"/><line style="stroke: #A80036; stroke-width: 1.0;" x1="351" x2="351" y1="641.2891" y2="654.2891"/><line style="stroke: #A80036; stroke-width: 1.0;" x1="310" x2="351" y1="654.2891" y2="654.2891"/><polygon fill="#A80036" points="320,650.2891,310,654.2891,320,658.2891,316,654.2891" style="stroke: #A80036; stroke-width: 1.0;"/><text fill="#000000" font-family="sans-serif" font-size="13" font-weight="bold" lengthAdjust="spacingAndGlyphs" textLength="9" x="316" y="636.2231">9</text><text fill="#000000" font-family="sans-serif" font-size="13" lengthAdjust="spacingAndGlyphs" textLength="162" x="329" y="636.2231">检测项目中的package.json</text><path d="M314,667.2891 L314,692.2891 L582,692.2891 L582,677.2891 L572,667.2891 L314,667.2891 " fill="#FBFB77" filter="url(#f1f1a60pjc4uv4)" style="stroke: #A80036; stroke-width: 1.0;"/><path d="M572,667.2891 L572,677.2891 L582,677.2891 L572,667.2891 " fill="#FBFB77" style="stroke: #A80036; stroke-width: 1.0;"/><text fill="#000000" font-family="sans-serif" font-size="13" lengthAdjust="spacingAndGlyphs" textLength="247" x="320" y="684.356">有更新要在构建任务中添加更新依赖的操作</text><line style="stroke: #A80036; stroke-width: 1.0;" x1="309" x2="351" y1="722.5547" y2="722.5547"/><line style="stroke: #A80036; stroke-width: 1.0;" x1="351" x2="351" y1="722.5547" y2="735.5547"/><line style="stroke: #A80036; stroke-width: 1.0;" x1="310" x2="351" y1="735.5547" y2="735.5547"/><polygon fill="#A80036" points="320,731.5547,310,735.5547,320,739.5547,316,735.5547" style="stroke: #A80036; stroke-width: 1.0;"/><text fill="#000000" font-family="sans-serif" font-size="13" font-weight="bold" lengthAdjust="spacingAndGlyphs" textLength="18" x="316" y="717.4888">10</text><text fill="#000000" font-family="sans-serif" font-size="13" lengthAdjust="spacingAndGlyphs" textLength="78" x="338" y="717.4888">生成任务队列</text><path d="M314,748.5547 L314,773.5547 L712,773.5547 L712,758.5547 L702,748.5547 L314,748.5547 " fill="#FBFB77" filter="url(#f1f1a60pjc4uv4)" style="stroke: #A80036; stroke-width: 1.0;"/><path d="M702,748.5547 L702,758.5547 L712,758.5547 L702,748.5547 " fill="#FBFB77" style="stroke: #A80036; stroke-width: 1.0;"/><text fill="#000000" font-family="sans-serif" font-size="13" lengthAdjust="spacingAndGlyphs" textLength="377" x="320" y="765.6216">将有更新的项目根据更新时间放入任务队列，一个项目为一个任务</text><line style="stroke: #A80036; stroke-width: 1.0;" x1="309" x2="351" y1="803.8203" y2="803.8203"/><line style="stroke: #A80036; stroke-width: 1.0;" x1="351" x2="351" y1="803.8203" y2="816.8203"/><line style="stroke: #A80036; stroke-width: 1.0;" x1="310" x2="351" y1="816.8203" y2="816.8203"/><polygon fill="#A80036" points="320,812.8203,310,816.8203,320,820.8203,316,816.8203" style="stroke: #A80036; stroke-width: 1.0;"/><text fill="#000000" font-family="sans-serif" font-size="13" font-weight="bold" lengthAdjust="spacingAndGlyphs" textLength="18" x="316" y="798.7544">11</text><text fill="#000000" font-family="sans-serif" font-size="13" lengthAdjust="spacingAndGlyphs" textLength="130" x="338" y="798.7544">依次执行队列中的任务</text><line style="stroke: #A80036; stroke-width: 1.0;" x1="309" x2="351" y1="845.9531" y2="845.9531"/><line style="stroke: #A80036; stroke-width: 1.0;" x1="351" x2="351" y1="845.9531" y2="858.9531"/><line style="stroke: #A80036; stroke-width: 1.0;" x1="310" x2="351" y1="858.9531" y2="858.9531"/><polygon fill="#A80036" points="320,854.9531,310,858.9531,320,862.9531,316,858.9531" style="stroke: #A80036; stroke-width: 1.0;"/><text fill="#000000" font-family="sans-serif" font-size="13" font-weight="bold" lengthAdjust="spacingAndGlyphs" textLength="18" x="316" y="840.8872">12</text><text fill="#000000" font-family="sans-serif" font-size="13" lengthAdjust="spacingAndGlyphs" textLength="78" x="338" y="840.8872">修改项目状态</text><path d="M314,871.9531 L314,896.9531 L634,896.9531 L634,881.9531 L624,871.9531 L314,871.9531 " fill="#FBFB77" filter="url(#f1f1a60pjc4uv4)" style="stroke: #A80036; stroke-width: 1.0;"/><path d="M624,871.9531 L624,881.9531 L634,881.9531 L624,871.9531 " fill="#FBFB77" style="stroke: #A80036; stroke-width: 1.0;"/><text fill="#000000" font-family="sans-serif" font-size="13" lengthAdjust="spacingAndGlyphs" textLength="299" x="320" y="889.02">根据任务执行结果，项目状态分为待发布和构建失败</text><polygon fill="#A80036" points="486,923.2188,496,927.2188,486,931.2188,490,927.2188" style="stroke: #A80036; stroke-width: 1.0;"/><line style="stroke: #A80036; stroke-width: 1.0;" x1="309" x2="492" y1="927.2188" y2="927.2188"/><text fill="#000000" font-family="sans-serif" font-size="13" font-weight="bold" lengthAdjust="spacingAndGlyphs" textLength="18" x="316" y="922.1528">13</text><text fill="#000000" font-family="sans-serif" font-size="13" lengthAdjust="spacingAndGlyphs" textLength="65" x="338" y="922.1528">请求服务器</text><line style="stroke: #A80036; stroke-width: 1.0;" x1="508" x2="550" y1="956.3516" y2="956.3516"/><line style="stroke: #A80036; stroke-width: 1.0;" x1="550" x2="550" y1="956.3516" y2="969.3516"/><line style="stroke: #A80036; stroke-width: 1.0;" x1="509" x2="550" y1="969.3516" y2="969.3516"/><polygon fill="#A80036" points="519,965.3516,509,969.3516,519,973.3516,515,969.3516" style="stroke: #A80036; stroke-width: 1.0;"/><text fill="#000000" font-family="sans-serif" font-size="13" font-weight="bold" lengthAdjust="spacingAndGlyphs" textLength="18" x="515" y="951.2856">14</text><text fill="#000000" font-family="sans-serif" font-size="13" lengthAdjust="spacingAndGlyphs" textLength="169" x="537" y="951.2856">根据项目配置，建立发布任务</text><line style="stroke: #A80036; stroke-width: 1.0;" x1="508" x2="550" y1="998.4844" y2="998.4844"/><line style="stroke: #A80036; stroke-width: 1.0;" x1="550" x2="550" y1="998.4844" y2="1011.4844"/><line style="stroke: #A80036; stroke-width: 1.0;" x1="509" x2="550" y1="1011.4844" y2="1011.4844"/><polygon fill="#A80036" points="519,1007.4844,509,1011.4844,519,1015.4844,515,1011.4844" style="stroke: #A80036; stroke-width: 1.0;"/><text fill="#000000" font-family="sans-serif" font-size="13" font-weight="bold" lengthAdjust="spacingAndGlyphs" textLength="18" x="515" y="993.4185">15</text><text fill="#000000" font-family="sans-serif" font-size="13" lengthAdjust="spacingAndGlyphs" textLength="273" x="537" y="993.4185">生成唯一版本号，将要发布的页面文件储存起来</text><line style="stroke: #A80036; stroke-width: 1.0;" x1="508" x2="550" y1="1040.6172" y2="1040.6172"/><line style="stroke: #A80036; stroke-width: 1.0;" x1="550" x2="550" y1="1040.6172" y2="1053.6172"/><line style="stroke: #A80036; stroke-width: 1.0;" x1="509" x2="550" y1="1053.6172" y2="1053.6172"/><polygon fill="#A80036" points="519,1049.6172,509,1053.6172,519,1057.6172,515,1053.6172" style="stroke: #A80036; stroke-width: 1.0;"/><text fill="#000000" font-family="sans-serif" font-size="13" font-weight="bold" lengthAdjust="spacingAndGlyphs" textLength="18" x="515" y="1035.5513">16</text><text fill="#000000" font-family="sans-serif" font-size="13" lengthAdjust="spacingAndGlyphs" textLength="78" x="537" y="1035.5513">执行发布任务</text><rect fill="#EEEEEE" filter="url(#f1f1a60pjc4uv4)" height="3" style="stroke: #EEEEEE; stroke-width: 1.0;" width="819" x="3" y="1082.1836"/><line style="stroke: #000000; stroke-width: 1.0;" x1="3" x2="822" y1="1082.1836" y2="1082.1836"/><line style="stroke: #000000; stroke-width: 1.0;" x1="3" x2="822" y1="1085.1836" y2="1085.1836"/><rect fill="#EEEEEE" filter="url(#f1f1a60pjc4uv4)" height="23.1328" style="stroke: #000000; stroke-width: 2.0;" width="75" x="375" y="1071.6172"/><text fill="#000000" font-family="sans-serif" font-size="13" font-weight="bold" lengthAdjust="spacingAndGlyphs" textLength="56" x="381" y="1087.6841">回滚流程</text><polygon fill="#A80036" points="486,1121.8828,496,1125.8828,486,1129.8828,490,1125.8828" style="stroke: #A80036; stroke-width: 1.0;"/><line style="stroke: #A80036; stroke-width: 1.0;" x1="30" x2="492" y1="1125.8828" y2="1125.8828"/><text fill="#000000" font-family="sans-serif" font-size="13" font-weight="bold" lengthAdjust="spacingAndGlyphs" textLength="18" x="37" y="1120.8169">17</text><text fill="#000000" font-family="sans-serif" font-size="13" lengthAdjust="spacingAndGlyphs" textLength="208" x="59" y="1120.8169">选择要回滚的版本号，生成发布任务</text><line style="stroke: #A80036; stroke-width: 1.0;" x1="508" x2="550" y1="1155.0156" y2="1155.0156"/><line style="stroke: #A80036; stroke-width: 1.0;" x1="550" x2="550" y1="1155.0156" y2="1168.0156"/><line style="stroke: #A80036; stroke-width: 1.0;" x1="509" x2="550" y1="1168.0156" y2="1168.0156"/><polygon fill="#A80036" points="519,1164.0156,509,1168.0156,519,1172.0156,515,1168.0156" style="stroke: #A80036; stroke-width: 1.0;"/><text fill="#000000" font-family="sans-serif" font-size="13" font-weight="bold" lengthAdjust="spacingAndGlyphs" textLength="18" x="515" y="1149.9497">18</text><text fill="#000000" font-family="sans-serif" font-size="13" lengthAdjust="spacingAndGlyphs" textLength="78" x="537" y="1149.9497">执行发布任务</text></g></svg>
