<?xml version="1.0" encoding="UTF-8" standalone="no"?><svg xmlns="http://www.w3.org/2000/svg" xmlns:xlink="http://www.w3.org/1999/xlink" contentStyleType="text/css" height="586px" preserveAspectRatio="none" style="width:847px;height:586px;background:#FFFFFF;" version="1.1" viewBox="0 0 847 586" width="847px" zoomAndPan="magnify"><defs/><g><rect fill="#FFFFFF" height="404.9922" style="stroke:#181818;stroke-width:1.0;" width="10" x="135" y="91.2969"/><rect fill="#FFFFFF" height="29.1328" style="stroke:#181818;stroke-width:1.0;" width="10" x="260" y="112.4297"/><rect fill="#FFFFFF" height="39.6992" style="stroke:#181818;stroke-width:1.0;" width="10" x="260" y="307.3594"/><rect fill="#FFFFFF" height="32.1328" style="stroke:#181818;stroke-width:1.0;" width="10" x="260" y="389.7578"/><rect fill="#FFFFFF" height="47.2656" style="stroke:#181818;stroke-width:1.0;" width="10" x="380" y="141.5625"/><rect fill="#FFFFFF" height="29.1328" style="stroke:#181818;stroke-width:1.0;" width="10" x="380" y="278.2266"/><rect fill="#FFFFFF" height="47.2656" style="stroke:#181818;stroke-width:1.0;" width="10" x="380" y="421.8906"/><rect fill="#FFFFFF" height="89.3984" style="stroke:#181818;stroke-width:1.0;" width="10" x="548" y="188.8281"/><line style="stroke:#181818;stroke-width:0.5;stroke-dasharray:5.0,5.0;" x1="140" x2="140" y1="81.2969" y2="505.2891"/><line style="stroke:#181818;stroke-width:0.5;stroke-dasharray:5.0,5.0;" x1="265" x2="265" y1="81.2969" y2="505.2891"/><line style="stroke:#181818;stroke-width:0.5;stroke-dasharray:5.0,5.0;" x1="385" x2="385" y1="81.2969" y2="505.2891"/><line style="stroke:#181818;stroke-width:0.5;stroke-dasharray:5.0,5.0;" x1="552.5" x2="552.5" y1="81.2969" y2="505.2891"/><text fill="#000000" font-family="sans-serif" font-size="14" lengthAdjust="spacing" textLength="28" x="123" y="77.9951">用户</text><ellipse cx="140" cy="13.5" fill="#E2E2F0" rx="8" ry="8" style="stroke:#181818;stroke-width:0.5;"/><path d="M140,21.5 L140,48.5 M127,29.5 L153,29.5 M140,48.5 L127,63.5 M140,48.5 L153,63.5 " fill="none" style="stroke:#181818;stroke-width:0.5;"/><text fill="#000000" font-family="sans-serif" font-size="14" lengthAdjust="spacing" textLength="28" x="123" y="517.2842">用户</text><ellipse cx="140" cy="529.0859" fill="#E2E2F0" rx="8" ry="8" style="stroke:#181818;stroke-width:0.5;"/><path d="M140,537.0859 L140,564.0859 M127,545.0859 L153,545.0859 M140,564.0859 L127,579.0859 M140,564.0859 L153,579.0859 " fill="none" style="stroke:#181818;stroke-width:0.5;"/><rect fill="#E2E2F0" height="30.2969" rx="2.5" ry="2.5" style="stroke:#181818;stroke-width:0.5;" width="42" x="244" y="50"/><text fill="#000000" font-family="sans-serif" font-size="14" lengthAdjust="spacing" textLength="28" x="251" y="69.9951">前端</text><rect fill="#E2E2F0" height="30.2969" rx="2.5" ry="2.5" style="stroke:#181818;stroke-width:0.5;" width="42" x="244" y="504.2891"/><text fill="#000000" font-family="sans-serif" font-size="14" lengthAdjust="spacing" textLength="28" x="251" y="524.2842">前端</text><rect fill="#FFA500" height="30.2969" rx="2.5" ry="2.5" style="stroke:#181818;stroke-width:0.5;" width="56" x="357" y="50"/><text fill="#000000" font-family="sans-serif" font-size="14" lengthAdjust="spacing" textLength="42" x="364" y="69.9951">服务端</text><rect fill="#FFA500" height="30.2969" rx="2.5" ry="2.5" style="stroke:#181818;stroke-width:0.5;" width="56" x="357" y="504.2891"/><text fill="#000000" font-family="sans-serif" font-size="14" lengthAdjust="spacing" textLength="42" x="364" y="524.2842">服务端</text><rect fill="#FFA500" height="30.2969" rx="2.5" ry="2.5" style="stroke:#181818;stroke-width:0.5;" width="31" x="537.5" y="50"/><text fill="#000000" font-family="sans-serif" font-size="14" lengthAdjust="spacing" textLength="17" x="544.5" y="69.9951">git</text><rect fill="#FFA500" height="30.2969" rx="2.5" ry="2.5" style="stroke:#181818;stroke-width:0.5;" width="31" x="537.5" y="504.2891"/><text fill="#000000" font-family="sans-serif" font-size="14" lengthAdjust="spacing" textLength="17" x="544.5" y="524.2842">git</text><rect fill="#FFFFFF" height="404.9922" style="stroke:#181818;stroke-width:1.0;" width="10" x="135" y="91.2969"/><rect fill="#FFFFFF" height="29.1328" style="stroke:#181818;stroke-width:1.0;" width="10" x="260" y="112.4297"/><rect fill="#FFFFFF" height="39.6992" style="stroke:#181818;stroke-width:1.0;" width="10" x="260" y="307.3594"/><rect fill="#FFFFFF" height="32.1328" style="stroke:#181818;stroke-width:1.0;" width="10" x="260" y="389.7578"/><rect fill="#FFFFFF" height="47.2656" style="stroke:#181818;stroke-width:1.0;" width="10" x="380" y="141.5625"/><rect fill="#FFFFFF" height="29.1328" style="stroke:#181818;stroke-width:1.0;" width="10" x="380" y="278.2266"/><rect fill="#FFFFFF" height="47.2656" style="stroke:#181818;stroke-width:1.0;" width="10" x="380" y="421.8906"/><rect fill="#FFFFFF" height="89.3984" style="stroke:#181818;stroke-width:1.0;" width="10" x="548" y="188.8281"/><polygon fill="#181818" points="248,108.4297,258,112.4297,248,116.4297,252,112.4297" style="stroke:#181818;stroke-width:1.0;"/><line style="stroke:#181818;stroke-width:1.0;" x1="145" x2="254" y1="112.4297" y2="112.4297"/><text fill="#000000" font-family="sans-serif" font-size="13" font-weight="bold" lengthAdjust="spacing" textLength="9" x="152" y="107.3638">1</text><text fill="#000000" font-family="sans-serif" font-size="13" lengthAdjust="spacing" textLength="52" x="165" y="107.3638">触发构建</text><polygon fill="#181818" points="368,137.5625,378,141.5625,368,145.5625,372,141.5625" style="stroke:#181818;stroke-width:1.0;"/><line style="stroke:#181818;stroke-width:1.0;" x1="265" x2="374" y1="141.5625" y2="141.5625"/><text fill="#000000" font-family="sans-serif" font-size="13" font-weight="bold" lengthAdjust="spacing" textLength="9" x="272" y="136.4966">2</text><text fill="#000000" font-family="sans-serif" font-size="13" lengthAdjust="spacing" textLength="65" x="285" y="136.4966">添加新版本</text><polygon fill="#181818" points="536,184.8281,546,188.8281,536,192.8281,540,188.8281" style="stroke:#181818;stroke-width:1.0;"/><line style="stroke:#181818;stroke-width:1.0;" x1="385" x2="542" y1="188.8281" y2="188.8281"/><text fill="#000000" font-family="sans-serif" font-size="13" font-weight="bold" lengthAdjust="spacing" textLength="9" x="392" y="183.7622">3</text><text fill="#000000" font-family="sans-serif" font-size="13" lengthAdjust="spacing" textLength="104" x="405" y="183.7622">文件名添加版本号</text><path d="M563,154.5625 L563,209.5625 L840,209.5625 L840,164.5625 L830,154.5625 L563,154.5625 " fill="#FEFFDD" style="stroke:#181818;stroke-width:0.5;"/><path d="M830,154.5625 L830,164.5625 L840,164.5625 L830,154.5625 " fill="#FEFFDD" style="stroke:#181818;stroke-width:0.5;"/><text fill="#000000" font-family="sans-serif" font-size="13" lengthAdjust="spacing" textLength="205" x="569" y="171.6294">例如，提交的文件名称: index.html</text><text fill="#000000" font-family="sans-serif" font-size="13" lengthAdjust="spacing" textLength="256" x="569" y="186.7622">添加时间作为版本号，yyyyMMddHHmmss</text><text fill="#000000" font-family="sans-serif" font-size="13" lengthAdjust="spacing" textLength="209" x="569" y="201.895">改为index.20221118151742.html</text><line style="stroke:#181818;stroke-width:1.0;" x1="558" x2="600" y1="236.0938" y2="236.0938"/><line style="stroke:#181818;stroke-width:1.0;" x1="600" x2="600" y1="236.0938" y2="249.0938"/><line style="stroke:#181818;stroke-width:1.0;" x1="559" x2="600" y1="249.0938" y2="249.0938"/><polygon fill="#181818" points="569,245.0938,559,249.0938,569,253.0938,565,249.0938" style="stroke:#181818;stroke-width:1.0;"/><text fill="#000000" font-family="sans-serif" font-size="13" font-weight="bold" lengthAdjust="spacing" textLength="9" x="565" y="231.0278">4</text><text fill="#000000" font-family="sans-serif" font-size="13" lengthAdjust="spacing" textLength="52" x="578" y="231.0278">提交文件</text><polygon fill="#181818" points="401,274.2266,391,278.2266,401,282.2266,397,278.2266" style="stroke:#181818;stroke-width:1.0;"/><line style="stroke:#181818;stroke-width:1.0;" x1="395" x2="552" y1="278.2266" y2="278.2266"/><text fill="#000000" font-family="sans-serif" font-size="13" font-weight="bold" lengthAdjust="spacing" textLength="9" x="407" y="273.1606">5</text><text fill="#000000" font-family="sans-serif" font-size="13" lengthAdjust="spacing" textLength="78" x="420" y="273.1606">返回文件列表</text><polygon fill="#181818" points="281,303.3594,271,307.3594,281,311.3594,277,307.3594" style="stroke:#181818;stroke-width:1.0;"/><line style="stroke:#181818;stroke-width:1.0;" x1="275" x2="384" y1="307.3594" y2="307.3594"/><text fill="#000000" font-family="sans-serif" font-size="13" font-weight="bold" lengthAdjust="spacing" textLength="9" x="287" y="302.2935">6</text><text fill="#000000" font-family="sans-serif" font-size="13" lengthAdjust="spacing" textLength="78" x="300" y="302.2935">返回列表数据</text><polygon fill="#181818" points="156,343.0586,146,347.0586,156,351.0586,152,347.0586" style="stroke:#181818;stroke-width:1.0;"/><line style="stroke:#181818;stroke-width:1.0;" x1="150" x2="264" y1="347.0586" y2="347.0586"/><text fill="#000000" font-family="sans-serif" font-size="13" font-weight="bold" lengthAdjust="spacing" textLength="9" x="162" y="341.9927">7</text><text fill="#000000" font-family="sans-serif" font-size="13" lengthAdjust="spacing" textLength="78" x="175" y="341.9927">文件版本列表</text><path d="M275,320.3594 L275,360.3594 L439,360.3594 L439,330.3594 L429,320.3594 L275,320.3594 " fill="#FEFFDD" style="stroke:#181818;stroke-width:0.5;"/><path d="M429,320.3594 L429,330.3594 L439,330.3594 L429,320.3594 " fill="#FEFFDD" style="stroke:#181818;stroke-width:0.5;"/><text fill="#000000" font-family="sans-serif" font-size="13" lengthAdjust="spacing" textLength="91" x="281" y="337.4263">展示版本列表，</text><text fill="#000000" font-family="sans-serif" font-size="13" lengthAdjust="spacing" textLength="143" x="281" y="352.5591">其中有刚刚添加的新版本</text><polygon fill="#181818" points="248,385.7578,258,389.7578,248,393.7578,252,389.7578" style="stroke:#181818;stroke-width:1.0;"/><line style="stroke:#181818;stroke-width:1.0;" x1="145" x2="254" y1="389.7578" y2="389.7578"/><text fill="#000000" font-family="sans-serif" font-size="13" font-weight="bold" lengthAdjust="spacing" textLength="9" x="152" y="384.6919">8</text><text fill="#000000" font-family="sans-serif" font-size="13" lengthAdjust="spacing" textLength="65" x="165" y="384.6919">发布新版本</text><path d="M5,370.625 L5,395.625 L130,395.625 L130,380.625 L120,370.625 L5,370.625 " fill="#FEFFDD" style="stroke:#181818;stroke-width:0.5;"/><path d="M120,370.625 L120,380.625 L130,380.625 L120,370.625 " fill="#FEFFDD" style="stroke:#181818;stroke-width:0.5;"/><text fill="#000000" font-family="sans-serif" font-size="13" lengthAdjust="spacing" textLength="104" x="11" y="387.6919">选择一个版本发布</text><polygon fill="#181818" points="368,417.8906,378,421.8906,368,425.8906,372,421.8906" style="stroke:#181818;stroke-width:1.0;"/><line style="stroke:#181818;stroke-width:1.0;" x1="265" x2="374" y1="421.8906" y2="421.8906"/><text fill="#000000" font-family="sans-serif" font-size="13" font-weight="bold" lengthAdjust="spacing" textLength="9" x="272" y="416.8247">9</text><text fill="#000000" font-family="sans-serif" font-size="13" lengthAdjust="spacing" textLength="52" x="285" y="416.8247">发送请求</text><polygon fill="#181818" points="541,465.1563,551,469.1563,541,473.1563,545,469.1563" style="stroke:#181818;stroke-width:1.0;"/><line style="stroke:#181818;stroke-width:1.0;" x1="385" x2="547" y1="469.1563" y2="469.1563"/><text fill="#000000" font-family="sans-serif" font-size="13" font-weight="bold" lengthAdjust="spacing" textLength="18" x="392" y="464.0903">10</text><text fill="#000000" font-family="sans-serif" font-size="13" lengthAdjust="spacing" textLength="117" x="414" y="464.0903">修改版本，提交文件</text><path d="M558,434.8906 L558,489.8906 L814,489.8906 L814,444.8906 L804,434.8906 L558,434.8906 " fill="#FEFFDD" style="stroke:#181818;stroke-width:0.5;"/><path d="M804,434.8906 L804,444.8906 L814,444.8906 L804,434.8906 " fill="#FEFFDD" style="stroke:#181818;stroke-width:0.5;"/><text fill="#000000" font-family="sans-serif" font-size="13" lengthAdjust="spacing" textLength="132" x="564" y="451.9575">当前版本：index.html</text><text fill="#000000" font-family="sans-serif" font-size="13" lengthAdjust="spacing" textLength="235" x="564" y="467.0903">新版本：index.20221118151742.html</text><text fill="#000000" font-family="sans-serif" font-size="13" lengthAdjust="spacing" textLength="221" x="564" y="482.2231">复制新版本，重命名后覆盖当前的文件</text></g></svg>
