<?xml version="1.0" encoding="UTF-8" standalone="no"?><svg xmlns="http://www.w3.org/2000/svg" xmlns:xlink="http://www.w3.org/1999/xlink" contentScriptType="application/ecmascript" contentStyleType="text/css" height="889px" preserveAspectRatio="none" style="width:647px;height:889px;" version="1.1" viewBox="0 0 647 889" width="647px" zoomAndPan="magnify"><defs><filter height="300%" id="fldoufqc11zl9" width="300%" x="-1" y="-1"><feGaussianBlur result="blurOut" stdDeviation="2.0"/><feColorMatrix in="blurOut" result="blurOut2" type="matrix" values="0 0 0 0 0 0 0 0 0 0 0 0 0 0 0 0 0 0 .4 0"/><feOffset dx="4.0" dy="4.0" in="blurOut2" result="blurOut3"/><feBlend in="SourceGraphic" in2="blurOut3" mode="normal"/></filter></defs><g><rect fill="#FFFFFF" filter="url(#fldoufqc11zl9)" height="199.9297" style="stroke:#FFFFFF;stroke-width:1.0;" width="10" x="24" y="98.2969"/><line style="stroke:#A80036;stroke-width:1.0;" x1="24" x2="24" y1="98.2969" y2="298.2266"/><line style="stroke:#A80036;stroke-width:1.0;" x1="34" x2="34" y1="98.2969" y2="298.2266"/><line style="stroke:#A80036;stroke-width:1.0;" x1="24" x2="34" y1="98.2969" y2="98.2969"/><rect fill="#FFFFFF" filter="url(#fldoufqc11zl9)" height="271.0625" style="stroke:#FFFFFF;stroke-width:1.0;" width="10" x="24" y="326.2266"/><line style="stroke:#A80036;stroke-width:1.0;" x1="24" x2="24" y1="326.2266" y2="597.2891"/><line style="stroke:#A80036;stroke-width:1.0;" x1="34" x2="34" y1="326.2266" y2="597.2891"/><rect fill="#FFFFFF" filter="url(#fldoufqc11zl9)" height="170.6641" style="stroke:#FFFFFF;stroke-width:1.0;" width="10" x="24" y="625.2891"/><line style="stroke:#A80036;stroke-width:1.0;" x1="24" x2="24" y1="625.2891" y2="795.9531"/><line style="stroke:#A80036;stroke-width:1.0;" x1="34" x2="34" y1="625.2891" y2="795.9531"/><rect fill="#FFFFFF" filter="url(#fldoufqc11zl9)" height="29.1328" style="stroke:#A80036;stroke-width:1.0;" width="10" x="170" y="390.4922"/><rect fill="#FFFFFF" filter="url(#fldoufqc11zl9)" height="29.1328" style="stroke:#A80036;stroke-width:1.0;" width="10" x="282.5" y="419.625"/><rect fill="#FFFFFF" filter="url(#fldoufqc11zl9)" height="14" style="stroke:#A80036;stroke-width:1.0;" width="10" x="398.5" y="162.5625"/><rect fill="#FFFFFF" filter="url(#fldoufqc11zl9)" height="29.1328" style="stroke:#A80036;stroke-width:1.0;" width="10" x="398.5" y="477.8906"/><rect fill="#FFFFFF" filter="url(#fldoufqc11zl9)" height="29.1328" style="stroke:#A80036;stroke-width:1.0;" width="10" x="398.5" y="689.5547"/><rect fill="#FFFFFF" filter="url(#fldoufqc11zl9)" height="92.5313" style="stroke:#FFFFFF;stroke-width:1.0;" width="10" x="524.5" y="205.6953"/><line style="stroke:#A80036;stroke-width:1.0;" x1="524.5" x2="524.5" y1="205.6953" y2="298.2266"/><line style="stroke:#A80036;stroke-width:1.0;" x1="534.5" x2="534.5" y1="205.6953" y2="298.2266"/><line style="stroke:#A80036;stroke-width:1.0;" x1="524.5" x2="534.5" y1="205.6953" y2="205.6953"/><rect fill="#FFFFFF" filter="url(#fldoufqc11zl9)" height="271.0625" style="stroke:#FFFFFF;stroke-width:1.0;" width="10" x="524.5" y="326.2266"/><line style="stroke:#A80036;stroke-width:1.0;" x1="524.5" x2="524.5" y1="326.2266" y2="597.2891"/><line style="stroke:#A80036;stroke-width:1.0;" x1="534.5" x2="534.5" y1="326.2266" y2="597.2891"/><rect fill="#FFFFFF" filter="url(#fldoufqc11zl9)" height="170.6641" style="stroke:#FFFFFF;stroke-width:1.0;" width="10" x="524.5" y="625.2891"/><line style="stroke:#A80036;stroke-width:1.0;" x1="524.5" x2="524.5" y1="625.2891" y2="795.9531"/><line style="stroke:#A80036;stroke-width:1.0;" x1="534.5" x2="534.5" y1="625.2891" y2="795.9531"/><rect fill="#FFFFFF" filter="url(#fldoufqc11zl9)" height="53.1328" style="stroke:#A80036;stroke-width:1.0;" width="10" x="529.5" y="536.1563"/><rect fill="#FFFFFF" filter="url(#fldoufqc11zl9)" height="48.1328" style="stroke:#A80036;stroke-width:1.0;" width="10" x="529.5" y="747.8203"/><line style="stroke:#A80036;stroke-width:1.0;" x1="29" x2="29" y1="88.2969" y2="298.2266"/><line style="stroke:#A80036;stroke-width:1.0;stroke-dasharray:1.0,4.0;" x1="29" x2="29" y1="298.2266" y2="326.2266"/><line style="stroke:#A80036;stroke-width:1.0;" x1="29" x2="29" y1="326.2266" y2="597.2891"/><line style="stroke:#A80036;stroke-width:1.0;stroke-dasharray:1.0,4.0;" x1="29" x2="29" y1="597.2891" y2="625.2891"/><line style="stroke:#A80036;stroke-width:1.0;" x1="29" x2="29" y1="625.2891" y2="804.9531"/><line style="stroke:#A80036;stroke-width:1.0;" x1="174.5" x2="174.5" y1="88.2969" y2="298.2266"/><line style="stroke:#A80036;stroke-width:1.0;stroke-dasharray:1.0,4.0;" x1="174.5" x2="174.5" y1="298.2266" y2="326.2266"/><line style="stroke:#A80036;stroke-width:1.0;" x1="174.5" x2="174.5" y1="326.2266" y2="597.2891"/><line style="stroke:#A80036;stroke-width:1.0;stroke-dasharray:1.0,4.0;" x1="174.5" x2="174.5" y1="597.2891" y2="625.2891"/><line style="stroke:#A80036;stroke-width:1.0;" x1="174.5" x2="174.5" y1="625.2891" y2="804.9531"/><line style="stroke:#A80036;stroke-width:1.0;" x1="287.5" x2="287.5" y1="88.2969" y2="298.2266"/><line style="stroke:#A80036;stroke-width:1.0;stroke-dasharray:1.0,4.0;" x1="287.5" x2="287.5" y1="298.2266" y2="326.2266"/><line style="stroke:#A80036;stroke-width:1.0;" x1="287.5" x2="287.5" y1="326.2266" y2="597.2891"/><line style="stroke:#A80036;stroke-width:1.0;stroke-dasharray:1.0,4.0;" x1="287.5" x2="287.5" y1="597.2891" y2="625.2891"/><line style="stroke:#A80036;stroke-width:1.0;" x1="287.5" x2="287.5" y1="625.2891" y2="804.9531"/><line style="stroke:#A80036;stroke-width:1.0;" x1="403.5" x2="403.5" y1="88.2969" y2="298.2266"/><line style="stroke:#A80036;stroke-width:1.0;stroke-dasharray:1.0,4.0;" x1="403.5" x2="403.5" y1="298.2266" y2="326.2266"/><line style="stroke:#A80036;stroke-width:1.0;" x1="403.5" x2="403.5" y1="326.2266" y2="597.2891"/><line style="stroke:#A80036;stroke-width:1.0;stroke-dasharray:1.0,4.0;" x1="403.5" x2="403.5" y1="597.2891" y2="625.2891"/><line style="stroke:#A80036;stroke-width:1.0;" x1="403.5" x2="403.5" y1="625.2891" y2="804.9531"/><line style="stroke:#A80036;stroke-width:1.0;" x1="529.5" x2="529.5" y1="88.2969" y2="298.2266"/><line style="stroke:#A80036;stroke-width:1.0;stroke-dasharray:1.0,4.0;" x1="529.5" x2="529.5" y1="298.2266" y2="326.2266"/><line style="stroke:#A80036;stroke-width:1.0;" x1="529.5" x2="529.5" y1="326.2266" y2="597.2891"/><line style="stroke:#A80036;stroke-width:1.0;stroke-dasharray:1.0,4.0;" x1="529.5" x2="529.5" y1="597.2891" y2="625.2891"/><line style="stroke:#A80036;stroke-width:1.0;" x1="529.5" x2="529.5" y1="625.2891" y2="804.9531"/><text fill="#000000" font-family="sans-serif" font-size="14" lengthAdjust="spacing" textLength="42" x="5" y="84.9951">开发者</text><ellipse cx="29" cy="15" fill="#FEFECE" filter="url(#fldoufqc11zl9)" rx="8" ry="8" style="stroke:#A80036;stroke-width:2.0;"/><path d="M29,23 L29,50 M16,31 L42,31 M29,50 L16,65 M29,50 L42,65 " fill="none" filter="url(#fldoufqc11zl9)" style="stroke:#A80036;stroke-width:2.0;"/><text fill="#000000" font-family="sans-serif" font-size="14" lengthAdjust="spacing" textLength="42" x="5" y="816.9482">开发者</text><ellipse cx="29" cy="830.25" fill="#FEFECE" filter="url(#fldoufqc11zl9)" rx="8" ry="8" style="stroke:#A80036;stroke-width:2.0;"/><path d="M29,838.25 L29,865.25 M16,846.25 L42,846.25 M29,865.25 L16,880.25 M29,865.25 L42,880.25 " fill="none" filter="url(#fldoufqc11zl9)" style="stroke:#A80036;stroke-width:2.0;"/><rect fill="#FEFECE" filter="url(#fldoufqc11zl9)" height="30.2969" style="stroke:#A80036;stroke-width:1.5;" width="99" x="123.5" y="53"/><text fill="#000000" font-family="sans-serif" font-size="14" lengthAdjust="spacing" textLength="85" x="130.5" y="72.9951">web代码仓库</text><rect fill="#FEFECE" filter="url(#fldoufqc11zl9)" height="30.2969" style="stroke:#A80036;stroke-width:1.5;" width="99" x="123.5" y="803.9531"/><text fill="#000000" font-family="sans-serif" font-size="14" lengthAdjust="spacing" textLength="85" x="130.5" y="823.9482">web代码仓库</text><rect fill="#FEFECE" filter="url(#fldoufqc11zl9)" height="30.2969" style="stroke:#A80036;stroke-width:1.5;" width="98" x="236.5" y="53"/><text fill="#000000" font-family="sans-serif" font-size="14" lengthAdjust="spacing" textLength="84" x="243.5" y="72.9951">前端发布系统</text><rect fill="#FEFECE" filter="url(#fldoufqc11zl9)" height="30.2969" style="stroke:#A80036;stroke-width:1.5;" width="98" x="236.5" y="803.9531"/><text fill="#000000" font-family="sans-serif" font-size="14" lengthAdjust="spacing" textLength="84" x="243.5" y="823.9482">前端发布系统</text><rect fill="#FEFECE" filter="url(#fldoufqc11zl9)" height="30.2969" style="stroke:#A80036;stroke-width:1.5;" width="106" x="348.5" y="53"/><text fill="#000000" font-family="sans-serif" font-size="14" lengthAdjust="spacing" textLength="92" x="355.5" y="72.9951">node代码仓库</text><rect fill="#FEFECE" filter="url(#fldoufqc11zl9)" height="30.2969" style="stroke:#A80036;stroke-width:1.5;" width="106" x="348.5" y="803.9531"/><text fill="#000000" font-family="sans-serif" font-size="14" lengthAdjust="spacing" textLength="92" x="355.5" y="823.9482">node代码仓库</text><rect fill="#FEFECE" filter="url(#fldoufqc11zl9)" height="30.2969" style="stroke:#A80036;stroke-width:1.5;" width="118" x="468.5" y="53"/><text fill="#000000" font-family="sans-serif" font-size="14" lengthAdjust="spacing" textLength="104" x="475.5" y="72.9951">docker发布系统</text><rect fill="#FEFECE" filter="url(#fldoufqc11zl9)" height="30.2969" style="stroke:#A80036;stroke-width:1.5;" width="118" x="468.5" y="803.9531"/><text fill="#000000" font-family="sans-serif" font-size="14" lengthAdjust="spacing" textLength="104" x="475.5" y="823.9482">docker发布系统</text><rect fill="#FFFFFF" filter="url(#fldoufqc11zl9)" height="199.9297" style="stroke:#FFFFFF;stroke-width:1.0;" width="10" x="24" y="98.2969"/><line style="stroke:#A80036;stroke-width:1.0;" x1="24" x2="24" y1="98.2969" y2="298.2266"/><line style="stroke:#A80036;stroke-width:1.0;" x1="34" x2="34" y1="98.2969" y2="298.2266"/><line style="stroke:#A80036;stroke-width:1.0;" x1="24" x2="34" y1="98.2969" y2="98.2969"/><rect fill="#FFFFFF" filter="url(#fldoufqc11zl9)" height="271.0625" style="stroke:#FFFFFF;stroke-width:1.0;" width="10" x="24" y="326.2266"/><line style="stroke:#A80036;stroke-width:1.0;" x1="24" x2="24" y1="326.2266" y2="597.2891"/><line style="stroke:#A80036;stroke-width:1.0;" x1="34" x2="34" y1="326.2266" y2="597.2891"/><rect fill="#FFFFFF" filter="url(#fldoufqc11zl9)" height="170.6641" style="stroke:#FFFFFF;stroke-width:1.0;" width="10" x="24" y="625.2891"/><line style="stroke:#A80036;stroke-width:1.0;" x1="24" x2="24" y1="625.2891" y2="795.9531"/><line style="stroke:#A80036;stroke-width:1.0;" x1="34" x2="34" y1="625.2891" y2="795.9531"/><rect fill="#FFFFFF" filter="url(#fldoufqc11zl9)" height="29.1328" style="stroke:#A80036;stroke-width:1.0;" width="10" x="170" y="390.4922"/><rect fill="#FFFFFF" filter="url(#fldoufqc11zl9)" height="29.1328" style="stroke:#A80036;stroke-width:1.0;" width="10" x="282.5" y="419.625"/><rect fill="#FFFFFF" filter="url(#fldoufqc11zl9)" height="14" style="stroke:#A80036;stroke-width:1.0;" width="10" x="398.5" y="162.5625"/><rect fill="#FFFFFF" filter="url(#fldoufqc11zl9)" height="29.1328" style="stroke:#A80036;stroke-width:1.0;" width="10" x="398.5" y="477.8906"/><rect fill="#FFFFFF" filter="url(#fldoufqc11zl9)" height="29.1328" style="stroke:#A80036;stroke-width:1.0;" width="10" x="398.5" y="689.5547"/><rect fill="#FFFFFF" filter="url(#fldoufqc11zl9)" height="92.5313" style="stroke:#FFFFFF;stroke-width:1.0;" width="10" x="524.5" y="205.6953"/><line style="stroke:#A80036;stroke-width:1.0;" x1="524.5" x2="524.5" y1="205.6953" y2="298.2266"/><line style="stroke:#A80036;stroke-width:1.0;" x1="534.5" x2="534.5" y1="205.6953" y2="298.2266"/><line style="stroke:#A80036;stroke-width:1.0;" x1="524.5" x2="534.5" y1="205.6953" y2="205.6953"/><rect fill="#FFFFFF" filter="url(#fldoufqc11zl9)" height="271.0625" style="stroke:#FFFFFF;stroke-width:1.0;" width="10" x="524.5" y="326.2266"/><line style="stroke:#A80036;stroke-width:1.0;" x1="524.5" x2="524.5" y1="326.2266" y2="597.2891"/><line style="stroke:#A80036;stroke-width:1.0;" x1="534.5" x2="534.5" y1="326.2266" y2="597.2891"/><rect fill="#FFFFFF" filter="url(#fldoufqc11zl9)" height="170.6641" style="stroke:#FFFFFF;stroke-width:1.0;" width="10" x="524.5" y="625.2891"/><line style="stroke:#A80036;stroke-width:1.0;" x1="524.5" x2="524.5" y1="625.2891" y2="795.9531"/><line style="stroke:#A80036;stroke-width:1.0;" x1="534.5" x2="534.5" y1="625.2891" y2="795.9531"/><rect fill="#FFFFFF" filter="url(#fldoufqc11zl9)" height="53.1328" style="stroke:#A80036;stroke-width:1.0;" width="10" x="529.5" y="536.1563"/><rect fill="#FFFFFF" filter="url(#fldoufqc11zl9)" height="48.1328" style="stroke:#A80036;stroke-width:1.0;" width="10" x="529.5" y="747.8203"/><rect fill="#EEEEEE" filter="url(#fldoufqc11zl9)" height="3" style="stroke:#EEEEEE;stroke-width:1.0;" width="640" x="0" y="118.8633"/><line style="stroke:#000000;stroke-width:1.0;" x1="0" x2="640" y1="118.8633" y2="118.8633"/><line style="stroke:#000000;stroke-width:1.0;" x1="0" x2="640" y1="121.8633" y2="121.8633"/><rect fill="#EEEEEE" filter="url(#fldoufqc11zl9)" height="23.1328" style="stroke:#000000;stroke-width:2.0;" width="75" x="282.5" y="108.2969"/><text fill="#000000" font-family="sans-serif" font-size="13" font-weight="bold" lengthAdjust="spacing" textLength="56" x="288.5" y="124.3638">配置流程</text><polygon fill="#A80036" points="386.5,158.5625,396.5,162.5625,386.5,166.5625,390.5,162.5625" style="stroke:#A80036;stroke-width:1.0;"/><line style="stroke:#A80036;stroke-width:1.0;" x1="34" x2="392.5" y1="162.5625" y2="162.5625"/><text fill="#000000" font-family="sans-serif" font-size="13" lengthAdjust="spacing" textLength="117" x="41" y="157.4966">创建仓库和功能分支</text><polygon fill="#A80036" points="45,172.5625,35,176.5625,45,180.5625,41,176.5625" style="stroke:#A80036;stroke-width:1.0;"/><line style="stroke:#A80036;stroke-width:1.0;stroke-dasharray:2.0,2.0;" x1="39" x2="402.5" y1="176.5625" y2="176.5625"/><polygon fill="#A80036" points="512.5,201.6953,522.5,205.6953,512.5,209.6953,516.5,205.6953" style="stroke:#A80036;stroke-width:1.0;"/><line style="stroke:#A80036;stroke-width:1.0;" x1="34" x2="518.5" y1="205.6953" y2="205.6953"/><text fill="#000000" font-family="sans-serif" font-size="13" lengthAdjust="spacing" textLength="147" x="41" y="200.6294">创建docker发布系统配置</text><path d="M423,218.6953 L423,288.6953 L631,288.6953 L631,228.6953 L621,218.6953 L423,218.6953 " fill="#FBFB77" filter="url(#fldoufqc11zl9)" style="stroke:#A80036;stroke-width:1.0;"/><path d="M621,218.6953 L621,228.6953 L631,228.6953 L621,218.6953 " fill="#FBFB77" style="stroke:#A80036;stroke-width:1.0;"/><text fill="#000000" font-family="sans-serif" font-size="13" lengthAdjust="spacing" textLength="26" x="429" y="235.7622">填入</text><text fill="#000000" font-family="sans-serif" font-size="13" lengthAdjust="spacing" textLength="187" x="429" y="250.895">1、urlPath（docker唯一标识）</text><text fill="#000000" font-family="sans-serif" font-size="13" lengthAdjust="spacing" textLength="99" x="429" y="266.0278">2、代码仓库地址</text><text fill="#000000" font-family="sans-serif" font-size="13" lengthAdjust="spacing" textLength="73" x="429" y="281.1606">3、分支名称</text><rect fill="#EEEEEE" filter="url(#fldoufqc11zl9)" height="3" style="stroke:#EEEEEE;stroke-width:1.0;" width="640" x="0" y="346.793"/><line style="stroke:#000000;stroke-width:1.0;" x1="0" x2="640" y1="346.793" y2="346.793"/><line style="stroke:#000000;stroke-width:1.0;" x1="0" x2="640" y1="349.793" y2="349.793"/><rect fill="#EEEEEE" filter="url(#fldoufqc11zl9)" height="23.1328" style="stroke:#000000;stroke-width:2.0;" width="106" x="267" y="336.2266"/><text fill="#000000" font-family="sans-serif" font-size="13" font-weight="bold" lengthAdjust="spacing" textLength="87" x="273" y="352.2935">web研发流程</text><polygon fill="#A80036" points="158,386.4922,168,390.4922,158,394.4922,162,390.4922" style="stroke:#A80036;stroke-width:1.0;"/><line style="stroke:#A80036;stroke-width:1.0;" x1="34" x2="164" y1="390.4922" y2="390.4922"/><text fill="#000000" font-family="sans-serif" font-size="13" lengthAdjust="spacing" textLength="117" x="41" y="385.4263">提交代码到功能分支</text><polygon fill="#A80036" points="270.5,415.625,280.5,419.625,270.5,423.625,274.5,419.625" style="stroke:#A80036;stroke-width:1.0;"/><line style="stroke:#A80036;stroke-width:1.0;" x1="175" x2="276.5" y1="419.625" y2="419.625"/><text fill="#000000" font-family="sans-serif" font-size="13" lengthAdjust="spacing" textLength="26" x="182" y="414.5591">发布</text><polygon fill="#A80036" points="45,444.7578,35,448.7578,45,452.7578,41,448.7578" style="stroke:#A80036;stroke-width:1.0;"/><line style="stroke:#A80036;stroke-width:1.0;stroke-dasharray:2.0,2.0;" x1="39" x2="286.5" y1="448.7578" y2="448.7578"/><text fill="#000000" font-family="sans-serif" font-size="13" lengthAdjust="spacing" textLength="52" x="51" y="443.6919">下载页面</text><polygon fill="#A80036" points="386.5,473.8906,396.5,477.8906,386.5,481.8906,390.5,477.8906" style="stroke:#A80036;stroke-width:1.0;"/><line style="stroke:#A80036;stroke-width:1.0;" x1="34" x2="392.5" y1="477.8906" y2="477.8906"/><text fill="#000000" font-family="sans-serif" font-size="13" lengthAdjust="spacing" textLength="117" x="41" y="472.8247">提交页面到功能分支</text><polygon fill="#A80036" points="45,503.0234,35,507.0234,45,511.0234,41,507.0234" style="stroke:#A80036;stroke-width:1.0;"/><line style="stroke:#A80036;stroke-width:1.0;stroke-dasharray:2.0,2.0;" x1="39" x2="402.5" y1="507.0234" y2="507.0234"/><text fill="#000000" font-family="sans-serif" font-size="13" lengthAdjust="spacing" textLength="52" x="51" y="501.9575">功能分支</text><polygon fill="#A80036" points="517.5,532.1563,527.5,536.1563,517.5,540.1563,521.5,536.1563" style="stroke:#A80036;stroke-width:1.0;"/><line style="stroke:#A80036;stroke-width:1.0;" x1="34" x2="523.5" y1="536.1563" y2="536.1563"/><text fill="#000000" font-family="sans-serif" font-size="13" lengthAdjust="spacing" textLength="52" x="41" y="531.0903">功能分支</text><path d="M469,549.1563 L469,574.1563 L585,574.1563 L585,559.1563 L575,549.1563 L469,549.1563 " fill="#FBFB77" filter="url(#fldoufqc11zl9)" style="stroke:#A80036;stroke-width:1.0;"/><path d="M575,549.1563 L575,559.1563 L585,559.1563 L575,549.1563 " fill="#FBFB77" style="stroke:#A80036;stroke-width:1.0;"/><text fill="#000000" font-family="sans-serif" font-size="13" lengthAdjust="spacing" textLength="95" x="475" y="566.2231">docker包含页面</text><polygon fill="#A80036" points="45,585.2891,35,589.2891,45,593.2891,41,589.2891" style="stroke:#A80036;stroke-width:1.0;"/><line style="stroke:#A80036;stroke-width:1.0;stroke-dasharray:2.0,2.0;" x1="39" x2="523.5" y1="589.2891" y2="589.2891"/><rect fill="#EEEEEE" filter="url(#fldoufqc11zl9)" height="3" style="stroke:#EEEEEE;stroke-width:1.0;" width="640" x="0" y="645.8555"/><line style="stroke:#000000;stroke-width:1.0;" x1="0" x2="640" y1="645.8555" y2="645.8555"/><line style="stroke:#000000;stroke-width:1.0;" x1="0" x2="640" y1="648.8555" y2="648.8555"/><rect fill="#EEEEEE" filter="url(#fldoufqc11zl9)" height="23.1328" style="stroke:#000000;stroke-width:2.0;" width="112" x="264" y="635.2891"/><text fill="#000000" font-family="sans-serif" font-size="13" font-weight="bold" lengthAdjust="spacing" textLength="93" x="270" y="651.356">node研发流程</text><polygon fill="#A80036" points="386.5,685.5547,396.5,689.5547,386.5,693.5547,390.5,689.5547" style="stroke:#A80036;stroke-width:1.0;"/><line style="stroke:#A80036;stroke-width:1.0;" x1="34" x2="392.5" y1="689.5547" y2="689.5547"/><text fill="#000000" font-family="sans-serif" font-size="13" lengthAdjust="spacing" textLength="117" x="41" y="684.4888">提交代码到功能分支</text><polygon fill="#A80036" points="45,714.6875,35,718.6875,45,722.6875,41,718.6875" style="stroke:#A80036;stroke-width:1.0;"/><line style="stroke:#A80036;stroke-width:1.0;stroke-dasharray:2.0,2.0;" x1="39" x2="402.5" y1="718.6875" y2="718.6875"/><text fill="#000000" font-family="sans-serif" font-size="13" lengthAdjust="spacing" textLength="52" x="51" y="713.6216">功能分支</text><polygon fill="#A80036" points="517.5,743.8203,527.5,747.8203,517.5,751.8203,521.5,747.8203" style="stroke:#A80036;stroke-width:1.0;"/><line style="stroke:#A80036;stroke-width:1.0;" x1="34" x2="523.5" y1="747.8203" y2="747.8203"/><text fill="#000000" font-family="sans-serif" font-size="13" lengthAdjust="spacing" textLength="69" x="41" y="742.7544">docker发布</text><path d="M439,760.8203 L439,785.8203 L616,785.8203 L616,770.8203 L606,760.8203 L439,760.8203 " fill="#FBFB77" filter="url(#fldoufqc11zl9)" style="stroke:#A80036;stroke-width:1.0;"/><path d="M606,760.8203 L606,770.8203 L616,770.8203 L606,760.8203 " fill="#FBFB77" style="stroke:#A80036;stroke-width:1.0;"/><text fill="#000000" font-family="sans-serif" font-size="13" lengthAdjust="spacing" textLength="156" x="445" y="777.8872">可以使用功能分支进行发布</text></g></svg>
