<?xml version="1.0" encoding="UTF-8" standalone="no"?><svg xmlns="http://www.w3.org/2000/svg" xmlns:xlink="http://www.w3.org/1999/xlink" contentScriptType="application/ecmascript" contentStyleType="text/css" height="362px" preserveAspectRatio="none" style="width:571px;height:362px;" version="1.1" viewBox="0 0 571 362" width="571px" zoomAndPan="magnify"><defs><filter height="300%" id="f1o50a71g4nuvf" width="300%" x="-1" y="-1"><feGaussianBlur result="blurOut" stdDeviation="2.0"/><feColorMatrix in="blurOut" result="blurOut2" type="matrix" values="0 0 0 0 0 0 0 0 0 0 0 0 0 0 0 0 0 0 .4 0"/><feOffset dx="4.0" dy="4.0" in="blurOut2" result="blurOut3"/><feBlend in="SourceGraphic" in2="blurOut3" mode="normal"/></filter></defs><g><rect fill="#FFFFFF" filter="url(#f1o50a71g4nuvf)" height="170.6641" style="stroke:#A80036;stroke-width:1.0;" width="10" x="24" y="98.2969"/><rect fill="#FFFFFF" filter="url(#f1o50a71g4nuvf)" height="29.1328" style="stroke:#A80036;stroke-width:1.0;" width="10" x="338" y="162.5625"/><rect fill="#FFFFFF" filter="url(#f1o50a71g4nuvf)" height="48.1328" style="stroke:#A80036;stroke-width:1.0;" width="10" x="464" y="220.8281"/><line style="stroke:#A80036;stroke-width:1.0;stroke-dasharray:5.0,5.0;" x1="29" x2="29" y1="88.2969" y2="277.9609"/><line style="stroke:#A80036;stroke-width:1.0;stroke-dasharray:5.0,5.0;" x1="114" x2="114" y1="88.2969" y2="277.9609"/><line style="stroke:#A80036;stroke-width:1.0;stroke-dasharray:5.0,5.0;" x1="227" x2="227" y1="88.2969" y2="277.9609"/><line style="stroke:#A80036;stroke-width:1.0;stroke-dasharray:5.0,5.0;" x1="343" x2="343" y1="88.2969" y2="277.9609"/><line style="stroke:#A80036;stroke-width:1.0;stroke-dasharray:5.0,5.0;" x1="469" x2="469" y1="88.2969" y2="277.9609"/><text fill="#000000" font-family="sans-serif" font-size="14" lengthAdjust="spacing" textLength="42" x="5" y="84.9951">开发者</text><ellipse cx="29" cy="15" fill="#FEFECE" filter="url(#f1o50a71g4nuvf)" rx="8" ry="8" style="stroke:#A80036;stroke-width:2.0;"/><path d="M29,23 L29,50 M16,31 L42,31 M29,50 L16,65 M29,50 L42,65 " fill="none" filter="url(#f1o50a71g4nuvf)" style="stroke:#A80036;stroke-width:2.0;"/><text fill="#000000" font-family="sans-serif" font-size="14" lengthAdjust="spacing" textLength="42" x="5" y="289.9561">开发者</text><ellipse cx="29" cy="303.2578" fill="#FEFECE" filter="url(#f1o50a71g4nuvf)" rx="8" ry="8" style="stroke:#A80036;stroke-width:2.0;"/><path d="M29,311.2578 L29,338.2578 M16,319.2578 L42,319.2578 M29,338.2578 L16,353.2578 M29,338.2578 L42,353.2578 " fill="none" filter="url(#f1o50a71g4nuvf)" style="stroke:#A80036;stroke-width:2.0;"/><rect fill="#FEFECE" filter="url(#f1o50a71g4nuvf)" height="30.2969" style="stroke:#A80036;stroke-width:1.5;" width="99" x="63" y="53"/><text fill="#000000" font-family="sans-serif" font-size="14" lengthAdjust="spacing" textLength="85" x="70" y="72.9951">web代码仓库</text><rect fill="#FEFECE" filter="url(#f1o50a71g4nuvf)" height="30.2969" style="stroke:#A80036;stroke-width:1.5;" width="99" x="63" y="276.9609"/><text fill="#000000" font-family="sans-serif" font-size="14" lengthAdjust="spacing" textLength="85" x="70" y="296.9561">web代码仓库</text><rect fill="#FEFECE" filter="url(#f1o50a71g4nuvf)" height="30.2969" style="stroke:#A80036;stroke-width:1.5;" width="98" x="176" y="53"/><text fill="#000000" font-family="sans-serif" font-size="14" lengthAdjust="spacing" textLength="84" x="183" y="72.9951">前端发布系统</text><rect fill="#FEFECE" filter="url(#f1o50a71g4nuvf)" height="30.2969" style="stroke:#A80036;stroke-width:1.5;" width="98" x="176" y="276.9609"/><text fill="#000000" font-family="sans-serif" font-size="14" lengthAdjust="spacing" textLength="84" x="183" y="296.9561">前端发布系统</text><rect fill="#FEFECE" filter="url(#f1o50a71g4nuvf)" height="30.2969" style="stroke:#A80036;stroke-width:1.5;" width="106" x="288" y="53"/><text fill="#000000" font-family="sans-serif" font-size="14" lengthAdjust="spacing" textLength="92" x="295" y="72.9951">node代码仓库</text><rect fill="#FEFECE" filter="url(#f1o50a71g4nuvf)" height="30.2969" style="stroke:#A80036;stroke-width:1.5;" width="106" x="288" y="276.9609"/><text fill="#000000" font-family="sans-serif" font-size="14" lengthAdjust="spacing" textLength="92" x="295" y="296.9561">node代码仓库</text><rect fill="#FEFECE" filter="url(#f1o50a71g4nuvf)" height="30.2969" style="stroke:#A80036;stroke-width:1.5;" width="118" x="408" y="53"/><text fill="#000000" font-family="sans-serif" font-size="14" lengthAdjust="spacing" textLength="104" x="415" y="72.9951">docker发布系统</text><rect fill="#FEFECE" filter="url(#f1o50a71g4nuvf)" height="30.2969" style="stroke:#A80036;stroke-width:1.5;" width="118" x="408" y="276.9609"/><text fill="#000000" font-family="sans-serif" font-size="14" lengthAdjust="spacing" textLength="104" x="415" y="296.9561">docker发布系统</text><rect fill="#FFFFFF" filter="url(#f1o50a71g4nuvf)" height="170.6641" style="stroke:#A80036;stroke-width:1.0;" width="10" x="24" y="98.2969"/><rect fill="#FFFFFF" filter="url(#f1o50a71g4nuvf)" height="29.1328" style="stroke:#A80036;stroke-width:1.0;" width="10" x="338" y="162.5625"/><rect fill="#FFFFFF" filter="url(#f1o50a71g4nuvf)" height="48.1328" style="stroke:#A80036;stroke-width:1.0;" width="10" x="464" y="220.8281"/><rect fill="#EEEEEE" filter="url(#f1o50a71g4nuvf)" height="3" style="stroke:#EEEEEE;stroke-width:1.0;" width="564" x="0" y="118.8633"/><line style="stroke:#000000;stroke-width:1.0;" x1="0" x2="564" y1="118.8633" y2="118.8633"/><line style="stroke:#000000;stroke-width:1.0;" x1="0" x2="564" y1="121.8633" y2="121.8633"/><rect fill="#EEEEEE" filter="url(#f1o50a71g4nuvf)" height="23.1328" style="stroke:#000000;stroke-width:2.0;" width="112" x="226" y="108.2969"/><text fill="#000000" font-family="sans-serif" font-size="13" font-weight="bold" lengthAdjust="spacing" textLength="93" x="232" y="124.3638">node研发流程</text><polygon fill="#A80036" points="326,158.5625,336,162.5625,326,166.5625,330,162.5625" style="stroke:#A80036;stroke-width:1.0;"/><line style="stroke:#A80036;stroke-width:1.0;" x1="34" x2="332" y1="162.5625" y2="162.5625"/><text fill="#000000" font-family="sans-serif" font-size="13" lengthAdjust="spacing" textLength="117" x="41" y="157.4966">提交代码到功能分支</text><polygon fill="#A80036" points="45,187.6953,35,191.6953,45,195.6953,41,191.6953" style="stroke:#A80036;stroke-width:1.0;"/><line style="stroke:#A80036;stroke-width:1.0;stroke-dasharray:2.0,2.0;" x1="39" x2="342" y1="191.6953" y2="191.6953"/><text fill="#000000" font-family="sans-serif" font-size="13" lengthAdjust="spacing" textLength="52" x="51" y="186.6294">功能分支</text><polygon fill="#A80036" points="452,216.8281,462,220.8281,452,224.8281,456,220.8281" style="stroke:#A80036;stroke-width:1.0;"/><line style="stroke:#A80036;stroke-width:1.0;" x1="34" x2="458" y1="220.8281" y2="220.8281"/><text fill="#000000" font-family="sans-serif" font-size="13" lengthAdjust="spacing" textLength="69" x="41" y="215.7622">docker发布</text><path d="M378,233.8281 L378,258.8281 L555,258.8281 L555,243.8281 L545,233.8281 L378,233.8281 " fill="#FBFB77" filter="url(#f1o50a71g4nuvf)" style="stroke:#A80036;stroke-width:1.0;"/><path d="M545,233.8281 L545,243.8281 L555,243.8281 L545,233.8281 " fill="#FBFB77" style="stroke:#A80036;stroke-width:1.0;"/><text fill="#000000" font-family="sans-serif" font-size="13" lengthAdjust="spacing" textLength="156" x="384" y="250.895">可以使用功能分支进行发布</text></g></svg>
