<?xml version="1.0" encoding="UTF-8" standalone="no"?><svg xmlns="http://www.w3.org/2000/svg" xmlns:xlink="http://www.w3.org/1999/xlink" contentScriptType="application/ecmascript" contentStyleType="text/css" height="392px" preserveAspectRatio="none" style="width:587px;height:392px;" version="1.1" viewBox="0 0 587 392" width="587px" zoomAndPan="magnify"><defs><filter height="300%" id="f15k49blvbj5yk" width="300%" x="-1" y="-1"><feGaussianBlur result="blurOut" stdDeviation="2.0"/><feColorMatrix in="blurOut" result="blurOut2" type="matrix" values="0 0 0 0 0 0 0 0 0 0 0 0 0 0 0 0 0 0 .4 0"/><feOffset dx="4.0" dy="4.0" in="blurOut2" result="blurOut3"/><feBlend in="SourceGraphic" in2="blurOut3" mode="normal"/></filter></defs><g><rect fill="#FFFFFF" filter="url(#f15k49blvbj5yk)" height="200.9297" style="stroke:#A80036;stroke-width:1.0;" width="10" x="24" y="98.2969"/><rect fill="#FFFFFF" filter="url(#f15k49blvbj5yk)" height="14" style="stroke:#A80036;stroke-width:1.0;" width="10" x="338" y="162.5625"/><rect fill="#FFFFFF" filter="url(#f15k49blvbj5yk)" height="93.5313" style="stroke:#A80036;stroke-width:1.0;" width="10" x="464" y="205.6953"/><line style="stroke:#A80036;stroke-width:1.0;stroke-dasharray:5.0,5.0;" x1="29" x2="29" y1="88.2969" y2="308.2266"/><line style="stroke:#A80036;stroke-width:1.0;stroke-dasharray:5.0,5.0;" x1="114" x2="114" y1="88.2969" y2="308.2266"/><line style="stroke:#A80036;stroke-width:1.0;stroke-dasharray:5.0,5.0;" x1="227" x2="227" y1="88.2969" y2="308.2266"/><line style="stroke:#A80036;stroke-width:1.0;stroke-dasharray:5.0,5.0;" x1="343" x2="343" y1="88.2969" y2="308.2266"/><line style="stroke:#A80036;stroke-width:1.0;stroke-dasharray:5.0,5.0;" x1="469" x2="469" y1="88.2969" y2="308.2266"/><text fill="#000000" font-family="sans-serif" font-size="14" lengthAdjust="spacing" textLength="42" x="5" y="84.9951">开发者</text><ellipse cx="29" cy="15" fill="#FEFECE" filter="url(#f15k49blvbj5yk)" rx="8" ry="8" style="stroke:#A80036;stroke-width:2.0;"/><path d="M29,23 L29,50 M16,31 L42,31 M29,50 L16,65 M29,50 L42,65 " fill="none" filter="url(#f15k49blvbj5yk)" style="stroke:#A80036;stroke-width:2.0;"/><text fill="#000000" font-family="sans-serif" font-size="14" lengthAdjust="spacing" textLength="42" x="5" y="320.2217">开发者</text><ellipse cx="29" cy="333.5234" fill="#FEFECE" filter="url(#f15k49blvbj5yk)" rx="8" ry="8" style="stroke:#A80036;stroke-width:2.0;"/><path d="M29,341.5234 L29,368.5234 M16,349.5234 L42,349.5234 M29,368.5234 L16,383.5234 M29,368.5234 L42,383.5234 " fill="none" filter="url(#f15k49blvbj5yk)" style="stroke:#A80036;stroke-width:2.0;"/><rect fill="#FEFECE" filter="url(#f15k49blvbj5yk)" height="30.2969" style="stroke:#A80036;stroke-width:1.5;" width="99" x="63" y="53"/><text fill="#000000" font-family="sans-serif" font-size="14" lengthAdjust="spacing" textLength="85" x="70" y="72.9951">web代码仓库</text><rect fill="#FEFECE" filter="url(#f15k49blvbj5yk)" height="30.2969" style="stroke:#A80036;stroke-width:1.5;" width="99" x="63" y="307.2266"/><text fill="#000000" font-family="sans-serif" font-size="14" lengthAdjust="spacing" textLength="85" x="70" y="327.2217">web代码仓库</text><rect fill="#FEFECE" filter="url(#f15k49blvbj5yk)" height="30.2969" style="stroke:#A80036;stroke-width:1.5;" width="98" x="176" y="53"/><text fill="#000000" font-family="sans-serif" font-size="14" lengthAdjust="spacing" textLength="84" x="183" y="72.9951">前端发布系统</text><rect fill="#FEFECE" filter="url(#f15k49blvbj5yk)" height="30.2969" style="stroke:#A80036;stroke-width:1.5;" width="98" x="176" y="307.2266"/><text fill="#000000" font-family="sans-serif" font-size="14" lengthAdjust="spacing" textLength="84" x="183" y="327.2217">前端发布系统</text><rect fill="#FEFECE" filter="url(#f15k49blvbj5yk)" height="30.2969" style="stroke:#A80036;stroke-width:1.5;" width="106" x="288" y="53"/><text fill="#000000" font-family="sans-serif" font-size="14" lengthAdjust="spacing" textLength="92" x="295" y="72.9951">node代码仓库</text><rect fill="#FEFECE" filter="url(#f15k49blvbj5yk)" height="30.2969" style="stroke:#A80036;stroke-width:1.5;" width="106" x="288" y="307.2266"/><text fill="#000000" font-family="sans-serif" font-size="14" lengthAdjust="spacing" textLength="92" x="295" y="327.2217">node代码仓库</text><rect fill="#FEFECE" filter="url(#f15k49blvbj5yk)" height="30.2969" style="stroke:#A80036;stroke-width:1.5;" width="118" x="408" y="53"/><text fill="#000000" font-family="sans-serif" font-size="14" lengthAdjust="spacing" textLength="104" x="415" y="72.9951">docker发布系统</text><rect fill="#FEFECE" filter="url(#f15k49blvbj5yk)" height="30.2969" style="stroke:#A80036;stroke-width:1.5;" width="118" x="408" y="307.2266"/><text fill="#000000" font-family="sans-serif" font-size="14" lengthAdjust="spacing" textLength="104" x="415" y="327.2217">docker发布系统</text><rect fill="#FFFFFF" filter="url(#f15k49blvbj5yk)" height="200.9297" style="stroke:#A80036;stroke-width:1.0;" width="10" x="24" y="98.2969"/><rect fill="#FFFFFF" filter="url(#f15k49blvbj5yk)" height="14" style="stroke:#A80036;stroke-width:1.0;" width="10" x="338" y="162.5625"/><rect fill="#FFFFFF" filter="url(#f15k49blvbj5yk)" height="93.5313" style="stroke:#A80036;stroke-width:1.0;" width="10" x="464" y="205.6953"/><rect fill="#EEEEEE" filter="url(#f15k49blvbj5yk)" height="3" style="stroke:#EEEEEE;stroke-width:1.0;" width="580" x="0" y="118.8633"/><line style="stroke:#000000;stroke-width:1.0;" x1="0" x2="580" y1="118.8633" y2="118.8633"/><line style="stroke:#000000;stroke-width:1.0;" x1="0" x2="580" y1="121.8633" y2="121.8633"/><rect fill="#EEEEEE" filter="url(#f15k49blvbj5yk)" height="23.1328" style="stroke:#000000;stroke-width:2.0;" width="75" x="252.5" y="108.2969"/><text fill="#000000" font-family="sans-serif" font-size="13" font-weight="bold" lengthAdjust="spacing" textLength="56" x="258.5" y="124.3638">配置流程</text><polygon fill="#A80036" points="326,158.5625,336,162.5625,326,166.5625,330,162.5625" style="stroke:#A80036;stroke-width:1.0;"/><line style="stroke:#A80036;stroke-width:1.0;" x1="34" x2="332" y1="162.5625" y2="162.5625"/><text fill="#000000" font-family="sans-serif" font-size="13" lengthAdjust="spacing" textLength="117" x="41" y="157.4966">创建仓库和功能分支</text><polygon fill="#A80036" points="45,172.5625,35,176.5625,45,180.5625,41,176.5625" style="stroke:#A80036;stroke-width:1.0;"/><line style="stroke:#A80036;stroke-width:1.0;stroke-dasharray:2.0,2.0;" x1="39" x2="342" y1="176.5625" y2="176.5625"/><polygon fill="#A80036" points="452,201.6953,462,205.6953,452,209.6953,456,205.6953" style="stroke:#A80036;stroke-width:1.0;"/><line style="stroke:#A80036;stroke-width:1.0;" x1="34" x2="458" y1="205.6953" y2="205.6953"/><text fill="#000000" font-family="sans-serif" font-size="13" lengthAdjust="spacing" textLength="147" x="41" y="200.6294">创建docker发布系统配置</text><path d="M363,218.6953 L363,288.6953 L571,288.6953 L571,228.6953 L561,218.6953 L363,218.6953 " fill="#FBFB77" filter="url(#f15k49blvbj5yk)" style="stroke:#A80036;stroke-width:1.0;"/><path d="M561,218.6953 L561,228.6953 L571,228.6953 L561,218.6953 " fill="#FBFB77" style="stroke:#A80036;stroke-width:1.0;"/><text fill="#000000" font-family="sans-serif" font-size="13" lengthAdjust="spacing" textLength="26" x="369" y="235.7622">填入</text><text fill="#000000" font-family="sans-serif" font-size="13" lengthAdjust="spacing" textLength="187" x="369" y="250.895">1、urlPath（docker唯一标识）</text><text fill="#000000" font-family="sans-serif" font-size="13" lengthAdjust="spacing" textLength="99" x="369" y="266.0278">2、代码仓库地址</text><text fill="#000000" font-family="sans-serif" font-size="13" lengthAdjust="spacing" textLength="73" x="369" y="281.1606">3、分支名称</text></g></svg>
