<?xml version="1.0" encoding="UTF-8" standalone="no"?><svg xmlns="http://www.w3.org/2000/svg" xmlns:xlink="http://www.w3.org/1999/xlink" contentScriptType="application/ecmascript" contentStyleType="text/css" height="861px" preserveAspectRatio="none" style="width:1010px;height:861px;" version="1.1" viewBox="0 0 1010 861" width="1010px" zoomAndPan="magnify"><defs><filter height="300%" id="f1tv5jd3jjyiyl" width="300%" x="-1" y="-1"><feGaussianBlur result="blurOut" stdDeviation="2.0"/><feColorMatrix in="blurOut" result="blurOut2" type="matrix" values="0 0 0 0 0 0 0 0 0 0 0 0 0 0 0 0 0 0 .4 0"/><feOffset dx="4.0" dy="4.0" in="blurOut2" result="blurOut3"/><feBlend in="SourceGraphic" in2="blurOut3" mode="normal"/></filter></defs><g><rect fill="#FFFFFF" filter="url(#f1tv5jd3jjyiyl)" height="271.0625" style="stroke:#FFFFFF;stroke-width:1.0;" width="10" x="24" y="98.2969"/><line style="stroke:#A80036;stroke-width:1.0;" x1="24" x2="24" y1="98.2969" y2="369.3594"/><line style="stroke:#A80036;stroke-width:1.0;" x1="34" x2="34" y1="98.2969" y2="369.3594"/><line style="stroke:#A80036;stroke-width:1.0;" x1="24" x2="34" y1="98.2969" y2="98.2969"/><rect fill="#FFFFFF" filter="url(#f1tv5jd3jjyiyl)" height="172.6641" style="stroke:#FFFFFF;stroke-width:1.0;" width="10" x="24" y="397.3594"/><line style="stroke:#A80036;stroke-width:1.0;" x1="24" x2="24" y1="397.3594" y2="570.0234"/><line style="stroke:#A80036;stroke-width:1.0;" x1="34" x2="34" y1="397.3594" y2="570.0234"/><rect fill="#FFFFFF" filter="url(#f1tv5jd3jjyiyl)" height="170.6641" style="stroke:#FFFFFF;stroke-width:1.0;" width="10" x="24" y="598.0234"/><line style="stroke:#A80036;stroke-width:1.0;" x1="24" x2="24" y1="598.0234" y2="768.6875"/><line style="stroke:#A80036;stroke-width:1.0;" x1="34" x2="34" y1="598.0234" y2="768.6875"/><rect fill="#FFFFFF" filter="url(#f1tv5jd3jjyiyl)" height="29.1328" style="stroke:#A80036;stroke-width:1.0;" width="10" x="170" y="162.5625"/><rect fill="#FFFFFF" filter="url(#f1tv5jd3jjyiyl)" height="29.1328" style="stroke:#A80036;stroke-width:1.0;" width="10" x="170" y="461.625"/><rect fill="#FFFFFF" filter="url(#f1tv5jd3jjyiyl)" height="29.1328" style="stroke:#A80036;stroke-width:1.0;" width="10" x="286.5" y="249.9609"/><rect fill="#FFFFFF" filter="url(#f1tv5jd3jjyiyl)" height="29.1328" style="stroke:#A80036;stroke-width:1.0;" width="10" x="286.5" y="662.2891"/><rect fill="#FFFFFF" filter="url(#f1tv5jd3jjyiyl)" height="29.1328" style="stroke:#A80036;stroke-width:1.0;" width="10" x="530.5" y="191.6953"/><rect fill="#FFFFFF" filter="url(#f1tv5jd3jjyiyl)" height="29.1328" style="stroke:#A80036;stroke-width:1.0;" width="10" x="530.5" y="490.7578"/><rect fill="#FFFFFF" filter="url(#f1tv5jd3jjyiyl)" height="50.1328" style="stroke:#FFFFFF;stroke-width:1.0;" width="10" x="780.5" y="519.8906"/><line style="stroke:#A80036;stroke-width:1.0;" x1="780.5" x2="780.5" y1="519.8906" y2="570.0234"/><line style="stroke:#A80036;stroke-width:1.0;" x1="790.5" x2="790.5" y1="519.8906" y2="570.0234"/><line style="stroke:#A80036;stroke-width:1.0;" x1="780.5" x2="790.5" y1="519.8906" y2="519.8906"/><rect fill="#FFFFFF" filter="url(#f1tv5jd3jjyiyl)" height="170.6641" style="stroke:#FFFFFF;stroke-width:1.0;" width="10" x="780.5" y="598.0234"/><line style="stroke:#A80036;stroke-width:1.0;" x1="780.5" x2="780.5" y1="598.0234" y2="768.6875"/><line style="stroke:#A80036;stroke-width:1.0;" x1="790.5" x2="790.5" y1="598.0234" y2="768.6875"/><rect fill="#FFFFFF" filter="url(#f1tv5jd3jjyiyl)" height="53.1328" style="stroke:#A80036;stroke-width:1.0;" width="10" x="902.5" y="308.2266"/><rect fill="#FFFFFF" filter="url(#f1tv5jd3jjyiyl)" height="48.1328" style="stroke:#A80036;stroke-width:1.0;" width="10" x="902.5" y="720.5547"/><line style="stroke:#A80036;stroke-width:1.0;" x1="29" x2="29" y1="88.2969" y2="369.3594"/><line style="stroke:#A80036;stroke-width:1.0;stroke-dasharray:1.0,4.0;" x1="29" x2="29" y1="369.3594" y2="397.3594"/><line style="stroke:#A80036;stroke-width:1.0;" x1="29" x2="29" y1="397.3594" y2="570.0234"/><line style="stroke:#A80036;stroke-width:1.0;stroke-dasharray:1.0,4.0;" x1="29" x2="29" y1="570.0234" y2="598.0234"/><line style="stroke:#A80036;stroke-width:1.0;" x1="29" x2="29" y1="598.0234" y2="777.6875"/><line style="stroke:#A80036;stroke-width:1.0;" x1="174.5" x2="174.5" y1="88.2969" y2="369.3594"/><line style="stroke:#A80036;stroke-width:1.0;stroke-dasharray:1.0,4.0;" x1="174.5" x2="174.5" y1="369.3594" y2="397.3594"/><line style="stroke:#A80036;stroke-width:1.0;" x1="174.5" x2="174.5" y1="397.3594" y2="570.0234"/><line style="stroke:#A80036;stroke-width:1.0;stroke-dasharray:1.0,4.0;" x1="174.5" x2="174.5" y1="570.0234" y2="598.0234"/><line style="stroke:#A80036;stroke-width:1.0;" x1="174.5" x2="174.5" y1="598.0234" y2="777.6875"/><line style="stroke:#A80036;stroke-width:1.0;" x1="291.5" x2="291.5" y1="88.2969" y2="369.3594"/><line style="stroke:#A80036;stroke-width:1.0;stroke-dasharray:1.0,4.0;" x1="291.5" x2="291.5" y1="369.3594" y2="397.3594"/><line style="stroke:#A80036;stroke-width:1.0;" x1="291.5" x2="291.5" y1="397.3594" y2="570.0234"/><line style="stroke:#A80036;stroke-width:1.0;stroke-dasharray:1.0,4.0;" x1="291.5" x2="291.5" y1="570.0234" y2="598.0234"/><line style="stroke:#A80036;stroke-width:1.0;" x1="291.5" x2="291.5" y1="598.0234" y2="777.6875"/><line style="stroke:#A80036;stroke-width:1.0;" x1="415.5" x2="415.5" y1="88.2969" y2="369.3594"/><line style="stroke:#A80036;stroke-width:1.0;stroke-dasharray:1.0,4.0;" x1="415.5" x2="415.5" y1="369.3594" y2="397.3594"/><line style="stroke:#A80036;stroke-width:1.0;" x1="415.5" x2="415.5" y1="397.3594" y2="570.0234"/><line style="stroke:#A80036;stroke-width:1.0;stroke-dasharray:1.0,4.0;" x1="415.5" x2="415.5" y1="570.0234" y2="598.0234"/><line style="stroke:#A80036;stroke-width:1.0;" x1="415.5" x2="415.5" y1="598.0234" y2="777.6875"/><line style="stroke:#A80036;stroke-width:1.0;" x1="535.5" x2="535.5" y1="88.2969" y2="369.3594"/><line style="stroke:#A80036;stroke-width:1.0;stroke-dasharray:1.0,4.0;" x1="535.5" x2="535.5" y1="369.3594" y2="397.3594"/><line style="stroke:#A80036;stroke-width:1.0;" x1="535.5" x2="535.5" y1="397.3594" y2="570.0234"/><line style="stroke:#A80036;stroke-width:1.0;stroke-dasharray:1.0,4.0;" x1="535.5" x2="535.5" y1="570.0234" y2="598.0234"/><line style="stroke:#A80036;stroke-width:1.0;" x1="535.5" x2="535.5" y1="598.0234" y2="777.6875"/><line style="stroke:#A80036;stroke-width:1.0;" x1="785.5" x2="785.5" y1="88.2969" y2="369.3594"/><line style="stroke:#A80036;stroke-width:1.0;stroke-dasharray:1.0,4.0;" x1="785.5" x2="785.5" y1="369.3594" y2="397.3594"/><line style="stroke:#A80036;stroke-width:1.0;" x1="785.5" x2="785.5" y1="397.3594" y2="570.0234"/><line style="stroke:#A80036;stroke-width:1.0;stroke-dasharray:1.0,4.0;" x1="785.5" x2="785.5" y1="570.0234" y2="598.0234"/><line style="stroke:#A80036;stroke-width:1.0;" x1="785.5" x2="785.5" y1="598.0234" y2="777.6875"/><line style="stroke:#A80036;stroke-width:1.0;" x1="907.5" x2="907.5" y1="88.2969" y2="369.3594"/><line style="stroke:#A80036;stroke-width:1.0;stroke-dasharray:1.0,4.0;" x1="907.5" x2="907.5" y1="369.3594" y2="397.3594"/><line style="stroke:#A80036;stroke-width:1.0;" x1="907.5" x2="907.5" y1="397.3594" y2="570.0234"/><line style="stroke:#A80036;stroke-width:1.0;stroke-dasharray:1.0,4.0;" x1="907.5" x2="907.5" y1="570.0234" y2="598.0234"/><line style="stroke:#A80036;stroke-width:1.0;" x1="907.5" x2="907.5" y1="598.0234" y2="777.6875"/><text fill="#000000" font-family="sans-serif" font-size="14" lengthAdjust="spacing" textLength="42" x="5" y="84.9951">开发者</text><ellipse cx="29" cy="15" fill="#FEFECE" filter="url(#f1tv5jd3jjyiyl)" rx="8" ry="8" style="stroke:#A80036;stroke-width:2.0;"/><path d="M29,23 L29,50 M16,31 L42,31 M29,50 L16,65 M29,50 L42,65 " fill="none" filter="url(#f1tv5jd3jjyiyl)" style="stroke:#A80036;stroke-width:2.0;"/><text fill="#000000" font-family="sans-serif" font-size="14" lengthAdjust="spacing" textLength="42" x="5" y="789.6826">开发者</text><ellipse cx="29" cy="802.9844" fill="#FEFECE" filter="url(#f1tv5jd3jjyiyl)" rx="8" ry="8" style="stroke:#A80036;stroke-width:2.0;"/><path d="M29,810.9844 L29,837.9844 M16,818.9844 L42,818.9844 M29,837.9844 L16,852.9844 M29,837.9844 L42,852.9844 " fill="none" filter="url(#f1tv5jd3jjyiyl)" style="stroke:#A80036;stroke-width:2.0;"/><rect fill="#FEFECE" filter="url(#f1tv5jd3jjyiyl)" height="30.2969" style="stroke:#A80036;stroke-width:1.5;" width="99" x="123.5" y="53"/><text fill="#000000" font-family="sans-serif" font-size="14" lengthAdjust="spacing" textLength="85" x="130.5" y="72.9951">web代码仓库</text><rect fill="#FEFECE" filter="url(#f1tv5jd3jjyiyl)" height="30.2969" style="stroke:#A80036;stroke-width:1.5;" width="99" x="123.5" y="776.6875"/><text fill="#000000" font-family="sans-serif" font-size="14" lengthAdjust="spacing" textLength="85" x="130.5" y="796.6826">web代码仓库</text><rect fill="#FEFECE" filter="url(#f1tv5jd3jjyiyl)" height="30.2969" style="stroke:#A80036;stroke-width:1.5;" width="106" x="236.5" y="53"/><text fill="#000000" font-family="sans-serif" font-size="14" lengthAdjust="spacing" textLength="92" x="243.5" y="72.9951">node代码仓库</text><rect fill="#FEFECE" filter="url(#f1tv5jd3jjyiyl)" height="30.2969" style="stroke:#A80036;stroke-width:1.5;" width="106" x="236.5" y="776.6875"/><text fill="#000000" font-family="sans-serif" font-size="14" lengthAdjust="spacing" textLength="92" x="243.5" y="796.6826">node代码仓库</text><rect fill="#FEFECE" filter="url(#f1tv5jd3jjyiyl)" height="30.2969" style="stroke:#A80036;stroke-width:1.5;" width="114" x="356.5" y="53"/><text fill="#000000" font-family="sans-serif" font-size="14" lengthAdjust="spacing" textLength="100" x="363.5" y="72.9951">static/html仓库</text><rect fill="#FEFECE" filter="url(#f1tv5jd3jjyiyl)" height="30.2969" style="stroke:#A80036;stroke-width:1.5;" width="114" x="356.5" y="776.6875"/><text fill="#000000" font-family="sans-serif" font-size="14" lengthAdjust="spacing" textLength="100" x="363.5" y="796.6826">static/html仓库</text><rect fill="#FEFECE" filter="url(#f1tv5jd3jjyiyl)" height="30.2969" style="stroke:#A80036;stroke-width:1.5;" width="98" x="484.5" y="53"/><text fill="#000000" font-family="sans-serif" font-size="14" lengthAdjust="spacing" textLength="84" x="491.5" y="72.9951">前端发布系统</text><rect fill="#FEFECE" filter="url(#f1tv5jd3jjyiyl)" height="30.2969" style="stroke:#A80036;stroke-width:1.5;" width="98" x="484.5" y="776.6875"/><text fill="#000000" font-family="sans-serif" font-size="14" lengthAdjust="spacing" textLength="84" x="491.5" y="796.6826">前端发布系统</text><rect fill="#FEFECE" filter="url(#f1tv5jd3jjyiyl)" height="30.2969" style="stroke:#A80036;stroke-width:1.5;" width="98" x="734.5" y="53"/><text fill="#000000" font-family="sans-serif" font-size="14" lengthAdjust="spacing" textLength="84" x="741.5" y="72.9951">页面配置中心</text><rect fill="#FEFECE" filter="url(#f1tv5jd3jjyiyl)" height="30.2969" style="stroke:#A80036;stroke-width:1.5;" width="98" x="734.5" y="776.6875"/><text fill="#000000" font-family="sans-serif" font-size="14" lengthAdjust="spacing" textLength="84" x="741.5" y="796.6826">页面配置中心</text><rect fill="#FEFECE" filter="url(#f1tv5jd3jjyiyl)" height="30.2969" style="stroke:#A80036;stroke-width:1.5;" width="118" x="846.5" y="53"/><text fill="#000000" font-family="sans-serif" font-size="14" lengthAdjust="spacing" textLength="104" x="853.5" y="72.9951">docker发布系统</text><rect fill="#FEFECE" filter="url(#f1tv5jd3jjyiyl)" height="30.2969" style="stroke:#A80036;stroke-width:1.5;" width="118" x="846.5" y="776.6875"/><text fill="#000000" font-family="sans-serif" font-size="14" lengthAdjust="spacing" textLength="104" x="853.5" y="796.6826">docker发布系统</text><rect fill="#FFFFFF" filter="url(#f1tv5jd3jjyiyl)" height="271.0625" style="stroke:#FFFFFF;stroke-width:1.0;" width="10" x="24" y="98.2969"/><line style="stroke:#A80036;stroke-width:1.0;" x1="24" x2="24" y1="98.2969" y2="369.3594"/><line style="stroke:#A80036;stroke-width:1.0;" x1="34" x2="34" y1="98.2969" y2="369.3594"/><line style="stroke:#A80036;stroke-width:1.0;" x1="24" x2="34" y1="98.2969" y2="98.2969"/><rect fill="#FFFFFF" filter="url(#f1tv5jd3jjyiyl)" height="172.6641" style="stroke:#FFFFFF;stroke-width:1.0;" width="10" x="24" y="397.3594"/><line style="stroke:#A80036;stroke-width:1.0;" x1="24" x2="24" y1="397.3594" y2="570.0234"/><line style="stroke:#A80036;stroke-width:1.0;" x1="34" x2="34" y1="397.3594" y2="570.0234"/><rect fill="#FFFFFF" filter="url(#f1tv5jd3jjyiyl)" height="170.6641" style="stroke:#FFFFFF;stroke-width:1.0;" width="10" x="24" y="598.0234"/><line style="stroke:#A80036;stroke-width:1.0;" x1="24" x2="24" y1="598.0234" y2="768.6875"/><line style="stroke:#A80036;stroke-width:1.0;" x1="34" x2="34" y1="598.0234" y2="768.6875"/><rect fill="#FFFFFF" filter="url(#f1tv5jd3jjyiyl)" height="29.1328" style="stroke:#A80036;stroke-width:1.0;" width="10" x="170" y="162.5625"/><rect fill="#FFFFFF" filter="url(#f1tv5jd3jjyiyl)" height="29.1328" style="stroke:#A80036;stroke-width:1.0;" width="10" x="170" y="461.625"/><rect fill="#FFFFFF" filter="url(#f1tv5jd3jjyiyl)" height="29.1328" style="stroke:#A80036;stroke-width:1.0;" width="10" x="286.5" y="249.9609"/><rect fill="#FFFFFF" filter="url(#f1tv5jd3jjyiyl)" height="29.1328" style="stroke:#A80036;stroke-width:1.0;" width="10" x="286.5" y="662.2891"/><rect fill="#FFFFFF" filter="url(#f1tv5jd3jjyiyl)" height="29.1328" style="stroke:#A80036;stroke-width:1.0;" width="10" x="530.5" y="191.6953"/><rect fill="#FFFFFF" filter="url(#f1tv5jd3jjyiyl)" height="29.1328" style="stroke:#A80036;stroke-width:1.0;" width="10" x="530.5" y="490.7578"/><rect fill="#FFFFFF" filter="url(#f1tv5jd3jjyiyl)" height="50.1328" style="stroke:#FFFFFF;stroke-width:1.0;" width="10" x="780.5" y="519.8906"/><line style="stroke:#A80036;stroke-width:1.0;" x1="780.5" x2="780.5" y1="519.8906" y2="570.0234"/><line style="stroke:#A80036;stroke-width:1.0;" x1="790.5" x2="790.5" y1="519.8906" y2="570.0234"/><line style="stroke:#A80036;stroke-width:1.0;" x1="780.5" x2="790.5" y1="519.8906" y2="519.8906"/><rect fill="#FFFFFF" filter="url(#f1tv5jd3jjyiyl)" height="170.6641" style="stroke:#FFFFFF;stroke-width:1.0;" width="10" x="780.5" y="598.0234"/><line style="stroke:#A80036;stroke-width:1.0;" x1="780.5" x2="780.5" y1="598.0234" y2="768.6875"/><line style="stroke:#A80036;stroke-width:1.0;" x1="790.5" x2="790.5" y1="598.0234" y2="768.6875"/><rect fill="#FFFFFF" filter="url(#f1tv5jd3jjyiyl)" height="53.1328" style="stroke:#A80036;stroke-width:1.0;" width="10" x="902.5" y="308.2266"/><rect fill="#FFFFFF" filter="url(#f1tv5jd3jjyiyl)" height="48.1328" style="stroke:#A80036;stroke-width:1.0;" width="10" x="902.5" y="720.5547"/><rect fill="#EEEEEE" filter="url(#f1tv5jd3jjyiyl)" height="3" style="stroke:#EEEEEE;stroke-width:1.0;" width="1003" x="0" y="118.8633"/><line style="stroke:#000000;stroke-width:1.0;" x1="0" x2="1003" y1="118.8633" y2="118.8633"/><line style="stroke:#000000;stroke-width:1.0;" x1="0" x2="1003" y1="121.8633" y2="121.8633"/><rect fill="#EEEEEE" filter="url(#f1tv5jd3jjyiyl)" height="23.1328" style="stroke:#000000;stroke-width:2.0;" width="106" x="448.5" y="108.2969"/><text fill="#000000" font-family="sans-serif" font-size="13" font-weight="bold" lengthAdjust="spacing" textLength="87" x="454.5" y="124.3638">web研发流程</text><polygon fill="#A80036" points="158,158.5625,168,162.5625,158,166.5625,162,162.5625" style="stroke:#A80036;stroke-width:1.0;"/><line style="stroke:#A80036;stroke-width:1.0;" x1="34" x2="164" y1="162.5625" y2="162.5625"/><text fill="#000000" font-family="sans-serif" font-size="13" lengthAdjust="spacing" textLength="117" x="41" y="157.4966">提交代码到功能分支</text><polygon fill="#A80036" points="518.5,187.6953,528.5,191.6953,518.5,195.6953,522.5,191.6953" style="stroke:#A80036;stroke-width:1.0;"/><line style="stroke:#A80036;stroke-width:1.0;" x1="175" x2="524.5" y1="191.6953" y2="191.6953"/><text fill="#000000" font-family="sans-serif" font-size="13" lengthAdjust="spacing" textLength="26" x="182" y="186.6294">发布</text><polygon fill="#A80036" points="45,216.8281,35,220.8281,45,224.8281,41,220.8281" style="stroke:#A80036;stroke-width:1.0;"/><line style="stroke:#A80036;stroke-width:1.0;stroke-dasharray:2.0,2.0;" x1="39" x2="534.5" y1="220.8281" y2="220.8281"/><text fill="#000000" font-family="sans-serif" font-size="13" lengthAdjust="spacing" textLength="52" x="51" y="215.7622">下载页面</text><polygon fill="#A80036" points="274.5,245.9609,284.5,249.9609,274.5,253.9609,278.5,249.9609" style="stroke:#A80036;stroke-width:1.0;"/><line style="stroke:#A80036;stroke-width:1.0;" x1="34" x2="280.5" y1="249.9609" y2="249.9609"/><text fill="#FF0000" font-family="sans-serif" font-size="13" font-weight="bold" lengthAdjust="spacing" textLength="126" x="41" y="244.895">提交页面到功能分支</text><polygon fill="#A80036" points="45,275.0938,35,279.0938,45,283.0938,41,279.0938" style="stroke:#A80036;stroke-width:1.0;"/><line style="stroke:#A80036;stroke-width:1.0;stroke-dasharray:2.0,2.0;" x1="39" x2="290.5" y1="279.0938" y2="279.0938"/><text fill="#000000" font-family="sans-serif" font-size="13" lengthAdjust="spacing" textLength="52" x="51" y="274.0278">功能分支</text><polygon fill="#A80036" points="890.5,304.2266,900.5,308.2266,890.5,312.2266,894.5,308.2266" style="stroke:#A80036;stroke-width:1.0;"/><line style="stroke:#A80036;stroke-width:1.0;" x1="34" x2="896.5" y1="308.2266" y2="308.2266"/><text fill="#000000" font-family="sans-serif" font-size="13" lengthAdjust="spacing" textLength="52" x="41" y="303.1606">功能分支</text><path d="M847,321.2266 L847,346.2266 L963,346.2266 L963,331.2266 L953,321.2266 L847,321.2266 " fill="#FBFB77" filter="url(#f1tv5jd3jjyiyl)" style="stroke:#A80036;stroke-width:1.0;"/><path d="M953,321.2266 L953,331.2266 L963,331.2266 L953,321.2266 " fill="#FBFB77" style="stroke:#A80036;stroke-width:1.0;"/><text fill="#000000" font-family="sans-serif" font-size="13" lengthAdjust="spacing" textLength="95" x="853" y="338.2935">docker包含页面</text><polygon fill="#A80036" points="45,357.3594,35,361.3594,45,365.3594,41,361.3594" style="stroke:#A80036;stroke-width:1.0;"/><line style="stroke:#A80036;stroke-width:1.0;stroke-dasharray:2.0,2.0;" x1="39" x2="906.5" y1="361.3594" y2="361.3594"/><rect fill="#EEEEEE" filter="url(#f1tv5jd3jjyiyl)" height="3" style="stroke:#EEEEEE;stroke-width:1.0;" width="1003" x="0" y="417.9258"/><line style="stroke:#000000;stroke-width:1.0;" x1="0" x2="1003" y1="417.9258" y2="417.9258"/><line style="stroke:#000000;stroke-width:1.0;" x1="0" x2="1003" y1="420.9258" y2="420.9258"/><rect fill="#EEEEEE" filter="url(#f1tv5jd3jjyiyl)" height="23.1328" style="stroke:#000000;stroke-width:2.0;" width="218" x="392.5" y="407.3594"/><text fill="#000000" font-family="sans-serif" font-size="13" font-weight="bold" lengthAdjust="spacing" textLength="199" x="398.5" y="423.4263">web研发流程（页面配置中心）</text><polygon fill="#A80036" points="158,457.625,168,461.625,158,465.625,162,461.625" style="stroke:#A80036;stroke-width:1.0;"/><line style="stroke:#A80036;stroke-width:1.0;" x1="34" x2="164" y1="461.625" y2="461.625"/><text fill="#000000" font-family="sans-serif" font-size="13" lengthAdjust="spacing" textLength="117" x="41" y="456.5591">提交代码到功能分支</text><polygon fill="#A80036" points="518.5,486.7578,528.5,490.7578,518.5,494.7578,522.5,490.7578" style="stroke:#A80036;stroke-width:1.0;"/><line style="stroke:#A80036;stroke-width:1.0;" x1="175" x2="524.5" y1="490.7578" y2="490.7578"/><text fill="#000000" font-family="sans-serif" font-size="13" lengthAdjust="spacing" textLength="26" x="182" y="485.6919">发布</text><polygon fill="#A80036" points="768.5,515.8906,778.5,519.8906,768.5,523.8906,772.5,519.8906" style="stroke:#A80036;stroke-width:1.0;"/><line style="stroke:#A80036;stroke-width:1.0;" x1="535.5" x2="774.5" y1="519.8906" y2="519.8906"/><text fill="#000000" font-family="sans-serif" font-size="13" lengthAdjust="spacing" textLength="221" x="542.5" y="514.8247">新增版本到配置中心（无需代码管理）</text><line style="stroke:#A80036;stroke-width:1.0;" x1="790.5" x2="832.5" y1="549.0234" y2="549.0234"/><line style="stroke:#A80036;stroke-width:1.0;" x1="832.5" x2="832.5" y1="549.0234" y2="562.0234"/><line style="stroke:#A80036;stroke-width:1.0;" x1="791.5" x2="832.5" y1="562.0234" y2="562.0234"/><polygon fill="#A80036" points="801.5,558.0234,791.5,562.0234,801.5,566.0234,797.5,562.0234" style="stroke:#A80036;stroke-width:1.0;"/><text fill="#000000" font-family="sans-serif" font-size="13" lengthAdjust="spacing" textLength="65" x="797.5" y="543.9575">发布和回滚</text><rect fill="#EEEEEE" filter="url(#f1tv5jd3jjyiyl)" height="3" style="stroke:#EEEEEE;stroke-width:1.0;" width="1003" x="0" y="618.5898"/><line style="stroke:#000000;stroke-width:1.0;" x1="0" x2="1003" y1="618.5898" y2="618.5898"/><line style="stroke:#000000;stroke-width:1.0;" x1="0" x2="1003" y1="621.5898" y2="621.5898"/><rect fill="#EEEEEE" filter="url(#f1tv5jd3jjyiyl)" height="23.1328" style="stroke:#000000;stroke-width:2.0;" width="112" x="445.5" y="608.0234"/><text fill="#000000" font-family="sans-serif" font-size="13" font-weight="bold" lengthAdjust="spacing" textLength="93" x="451.5" y="624.0903">node研发流程</text><polygon fill="#A80036" points="274.5,658.2891,284.5,662.2891,274.5,666.2891,278.5,662.2891" style="stroke:#A80036;stroke-width:1.0;"/><line style="stroke:#A80036;stroke-width:1.0;" x1="34" x2="280.5" y1="662.2891" y2="662.2891"/><text fill="#000000" font-family="sans-serif" font-size="13" lengthAdjust="spacing" textLength="117" x="41" y="657.2231">提交代码到功能分支</text><polygon fill="#A80036" points="45,687.4219,35,691.4219,45,695.4219,41,691.4219" style="stroke:#A80036;stroke-width:1.0;"/><line style="stroke:#A80036;stroke-width:1.0;stroke-dasharray:2.0,2.0;" x1="39" x2="290.5" y1="691.4219" y2="691.4219"/><text fill="#000000" font-family="sans-serif" font-size="13" lengthAdjust="spacing" textLength="52" x="51" y="686.356">功能分支</text><polygon fill="#A80036" points="890.5,716.5547,900.5,720.5547,890.5,724.5547,894.5,720.5547" style="stroke:#A80036;stroke-width:1.0;"/><line style="stroke:#A80036;stroke-width:1.0;" x1="34" x2="896.5" y1="720.5547" y2="720.5547"/><text fill="#000000" font-family="sans-serif" font-size="13" lengthAdjust="spacing" textLength="69" x="41" y="715.4888">docker发布</text><path d="M817,733.5547 L817,758.5547 L994,758.5547 L994,743.5547 L984,733.5547 L817,733.5547 " fill="#FBFB77" filter="url(#f1tv5jd3jjyiyl)" style="stroke:#A80036;stroke-width:1.0;"/><path d="M984,733.5547 L984,743.5547 L994,743.5547 L984,733.5547 " fill="#FBFB77" style="stroke:#A80036;stroke-width:1.0;"/><text fill="#000000" font-family="sans-serif" font-size="13" lengthAdjust="spacing" textLength="156" x="823" y="750.6216">可以使用功能分支进行发布</text></g></svg>
