<?xml version="1.0" encoding="UTF-8" standalone="no"?><svg xmlns="http://www.w3.org/2000/svg" xmlns:xlink="http://www.w3.org/1999/xlink" contentScriptType="application/ecmascript" contentStyleType="text/css" height="463px" preserveAspectRatio="none" style="width:602px;height:463px;" version="1.1" viewBox="0 0 602 463" width="602px" zoomAndPan="magnify"><defs><filter height="300%" id="f1o947mdm6tlfq" width="300%" x="-1" y="-1"><feGaussianBlur result="blurOut" stdDeviation="2.0"/><feColorMatrix in="blurOut" result="blurOut2" type="matrix" values="0 0 0 0 0 0 0 0 0 0 0 0 0 0 0 0 0 0 .4 0"/><feOffset dx="4.0" dy="4.0" in="blurOut2" result="blurOut3"/><feBlend in="SourceGraphic" in2="blurOut3" mode="normal"/></filter></defs><g><rect fill="#FFFFFF" filter="url(#f1o947mdm6tlfq)" height="272.0625" style="stroke:#A80036;stroke-width:1.0;" width="10" x="24" y="98.2969"/><rect fill="#FFFFFF" filter="url(#f1o947mdm6tlfq)" height="29.1328" style="stroke:#A80036;stroke-width:1.0;" width="10" x="170" y="162.5625"/><rect fill="#FFFFFF" filter="url(#f1o947mdm6tlfq)" height="29.1328" style="stroke:#A80036;stroke-width:1.0;" width="10" x="282.5" y="191.6953"/><rect fill="#FFFFFF" filter="url(#f1o947mdm6tlfq)" height="29.1328" style="stroke:#A80036;stroke-width:1.0;" width="10" x="398.5" y="249.9609"/><rect fill="#FFFFFF" filter="url(#f1o947mdm6tlfq)" height="53.1328" style="stroke:#A80036;stroke-width:1.0;" width="10" x="524.5" y="308.2266"/><line style="stroke:#A80036;stroke-width:1.0;stroke-dasharray:5.0,5.0;" x1="29" x2="29" y1="88.2969" y2="379.3594"/><line style="stroke:#A80036;stroke-width:1.0;stroke-dasharray:5.0,5.0;" x1="174.5" x2="174.5" y1="88.2969" y2="379.3594"/><line style="stroke:#A80036;stroke-width:1.0;stroke-dasharray:5.0,5.0;" x1="287.5" x2="287.5" y1="88.2969" y2="379.3594"/><line style="stroke:#A80036;stroke-width:1.0;stroke-dasharray:5.0,5.0;" x1="403.5" x2="403.5" y1="88.2969" y2="379.3594"/><line style="stroke:#A80036;stroke-width:1.0;stroke-dasharray:5.0,5.0;" x1="529.5" x2="529.5" y1="88.2969" y2="379.3594"/><text fill="#000000" font-family="sans-serif" font-size="14" lengthAdjust="spacing" textLength="42" x="5" y="84.9951">开发者</text><ellipse cx="29" cy="15" fill="#FEFECE" filter="url(#f1o947mdm6tlfq)" rx="8" ry="8" style="stroke:#A80036;stroke-width:2.0;"/><path d="M29,23 L29,50 M16,31 L42,31 M29,50 L16,65 M29,50 L42,65 " fill="none" filter="url(#f1o947mdm6tlfq)" style="stroke:#A80036;stroke-width:2.0;"/><text fill="#000000" font-family="sans-serif" font-size="14" lengthAdjust="spacing" textLength="42" x="5" y="391.3545">开发者</text><ellipse cx="29" cy="404.6563" fill="#FEFECE" filter="url(#f1o947mdm6tlfq)" rx="8" ry="8" style="stroke:#A80036;stroke-width:2.0;"/><path d="M29,412.6563 L29,439.6563 M16,420.6563 L42,420.6563 M29,439.6563 L16,454.6563 M29,439.6563 L42,454.6563 " fill="none" filter="url(#f1o947mdm6tlfq)" style="stroke:#A80036;stroke-width:2.0;"/><rect fill="#FEFECE" filter="url(#f1o947mdm6tlfq)" height="30.2969" style="stroke:#A80036;stroke-width:1.5;" width="99" x="123.5" y="53"/><text fill="#000000" font-family="sans-serif" font-size="14" lengthAdjust="spacing" textLength="85" x="130.5" y="72.9951">web代码仓库</text><rect fill="#FEFECE" filter="url(#f1o947mdm6tlfq)" height="30.2969" style="stroke:#A80036;stroke-width:1.5;" width="99" x="123.5" y="378.3594"/><text fill="#000000" font-family="sans-serif" font-size="14" lengthAdjust="spacing" textLength="85" x="130.5" y="398.3545">web代码仓库</text><rect fill="#FEFECE" filter="url(#f1o947mdm6tlfq)" height="30.2969" style="stroke:#A80036;stroke-width:1.5;" width="98" x="236.5" y="53"/><text fill="#000000" font-family="sans-serif" font-size="14" lengthAdjust="spacing" textLength="84" x="243.5" y="72.9951">前端发布系统</text><rect fill="#FEFECE" filter="url(#f1o947mdm6tlfq)" height="30.2969" style="stroke:#A80036;stroke-width:1.5;" width="98" x="236.5" y="378.3594"/><text fill="#000000" font-family="sans-serif" font-size="14" lengthAdjust="spacing" textLength="84" x="243.5" y="398.3545">前端发布系统</text><rect fill="#FEFECE" filter="url(#f1o947mdm6tlfq)" height="30.2969" style="stroke:#A80036;stroke-width:1.5;" width="106" x="348.5" y="53"/><text fill="#000000" font-family="sans-serif" font-size="14" lengthAdjust="spacing" textLength="92" x="355.5" y="72.9951">node代码仓库</text><rect fill="#FEFECE" filter="url(#f1o947mdm6tlfq)" height="30.2969" style="stroke:#A80036;stroke-width:1.5;" width="106" x="348.5" y="378.3594"/><text fill="#000000" font-family="sans-serif" font-size="14" lengthAdjust="spacing" textLength="92" x="355.5" y="398.3545">node代码仓库</text><rect fill="#FEFECE" filter="url(#f1o947mdm6tlfq)" height="30.2969" style="stroke:#A80036;stroke-width:1.5;" width="118" x="468.5" y="53"/><text fill="#000000" font-family="sans-serif" font-size="14" lengthAdjust="spacing" textLength="104" x="475.5" y="72.9951">docker发布系统</text><rect fill="#FEFECE" filter="url(#f1o947mdm6tlfq)" height="30.2969" style="stroke:#A80036;stroke-width:1.5;" width="118" x="468.5" y="378.3594"/><text fill="#000000" font-family="sans-serif" font-size="14" lengthAdjust="spacing" textLength="104" x="475.5" y="398.3545">docker发布系统</text><rect fill="#FFFFFF" filter="url(#f1o947mdm6tlfq)" height="272.0625" style="stroke:#A80036;stroke-width:1.0;" width="10" x="24" y="98.2969"/><rect fill="#FFFFFF" filter="url(#f1o947mdm6tlfq)" height="29.1328" style="stroke:#A80036;stroke-width:1.0;" width="10" x="170" y="162.5625"/><rect fill="#FFFFFF" filter="url(#f1o947mdm6tlfq)" height="29.1328" style="stroke:#A80036;stroke-width:1.0;" width="10" x="282.5" y="191.6953"/><rect fill="#FFFFFF" filter="url(#f1o947mdm6tlfq)" height="29.1328" style="stroke:#A80036;stroke-width:1.0;" width="10" x="398.5" y="249.9609"/><rect fill="#FFFFFF" filter="url(#f1o947mdm6tlfq)" height="53.1328" style="stroke:#A80036;stroke-width:1.0;" width="10" x="524.5" y="308.2266"/><rect fill="#EEEEEE" filter="url(#f1o947mdm6tlfq)" height="3" style="stroke:#EEEEEE;stroke-width:1.0;" width="595.5" x="0" y="118.8633"/><line style="stroke:#000000;stroke-width:1.0;" x1="0" x2="595.5" y1="118.8633" y2="118.8633"/><line style="stroke:#000000;stroke-width:1.0;" x1="0" x2="595.5" y1="121.8633" y2="121.8633"/><rect fill="#EEEEEE" filter="url(#f1o947mdm6tlfq)" height="23.1328" style="stroke:#000000;stroke-width:2.0;" width="106" x="244.75" y="108.2969"/><text fill="#000000" font-family="sans-serif" font-size="13" font-weight="bold" lengthAdjust="spacing" textLength="87" x="250.75" y="124.3638">web研发流程</text><polygon fill="#A80036" points="158,158.5625,168,162.5625,158,166.5625,162,162.5625" style="stroke:#A80036;stroke-width:1.0;"/><line style="stroke:#A80036;stroke-width:1.0;" x1="34" x2="164" y1="162.5625" y2="162.5625"/><text fill="#000000" font-family="sans-serif" font-size="13" lengthAdjust="spacing" textLength="117" x="41" y="157.4966">提交代码到功能分支</text><polygon fill="#A80036" points="270.5,187.6953,280.5,191.6953,270.5,195.6953,274.5,191.6953" style="stroke:#A80036;stroke-width:1.0;"/><line style="stroke:#A80036;stroke-width:1.0;" x1="175" x2="276.5" y1="191.6953" y2="191.6953"/><text fill="#000000" font-family="sans-serif" font-size="13" lengthAdjust="spacing" textLength="26" x="182" y="186.6294">发布</text><polygon fill="#A80036" points="45,216.8281,35,220.8281,45,224.8281,41,220.8281" style="stroke:#A80036;stroke-width:1.0;"/><line style="stroke:#A80036;stroke-width:1.0;stroke-dasharray:2.0,2.0;" x1="39" x2="286.5" y1="220.8281" y2="220.8281"/><text fill="#000000" font-family="sans-serif" font-size="13" lengthAdjust="spacing" textLength="52" x="51" y="215.7622">下载页面</text><polygon fill="#A80036" points="386.5,245.9609,396.5,249.9609,386.5,253.9609,390.5,249.9609" style="stroke:#A80036;stroke-width:1.0;"/><line style="stroke:#A80036;stroke-width:1.0;" x1="34" x2="392.5" y1="249.9609" y2="249.9609"/><text fill="#000000" font-family="sans-serif" font-size="13" lengthAdjust="spacing" textLength="117" x="41" y="244.895">提交页面到功能分支</text><polygon fill="#A80036" points="45,275.0938,35,279.0938,45,283.0938,41,279.0938" style="stroke:#A80036;stroke-width:1.0;"/><line style="stroke:#A80036;stroke-width:1.0;stroke-dasharray:2.0,2.0;" x1="39" x2="402.5" y1="279.0938" y2="279.0938"/><text fill="#000000" font-family="sans-serif" font-size="13" lengthAdjust="spacing" textLength="52" x="51" y="274.0278">功能分支</text><polygon fill="#A80036" points="512.5,304.2266,522.5,308.2266,512.5,312.2266,516.5,308.2266" style="stroke:#A80036;stroke-width:1.0;"/><line style="stroke:#A80036;stroke-width:1.0;" x1="34" x2="518.5" y1="308.2266" y2="308.2266"/><text fill="#000000" font-family="sans-serif" font-size="13" lengthAdjust="spacing" textLength="52" x="41" y="303.1606">功能分支</text><path d="M469,321.2266 L469,346.2266 L585,346.2266 L585,331.2266 L575,321.2266 L469,321.2266 " fill="#FBFB77" filter="url(#f1o947mdm6tlfq)" style="stroke:#A80036;stroke-width:1.0;"/><path d="M575,321.2266 L575,331.2266 L585,331.2266 L575,321.2266 " fill="#FBFB77" style="stroke:#A80036;stroke-width:1.0;"/><text fill="#000000" font-family="sans-serif" font-size="13" lengthAdjust="spacing" textLength="95" x="475" y="338.2935">docker包含页面</text><polygon fill="#A80036" points="45,357.3594,35,361.3594,45,365.3594,41,361.3594" style="stroke:#A80036;stroke-width:1.0;"/><line style="stroke:#A80036;stroke-width:1.0;stroke-dasharray:2.0,2.0;" x1="39" x2="528.5" y1="361.3594" y2="361.3594"/></g></svg>
