<?xml version="1.0" encoding="UTF-8" standalone="no"?><svg xmlns="http://www.w3.org/2000/svg" xmlns:xlink="http://www.w3.org/1999/xlink" contentScriptType="application/ecmascript" contentStyleType="text/css" height="728px" preserveAspectRatio="none" style="width:854px;height:728px;" version="1.1" viewBox="0 0 854 728" width="854px" zoomAndPan="magnify"><defs><filter height="300%" id="f225q4ggoromy" width="300%" x="-1" y="-1"><feGaussianBlur result="blurOut" stdDeviation="2.0"/><feColorMatrix in="blurOut" result="blurOut2" type="matrix" values="0 0 0 0 0 0 0 0 0 0 0 0 0 0 0 0 0 0 .4 0"/><feOffset dx="4.0" dy="4.0" in="blurOut2" result="blurOut3"/><feBlend in="SourceGraphic" in2="blurOut3" mode="normal"/></filter></defs><g><rect fill="#ADD8E6" height="716.9844" style="stroke:#A80036;stroke-width:1.0;" width="290" x="1" y="6"/><text fill="#000000" font-family="sans-serif" font-size="13" font-weight="bold" lengthAdjust="spacing" textLength="28" x="132" y="18.0669">业务</text><rect fill="#DDDDDD" height="716.9844" style="stroke:#A80036;stroke-width:1.0;" width="449" x="399" y="6"/><text fill="#000000" font-family="sans-serif" font-size="13" font-weight="bold" lengthAdjust="spacing" textLength="28" x="609.5" y="18.0669">服务</text><rect fill="#FFFFFF" filter="url(#f225q4ggoromy)" height="509.2578" style="stroke:#A80036;stroke-width:1.0;" width="10" x="24" y="118.4297"/><rect fill="#FFFFFF" filter="url(#f225q4ggoromy)" height="29.1328" style="stroke:#A80036;stroke-width:1.0;" width="10" x="245" y="139.5625"/><rect fill="#FFFFFF" filter="url(#f225q4ggoromy)" height="38.1328" style="stroke:#A80036;stroke-width:1.0;" width="10" x="245" y="589.5547"/><rect fill="#FFFFFF" filter="url(#f225q4ggoromy)" height="429.8594" style="stroke:#A80036;stroke-width:1.0;" width="10" x="435" y="197.8281"/><rect fill="#FFFFFF" filter="url(#f225q4ggoromy)" height="225.9297" style="stroke:#A80036;stroke-width:1.0;" width="10" x="802" y="401.7578"/><line style="stroke:#A80036;stroke-width:1.0;stroke-dasharray:5.0,5.0;" x1="29" x2="29" y1="108.4297" y2="636.6875"/><line style="stroke:#A80036;stroke-width:1.0;stroke-dasharray:5.0,5.0;" x1="250" x2="250" y1="108.4297" y2="636.6875"/><line style="stroke:#A80036;stroke-width:1.0;stroke-dasharray:5.0,5.0;" x1="440" x2="440" y1="108.4297" y2="636.6875"/><line style="stroke:#A80036;stroke-width:1.0;stroke-dasharray:5.0,5.0;" x1="807" x2="807" y1="108.4297" y2="636.6875"/><text fill="#000000" font-family="sans-serif" font-size="14" lengthAdjust="spacing" textLength="42" x="5" y="105.1279">调用方</text><ellipse cx="29" cy="35.1328" fill="#FEFECE" filter="url(#f225q4ggoromy)" rx="8" ry="8" style="stroke:#A80036;stroke-width:2.0;"/><path d="M29,43.1328 L29,70.1328 M16,51.1328 L42,51.1328 M29,70.1328 L16,85.1328 M29,70.1328 L42,85.1328 " fill="none" filter="url(#f225q4ggoromy)" style="stroke:#A80036;stroke-width:2.0;"/><text fill="#000000" font-family="sans-serif" font-size="14" lengthAdjust="spacing" textLength="42" x="5" y="648.6826">调用方</text><ellipse cx="29" cy="661.9844" fill="#FEFECE" filter="url(#f225q4ggoromy)" rx="8" ry="8" style="stroke:#A80036;stroke-width:2.0;"/><path d="M29,669.9844 L29,696.9844 M16,677.9844 L42,677.9844 M29,696.9844 L16,711.9844 M29,696.9844 L42,711.9844 " fill="none" filter="url(#f225q4ggoromy)" style="stroke:#A80036;stroke-width:2.0;"/><rect fill="#FEFECE" filter="url(#f225q4ggoromy)" height="30.2969" style="stroke:#A80036;stroke-width:1.5;" width="70" x="213" y="73.1328"/><text fill="#000000" font-family="sans-serif" font-size="14" lengthAdjust="spacing" textLength="56" x="220" y="93.1279">基础后端</text><rect fill="#FEFECE" filter="url(#f225q4ggoromy)" height="30.2969" style="stroke:#A80036;stroke-width:1.5;" width="70" x="213" y="635.6875"/><text fill="#000000" font-family="sans-serif" font-size="14" lengthAdjust="spacing" textLength="56" x="220" y="655.6826">基础后端</text><rect fill="#FEFECE" filter="url(#f225q4ggoromy)" height="30.2969" style="stroke:#A80036;stroke-width:1.5;" width="70" x="403" y="73.1328"/><text fill="#000000" font-family="sans-serif" font-size="14" lengthAdjust="spacing" textLength="56" x="410" y="93.1279">前端组件</text><rect fill="#FEFECE" filter="url(#f225q4ggoromy)" height="30.2969" style="stroke:#A80036;stroke-width:1.5;" width="70" x="403" y="635.6875"/><text fill="#000000" font-family="sans-serif" font-size="14" lengthAdjust="spacing" textLength="56" x="410" y="655.6826">前端组件</text><rect fill="#FEFECE" filter="url(#f225q4ggoromy)" height="30.2969" style="stroke:#A80036;stroke-width:1.5;" width="70" x="770" y="73.1328"/><text fill="#000000" font-family="sans-serif" font-size="14" lengthAdjust="spacing" textLength="56" x="777" y="93.1279">业务后端</text><rect fill="#FEFECE" filter="url(#f225q4ggoromy)" height="30.2969" style="stroke:#A80036;stroke-width:1.5;" width="70" x="770" y="635.6875"/><text fill="#000000" font-family="sans-serif" font-size="14" lengthAdjust="spacing" textLength="56" x="777" y="655.6826">业务后端</text><rect fill="#FFFFFF" filter="url(#f225q4ggoromy)" height="509.2578" style="stroke:#A80036;stroke-width:1.0;" width="10" x="24" y="118.4297"/><rect fill="#FFFFFF" filter="url(#f225q4ggoromy)" height="29.1328" style="stroke:#A80036;stroke-width:1.0;" width="10" x="245" y="139.5625"/><rect fill="#FFFFFF" filter="url(#f225q4ggoromy)" height="38.1328" style="stroke:#A80036;stroke-width:1.0;" width="10" x="245" y="589.5547"/><rect fill="#FFFFFF" filter="url(#f225q4ggoromy)" height="429.8594" style="stroke:#A80036;stroke-width:1.0;" width="10" x="435" y="197.8281"/><rect fill="#FFFFFF" filter="url(#f225q4ggoromy)" height="225.9297" style="stroke:#A80036;stroke-width:1.0;" width="10" x="802" y="401.7578"/><polygon fill="#A80036" points="233,135.5625,243,139.5625,233,143.5625,237,139.5625" style="stroke:#A80036;stroke-width:1.0;"/><line style="stroke:#A80036;stroke-width:1.0;" x1="34" x2="239" y1="139.5625" y2="139.5625"/><text fill="#000000" font-family="sans-serif" font-size="13" font-weight="bold" lengthAdjust="spacing" textLength="9" x="41" y="134.4966">1</text><text fill="#000000" font-family="sans-serif" font-size="13" lengthAdjust="spacing" textLength="52" x="54" y="134.4966">调用接口</text><polygon fill="#A80036" points="45,164.6953,35,168.6953,45,172.6953,41,168.6953" style="stroke:#A80036;stroke-width:1.0;"/><line style="stroke:#A80036;stroke-width:1.0;" x1="39" x2="249" y1="168.6953" y2="168.6953"/><text fill="#000000" font-family="sans-serif" font-size="13" font-weight="bold" lengthAdjust="spacing" textLength="9" x="51" y="163.6294">2</text><text fill="#000000" font-family="sans-serif" font-size="13" lengthAdjust="spacing" textLength="169" x="64" y="163.6294">获取流水号和支持的核身类型</text><polygon fill="#A80036" points="423,193.8281,433,197.8281,423,201.8281,427,197.8281" style="stroke:#A80036;stroke-width:1.0;"/><line style="stroke:#A80036;stroke-width:1.0;" x1="34" x2="429" y1="197.8281" y2="197.8281"/><text fill="#000000" font-family="sans-serif" font-size="13" font-weight="bold" lengthAdjust="spacing" textLength="9" x="41" y="192.7622">3</text><text fill="#000000" font-family="sans-serif" font-size="13" lengthAdjust="spacing" textLength="341" x="54" y="192.7622">初始化组件（入参为流水号、核身方式，成功和失败页url）</text><polygon fill="#A80036" points="45,222.9609,35,226.9609,45,230.9609,41,226.9609" style="stroke:#A80036;stroke-width:1.0;"/><line style="stroke:#A80036;stroke-width:1.0;" x1="39" x2="434" y1="226.9609" y2="226.9609"/><text fill="#000000" font-family="sans-serif" font-size="13" font-weight="bold" lengthAdjust="spacing" textLength="9" x="51" y="221.895">4</text><text fill="#000000" font-family="sans-serif" font-size="13" lengthAdjust="spacing" textLength="364" x="64" y="221.895">如果两种核身类型都支持，展示弹窗让用户选择，否则直接跳转</text><polygon fill="#A80036" points="423,252.0938,433,256.0938,423,260.0938,427,256.0938" style="stroke:#A80036;stroke-width:1.0;"/><line style="stroke:#A80036;stroke-width:1.0;" x1="34" x2="429" y1="256.0938" y2="256.0938"/><text fill="#000000" font-family="sans-serif" font-size="13" font-weight="bold" lengthAdjust="spacing" textLength="9" x="41" y="251.0278">5</text><text fill="#000000" font-family="sans-serif" font-size="13" lengthAdjust="spacing" textLength="78" x="54" y="251.0278">选择核身方式</text><polygon fill="#A80036" points="795,281.2266,805,285.2266,795,289.2266,799,285.2266" style="stroke:#A80036;stroke-width:1.0;"/><line style="stroke:#A80036;stroke-width:1.0;" x1="445" x2="801" y1="285.2266" y2="285.2266"/><text fill="#000000" font-family="sans-serif" font-size="13" font-weight="bold" lengthAdjust="spacing" textLength="9" x="452" y="280.1606">6</text><text fill="#000000" font-family="sans-serif" font-size="13" lengthAdjust="spacing" textLength="151" x="465" y="280.1606">调用初始化接口（接口1）</text><polygon fill="#A80036" points="456,310.3594,446,314.3594,456,318.3594,452,314.3594" style="stroke:#A80036;stroke-width:1.0;"/><line style="stroke:#A80036;stroke-width:1.0;" x1="450" x2="806" y1="314.3594" y2="314.3594"/><text fill="#000000" font-family="sans-serif" font-size="13" font-weight="bold" lengthAdjust="spacing" textLength="9" x="462" y="309.2935">7</text><text fill="#000000" font-family="sans-serif" font-size="13" lengthAdjust="spacing" textLength="143" x="475" y="309.2935">获取初始化参数并初始化</text><polygon fill="#A80036" points="45,339.4922,35,343.4922,45,347.4922,41,343.4922" style="stroke:#A80036;stroke-width:1.0;"/><line style="stroke:#A80036;stroke-width:1.0;" x1="39" x2="434" y1="343.4922" y2="343.4922"/><text fill="#000000" font-family="sans-serif" font-size="13" font-weight="bold" lengthAdjust="spacing" textLength="9" x="51" y="338.4263">8</text><text fill="#000000" font-family="sans-serif" font-size="13" lengthAdjust="spacing" textLength="78" x="64" y="338.4263">开始人脸核身</text><polygon fill="#A80036" points="423,368.625,433,372.625,423,376.625,427,372.625" style="stroke:#A80036;stroke-width:1.0;"/><line style="stroke:#A80036;stroke-width:1.0;" x1="34" x2="429" y1="372.625" y2="372.625"/><text fill="#000000" font-family="sans-serif" font-size="13" font-weight="bold" lengthAdjust="spacing" textLength="9" x="41" y="367.5591">9</text><text fill="#000000" font-family="sans-serif" font-size="13" lengthAdjust="spacing" textLength="78" x="54" y="367.5591">人脸核身数据</text><polygon fill="#A80036" points="790,397.7578,800,401.7578,790,405.7578,794,401.7578" style="stroke:#A80036;stroke-width:1.0;"/><line style="stroke:#A80036;stroke-width:1.0;" x1="445" x2="796" y1="401.7578" y2="401.7578"/><text fill="#000000" font-family="sans-serif" font-size="13" font-weight="bold" lengthAdjust="spacing" textLength="18" x="452" y="396.6919">10</text><text fill="#000000" font-family="sans-serif" font-size="13" lengthAdjust="spacing" textLength="138" x="474" y="396.6919">上传核身数据（接口2）</text><polygon fill="#A80036" points="456,426.8906,446,430.8906,456,434.8906,452,430.8906" style="stroke:#A80036;stroke-width:1.0;"/><line style="stroke:#A80036;stroke-width:1.0;" x1="450" x2="801" y1="430.8906" y2="430.8906"/><text fill="#000000" font-family="sans-serif" font-size="13" font-weight="bold" lengthAdjust="spacing" textLength="18" x="462" y="425.8247">11</text><text fill="#000000" font-family="sans-serif" font-size="13" lengthAdjust="spacing" textLength="141" x="484" y="425.8247">上传成功，返回流水号id</text><polygon fill="#A80036" points="790,456.0234,800,460.0234,790,464.0234,794,460.0234" style="stroke:#A80036;stroke-width:1.0;"/><line style="stroke:#A80036;stroke-width:1.0;" x1="445" x2="796" y1="460.0234" y2="460.0234"/><text fill="#000000" font-family="sans-serif" font-size="13" font-weight="bold" lengthAdjust="spacing" textLength="18" x="452" y="454.9575">12</text><text fill="#000000" font-family="sans-serif" font-size="13" lengthAdjust="spacing" textLength="214" x="474" y="454.9575">使用流水号id查询核身状态（接口3）</text><polygon fill="#A80036" points="456,485.1563,446,489.1563,456,493.1563,452,489.1563" style="stroke:#A80036;stroke-width:1.0;"/><line style="stroke:#A80036;stroke-width:1.0;" x1="450" x2="801" y1="489.1563" y2="489.1563"/><text fill="#000000" font-family="sans-serif" font-size="13" font-weight="bold" lengthAdjust="spacing" textLength="18" x="462" y="484.0903">13</text><text fill="#000000" font-family="sans-serif" font-size="13" lengthAdjust="spacing" textLength="78" x="484" y="484.0903">返回核身状态</text><line style="stroke:#A80036;stroke-width:1.0;" x1="445" x2="487" y1="518.2891" y2="518.2891"/><line style="stroke:#A80036;stroke-width:1.0;" x1="487" x2="487" y1="518.2891" y2="531.2891"/><line style="stroke:#A80036;stroke-width:1.0;" x1="446" x2="487" y1="531.2891" y2="531.2891"/><polygon fill="#A80036" points="456,527.2891,446,531.2891,456,535.2891,452,531.2891" style="stroke:#A80036;stroke-width:1.0;"/><text fill="#000000" font-family="sans-serif" font-size="13" font-weight="bold" lengthAdjust="spacing" textLength="18" x="452" y="513.2231">14</text><text fill="#000000" font-family="sans-serif" font-size="13" lengthAdjust="spacing" textLength="321" x="474" y="513.2231">展示核身状态页面, 点击按钮跳转，url参数附带流水号id</text><polygon fill="#A80036" points="45,556.4219,35,560.4219,45,564.4219,41,560.4219" style="stroke:#A80036;stroke-width:1.0;"/><line style="stroke:#A80036;stroke-width:1.0;" x1="39" x2="434" y1="560.4219" y2="560.4219"/><text fill="#000000" font-family="sans-serif" font-size="13" font-weight="bold" lengthAdjust="spacing" textLength="18" x="51" y="555.356">15</text><text fill="#000000" font-family="sans-serif" font-size="13" lengthAdjust="spacing" textLength="91" x="73" y="555.356">成功或失败页面</text><polygon fill="#A80036" points="233,585.5547,243,589.5547,233,593.5547,237,589.5547" style="stroke:#A80036;stroke-width:1.0;"/><line style="stroke:#A80036;stroke-width:1.0;" x1="34" x2="239" y1="589.5547" y2="589.5547"/><text fill="#000000" font-family="sans-serif" font-size="13" font-weight="bold" lengthAdjust="spacing" textLength="18" x="41" y="584.4888">16</text><text fill="#000000" font-family="sans-serif" font-size="13" lengthAdjust="spacing" textLength="170" x="63" y="584.4888">使用url上的流水号id查询结果</text><polygon fill="#A80036" points="45,614.6875,35,618.6875,45,622.6875,41,618.6875" style="stroke:#A80036;stroke-width:1.0;"/><line style="stroke:#A80036;stroke-width:1.0;" x1="39" x2="244" y1="618.6875" y2="618.6875"/><text fill="#000000" font-family="sans-serif" font-size="13" font-weight="bold" lengthAdjust="spacing" textLength="18" x="51" y="613.6216">17</text><text fill="#000000" font-family="sans-serif" font-size="13" lengthAdjust="spacing" textLength="52" x="73" y="613.6216">返回结果</text></g></svg>
