<?xml version="1.0" encoding="UTF-8" standalone="no"?><svg xmlns="http://www.w3.org/2000/svg" xmlns:xlink="http://www.w3.org/1999/xlink" contentScriptType="application/ecmascript" contentStyleType="text/css" height="943px" preserveAspectRatio="none" style="width:358px;height:943px;" version="1.1" viewBox="0 0 358 943" width="358px" zoomAndPan="magnify"><defs><filter height="300%" id="f1hqt1jpy1gbe1" width="300%" x="-1" y="-1"><feGaussianBlur result="blurOut" stdDeviation="2.0"/><feColorMatrix in="blurOut" result="blurOut2" type="matrix" values="0 0 0 0 0 0 0 0 0 0 0 0 0 0 0 0 0 0 .4 0"/><feOffset dx="4.0" dy="4.0" in="blurOut2" result="blurOut3"/><feBlend in="SourceGraphic" in2="blurOut3" mode="normal"/></filter></defs><g><ellipse cx="176" cy="18" fill="#000000" filter="url(#f1hqt1jpy1gbe1)" rx="10" ry="10" style="stroke: none; stroke-width: 1.0;"/><rect fill="#FEFECE" filter="url(#f1hqt1jpy1gbe1)" height="50" rx="12.5" ry="12.5" style="stroke: #A80036; stroke-width: 1.5;" width="50" x="151" y="88"/><line style="stroke: #A80036; stroke-width: 1.5;" x1="151" x2="201" y1="114.2969" y2="114.2969"/><text fill="#000000" font-family="sans-serif" font-size="14" lengthAdjust="spacingAndGlyphs" textLength="20" x="166" y="105.9951">init</text><rect fill="#FEFECE" filter="url(#f1hqt1jpy1gbe1)" height="50" rx="12.5" ry="12.5" style="stroke: #A80036; stroke-width: 1.5;" width="65" x="143.5" y="198"/><line style="stroke: #A80036; stroke-width: 1.5;" x1="143.5" x2="208.5" y1="224.2969" y2="224.2969"/><text fill="#000000" font-family="sans-serif" font-size="14" lengthAdjust="spacingAndGlyphs" textLength="45" x="153.5" y="215.9951">mount</text><rect fill="#FEFECE" filter="url(#f1hqt1jpy1gbe1)" height="50" rx="12.5" ry="12.5" style="stroke: #A80036; stroke-width: 1.5;" width="66" x="143" y="472"/><line style="stroke: #A80036; stroke-width: 1.5;" x1="143" x2="209" y1="498.2969" y2="498.2969"/><text fill="#000000" font-family="sans-serif" font-size="14" lengthAdjust="spacingAndGlyphs" textLength="46" x="153" y="489.9951">render</text><rect fill="#FEFECE" filter="url(#f1hqt1jpy1gbe1)" height="50" rx="12.5" ry="12.5" style="stroke: #A80036; stroke-width: 1.5;" width="63" x="144.5" y="582"/><line style="stroke: #A80036; stroke-width: 1.5;" x1="144.5" x2="207.5" y1="608.2969" y2="608.2969"/><text fill="#000000" font-family="sans-serif" font-size="14" lengthAdjust="spacingAndGlyphs" textLength="43" x="154.5" y="599.9951">vnode</text><rect fill="#FEFECE" filter="url(#f1hqt1jpy1gbe1)" height="50" rx="12.5" ry="12.5" style="stroke: #A80036; stroke-width: 1.5;" width="59" x="146.5" y="692"/><line style="stroke: #A80036; stroke-width: 1.5;" x1="146.5" x2="205.5" y1="718.2969" y2="718.2969"/><text fill="#000000" font-family="sans-serif" font-size="14" lengthAdjust="spacingAndGlyphs" textLength="39" x="156.5" y="709.9951">patch</text><rect fill="#FEFECE" filter="url(#f1hqt1jpy1gbe1)" height="50" rx="12.5" ry="12.5" style="stroke: #A80036; stroke-width: 1.5;" width="54" x="149" y="802"/><line style="stroke: #A80036; stroke-width: 1.5;" x1="149" x2="203" y1="828.2969" y2="828.2969"/><text fill="#000000" font-family="sans-serif" font-size="14" lengthAdjust="spacingAndGlyphs" textLength="34" x="159" y="819.9951">DOM</text><ellipse cx="176" cy="922" fill="none" filter="url(#f1hqt1jpy1gbe1)" rx="10" ry="10" style="stroke: #000000; stroke-width: 1.0;"/><ellipse cx="176.5" cy="922.5" fill="#000000" rx="6" ry="6" style="stroke: none; stroke-width: 1.0;"/><rect fill="#FEFECE" filter="url(#f1hqt1jpy1gbe1)" height="104.2969" rx="12.5" ry="12.5" style="stroke: #A80036; stroke-width: 1.5;" width="340" x="6" y="308"/><rect fill="#FFFFFF" height="72" rx="12.5" ry="12.5" style="stroke: #FFFFFF; stroke-width: 1.0;" width="334" x="9" y="337.2969"/><line style="stroke: #A80036; stroke-width: 1.5;" x1="6" x2="346" y1="334.2969" y2="334.2969"/><text fill="#000000" font-family="sans-serif" font-size="14" lengthAdjust="spacingAndGlyphs" textLength="54" x="149" y="325.9951">compile</text><ellipse cx="27" cy="372.2969" fill="#000000" filter="url(#f1hqt1jpy1gbe1)" rx="10" ry="10" style="stroke: none; stroke-width: 1.0;"/><rect fill="#FEFECE" filter="url(#f1hqt1jpy1gbe1)" height="50" rx="12.5" ry="12.5" style="stroke: #A80036; stroke-width: 1.5;" width="59" x="55.5" y="347.2969"/><line style="stroke: #A80036; stroke-width: 1.5;" x1="55.5" x2="114.5" y1="373.5938" y2="373.5938"/><text fill="#000000" font-family="sans-serif" font-size="14" lengthAdjust="spacingAndGlyphs" textLength="39" x="65.5" y="365.292">parse</text><rect fill="#FEFECE" filter="url(#f1hqt1jpy1gbe1)" height="50" rx="12.5" ry="12.5" style="stroke: #A80036; stroke-width: 1.5;" width="79" x="132.5" y="347.2969"/><line style="stroke: #A80036; stroke-width: 1.5;" x1="132.5" x2="211.5" y1="373.5938" y2="373.5938"/><text fill="#000000" font-family="sans-serif" font-size="14" lengthAdjust="spacingAndGlyphs" textLength="59" x="142.5" y="365.292">optimize</text><rect fill="#FEFECE" filter="url(#f1hqt1jpy1gbe1)" height="50" rx="12.5" ry="12.5" style="stroke: #A80036; stroke-width: 1.5;" width="83" x="229.5" y="347.2969"/><line style="stroke: #A80036; stroke-width: 1.5;" x1="229.5" x2="312.5" y1="373.5938" y2="373.5938"/><text fill="#000000" font-family="sans-serif" font-size="14" lengthAdjust="spacingAndGlyphs" textLength="63" x="239.5" y="365.292">generate</text><path d="M37.4219,372.2969 C41.6965,372.2969 45.9711,372.2969 50.2457,372.2969 " fill="none" id="*start*compile-&gt;parse" style="stroke: #A80036; stroke-width: 1.0;"/><polygon fill="#A80036" points="55.2637,372.2969,46.2637,368.2969,50.2637,372.2969,46.2637,376.2969,55.2637,372.2969" style="stroke: #A80036; stroke-width: 1.0;"/><path d="M114.5664,372.2969 C118.6678,372.2969 122.7692,372.2969 126.8706,372.2969 " fill="none" id="parse-&gt;optimize" style="stroke: #A80036; stroke-width: 1.0;"/><polygon fill="#A80036" points="132.0657,372.2969,123.0657,368.2969,127.0657,372.2969,123.0657,376.2969,132.0657,372.2969" style="stroke: #A80036; stroke-width: 1.0;"/><path d="M211.832,372.2969 C215.9489,372.2969 220.0659,372.2969 224.1828,372.2969 " fill="none" id="optimize-&gt;generate" style="stroke: #A80036; stroke-width: 1.0;"/><polygon fill="#A80036" points="229.3975,372.2969,220.3975,368.2969,224.3975,372.2969,220.3975,376.2969,229.3975,372.2969" style="stroke: #A80036; stroke-width: 1.0;"/><path d="M176,28.1667 C176,41.0299 176,63.7608 176,82.4572 " fill="none" id="*start-&gt;init" style="stroke: #A80036; stroke-width: 1.0;"/><polygon fill="#A80036" points="176,87.612,180,78.612,176,82.612,172,78.612,176,87.612" style="stroke: #A80036; stroke-width: 1.0;"/><path d="M176,138.2362 C176,154.4464 176,175.5926 176,192.7087 " fill="none" id="init-&gt;mount" style="stroke: #A80036; stroke-width: 1.0;"/><polygon fill="#A80036" points="176,197.8812,180,188.8812,176,192.8812,172,188.8812,176,197.8812" style="stroke: #A80036; stroke-width: 1.0;"/><path d="M176,248.1279 C176,263.3795 176,283.5041 176,302.4756 " fill="none" id="mount-&gt;compile" style="stroke: #A80036; stroke-width: 1.0;"/><polygon fill="#A80036" points="176,307.7909,180,298.7909,176,302.7909,172,298.7909,176,307.7909" style="stroke: #A80036; stroke-width: 1.0;"/><path d="M176,412.1846 C176,430.5278 176,450.5282 176,466.498 " fill="none" id="compile-&gt;render" style="stroke: #A80036; stroke-width: 1.0;"/><polygon fill="#A80036" points="176,471.7511,180,462.7511,176,466.7511,172,462.7511,176,471.7511" style="stroke: #A80036; stroke-width: 1.0;"/><path d="M176,522.2362 C176,538.4464 176,559.5926 176,576.7087 " fill="none" id="render-&gt;vnode" style="stroke: #A80036; stroke-width: 1.0;"/><polygon fill="#A80036" points="176,581.8812,180,572.8812,176,576.8812,172,572.8812,176,581.8812" style="stroke: #A80036; stroke-width: 1.0;"/><path d="M176,632.2362 C176,648.4464 176,669.5926 176,686.7087 " fill="none" id="vnode-&gt;patch" style="stroke: #A80036; stroke-width: 1.0;"/><polygon fill="#A80036" points="176,691.8812,180,682.8812,176,686.8812,172,682.8812,176,691.8812" style="stroke: #A80036; stroke-width: 1.0;"/><path d="M176,742.2362 C176,758.4464 176,779.5926 176,796.7087 " fill="none" id="patch-&gt;DOM" style="stroke: #A80036; stroke-width: 1.0;"/><polygon fill="#A80036" points="176,801.8812,180,792.8812,176,796.8812,172,792.8812,176,801.8812" style="stroke: #A80036; stroke-width: 1.0;"/><path d="M176,852.4583 C176,869.6886 176,891.8909 176,906.5165 " fill="none" id="DOM-&gt;*end" style="stroke: #A80036; stroke-width: 1.0;"/><polygon fill="#A80036" points="176,911.5388,180,902.5388,176,906.5388,172,902.5388,176,911.5388" style="stroke: #A80036; stroke-width: 1.0;"/></g></svg>
